<svg width="803" height="591" viewBox="0 0 803 591" fill="none" xmlns="http://www.w3.org/2000/svg">
<g clip-path="url(#clip0_250_2993)">
<path d="M325.404 383.323L175.797 483.39L28.4536 263.099L178.061 163.034L325.404 383.323Z" fill="#F3F2F1"/>
<path d="M248.115 372.878L246.417 383.386L172.045 372.671L173.744 362.164L248.115 372.878Z" fill="#DADBD8"/>
<path d="M210.66 335.394L221.332 336.933L209.5 410.155L198.828 408.618L210.66 335.394Z" fill="#DADBD8"/>
<path d="M142.158 242.325C142.264 242.485 127.272 252.7 108.676 265.139C90.0721 277.581 74.9095 287.536 74.8038 287.376C74.6971 287.217 89.6866 277.004 108.289 264.561C126.886 252.123 142.052 242.167 142.158 242.325Z" fill="#DADBD8"/>
<path d="M197.176 228.515C197.283 228.675 172.351 245.537 141.497 266.173C110.632 286.819 85.5334 303.419 85.4266 303.259C85.3198 303.1 110.246 286.24 141.111 265.597C171.965 244.96 197.069 228.355 197.176 228.515Z" fill="#DADBD8"/>
<path d="M208.204 245.004C208.312 245.164 183.38 262.026 152.526 282.662C121.661 303.308 96.5617 319.908 96.4554 319.749C96.3486 319.589 121.275 302.73 152.14 282.086C182.994 261.449 208.098 244.845 208.204 245.004Z" fill="#DADBD8"/>
<path d="M219.233 261.491C219.34 261.651 194.408 278.514 163.555 299.151C132.689 319.795 107.59 336.395 107.483 336.236C107.377 336.078 132.303 319.217 163.168 298.574C194.021 277.936 219.127 261.332 219.233 261.491Z" fill="#DADBD8"/>
<path d="M230.261 277.98C230.368 278.14 205.436 295.003 174.583 315.639C143.717 336.283 118.619 352.884 118.512 352.724C118.405 352.566 143.332 335.707 174.196 315.063C205.051 294.426 230.155 277.822 230.261 277.98Z" fill="#DADBD8"/>
<path d="M802.064 495.677L676.419 579.715L552.677 394.709L678.321 310.671L802.064 495.677Z" fill="#F3F2F1"/>
<path d="M737.154 486.904L735.728 495.729L673.27 486.731L674.696 477.907L737.154 486.904Z" fill="#DADBD8"/>
<path d="M705.7 455.426L714.661 456.715L704.724 518.211L695.761 516.92L705.7 455.426Z" fill="#DADBD8"/>
<path d="M648.168 377.264C648.275 377.423 635.699 386.021 620.08 396.468C604.456 406.919 591.708 415.257 591.601 415.097C591.495 414.937 604.071 406.34 619.695 395.891C635.311 385.444 648.061 377.103 648.168 377.264Z" fill="#DADBD8"/>
<path d="M694.373 365.664C694.48 365.823 673.556 380.005 647.644 397.337C621.722 414.675 600.631 428.597 600.524 428.436C600.417 428.277 621.337 414.099 647.257 396.761C673.171 379.429 694.266 365.504 694.373 365.664Z" fill="#DADBD8"/>
<path d="M703.638 379.513C703.744 379.671 682.818 393.854 656.907 411.186C630.986 428.523 609.892 442.443 609.786 442.285C609.68 442.126 630.599 427.946 656.522 410.609C682.432 393.277 703.531 379.353 703.638 379.513Z" fill="#DADBD8"/>
<path d="M712.899 393.36C713.006 393.519 692.082 407.702 666.168 425.034C640.248 442.371 619.155 456.291 619.048 456.132C618.942 455.974 639.862 441.794 665.783 424.456C691.695 407.124 712.792 393.2 712.899 393.36Z" fill="#DADBD8"/>
<path d="M722.16 407.207C722.267 407.367 701.343 421.548 675.431 438.88C649.51 456.217 628.418 470.139 628.311 469.98C628.203 469.82 649.123 455.641 675.044 438.303C700.956 420.972 722.054 407.047 722.16 407.207Z" fill="#DADBD8"/>
<path d="M371.587 372.97L234.496 299.651L342.455 97.7884L479.547 171.107L371.587 372.97Z" fill="#F3F2F1"/>
<path d="M348.118 309.823L339.42 312.802L317.344 251.77L326.041 248.791L348.118 309.823Z" fill="#DADBD8"/>
<path d="M361.453 266.039L364.621 274.796L304.009 295.555L300.841 286.796L361.453 266.039Z" fill="#DADBD8"/>
<path d="M404.521 175.99C404.415 176.191 390.509 168.963 373.468 159.85C356.421 150.734 342.695 143.183 342.801 142.982C342.908 142.781 356.811 150.007 373.857 159.123C390.897 168.238 404.629 175.79 404.521 175.99Z" fill="#DADBD8"/>
<path d="M437.419 212.3C437.311 212.502 414.299 200.404 386.027 185.283C357.743 170.156 334.911 157.736 335.017 157.536C335.124 157.335 358.132 169.431 386.415 184.556C414.688 199.678 437.525 212.1 437.419 212.3Z" fill="#DADBD8"/>
<path d="M429.337 227.41C429.231 227.611 406.219 215.514 377.945 200.392C349.663 185.267 326.829 172.846 326.937 172.644C327.044 172.444 350.052 184.539 378.335 199.666C406.607 214.787 429.445 227.21 429.337 227.41Z" fill="#DADBD8"/>
<path d="M421.256 242.519C421.149 242.72 398.139 230.623 369.865 215.502C341.583 200.375 318.749 187.955 318.856 187.754C318.964 187.554 341.971 199.648 370.253 214.775C398.526 229.895 421.365 242.319 421.256 242.519Z" fill="#DADBD8"/>
<path d="M413.176 257.628C413.069 257.83 390.057 245.731 361.784 230.611C333.501 215.484 310.668 203.064 310.776 202.863C310.882 202.662 333.89 214.758 362.173 229.883C390.445 245.004 413.284 257.428 413.176 257.628Z" fill="#DADBD8"/>
<path d="M410.451 58.6436H413.895V-0.000680098H410.451V58.6436Z" fill="#C3C5C2"/>
<path d="M331.865 129.584H492.48C492.48 129.584 477.651 58.6053 410.956 58.6053C351.633 58.6053 331.865 129.584 331.865 129.584Z" fill="#F03D5F"/>
<path d="M413.895 -0.000419682H410.451V58.6436H413.895V-0.000419682Z" fill="#F03D5F"/>
<path d="M769.777 586.436C769.777 586.628 597.443 586.784 384.907 586.784C172.297 586.784 0 586.628 0 586.436C0 586.245 172.297 586.089 384.907 586.089C597.443 586.089 769.777 586.245 769.777 586.436Z" fill="#17282F"/>
<path d="M42.6028 502.935C47.1112 503.092 51.3424 505.54 54.3164 508.932C57.2899 512.324 59.1128 516.591 60.2784 520.947C62.5347 529.379 61.1482 539.328 58.7435 547.718C49.6159 544.456 43.9867 534.722 41.4419 529.604C37.4191 521.516 35.0602 504.455 42.6028 502.935Z" fill="#F03D5F"/>
<path d="M71.8775 557.937C68.9972 553.803 68.9296 548.052 71.2067 543.556C73.4832 539.061 77.8567 535.819 82.6739 534.339C84.9009 533.656 87.4859 533.368 89.4233 534.661C91.2343 535.872 92.0171 538.245 91.7832 540.412C91.5504 542.578 90.452 544.559 89.1583 546.311C84.7201 552.32 79.3223 557.321 71.8775 557.937Z" fill="#F03D5F"/>
<path d="M72.8824 586.111C72.8382 586.118 72.7002 585.493 72.4742 584.361C72.2304 583.11 71.9142 581.494 71.5356 579.554C70.8152 575.514 69.672 569.769 70.5366 563.417C71.3674 557.094 73.8851 551.687 76.5236 548.459C77.8231 546.826 79.0658 545.67 79.9862 544.959C80.4314 544.586 80.8242 544.355 81.0726 544.179C81.3278 544.011 81.4679 543.933 81.4804 543.95C81.5799 544.062 79.3466 545.438 76.8788 548.731C74.3788 551.97 71.9819 557.283 71.1638 563.5C70.3127 569.723 71.3663 575.417 71.9756 579.479C72.3023 581.518 72.5658 583.171 72.7174 584.321C72.869 585.467 72.9242 586.105 72.8824 586.111Z" fill="#17282F"/>
<path d="M45.5471 515.769C45.5674 515.759 45.6928 515.997 45.9147 516.459C46.158 516.985 46.4699 517.657 46.8548 518.49C47.6616 520.261 48.796 522.835 50.1699 526.029C52.9199 532.414 56.596 541.289 60.433 551.179C64.2684 561.076 67.5382 570.109 69.8122 576.678C70.9502 579.964 71.8486 582.629 72.4455 584.479C72.7226 585.355 72.9466 586.062 73.1204 586.614C73.2684 587.104 73.3362 587.366 73.3152 587.373C73.2955 587.379 73.1871 587.133 73.0002 586.657C72.7971 586.114 72.5362 585.419 72.2132 584.559C71.5199 582.659 70.5622 580.038 69.3908 576.829C67.01 570.3 63.6762 561.297 59.8434 551.409C56.009 541.525 52.4012 532.629 49.758 526.202C48.459 523.042 47.398 520.459 46.6294 518.589C46.2882 517.735 46.0127 517.046 45.7975 516.51C45.6142 516.033 45.5278 515.776 45.5471 515.769Z" fill="#17282F"/>
<path d="M62.0471 567.471C56.6638 558.312 46.6138 552.066 36.0181 551.299C33.3195 551.101 30.0743 551.556 28.8711 553.98C27.6654 556.407 29.2774 559.278 31.1159 561.27C38.7643 569.555 51.7019 572.443 62.1471 568.197" fill="#F03D5F"/>
<path d="M40.127 558.521C40.1302 558.479 40.7302 558.503 41.8166 558.584C42.3598 558.621 43.0259 558.669 43.7879 558.814C44.5473 558.954 45.4322 559.038 46.3734 559.299C47.3207 559.532 48.3671 559.764 49.4494 560.154C50.553 560.48 51.6863 560.952 52.877 561.456C55.2291 562.524 57.725 563.923 60.1005 565.739C62.4587 567.578 64.4515 569.632 66.0707 571.647C66.8505 572.68 67.5937 573.657 68.1739 574.654C68.815 575.609 69.2911 576.57 69.7385 577.438C70.2177 578.29 70.4999 579.133 70.8125 579.84C71.1291 580.548 71.3254 581.187 71.4833 581.708C71.8067 582.749 71.9645 583.327 71.9229 583.34C71.7879 583.387 71.1395 581.056 69.3411 577.643C68.8739 576.8 68.3827 575.866 67.7322 574.935C67.1426 573.968 66.3937 573.018 65.6161 572.011C63.9978 570.05 62.0306 568.045 59.7139 566.24C57.3806 564.456 54.939 563.068 52.6374 561.988C51.4718 561.478 50.363 560.992 49.2817 560.651C48.2229 560.244 47.1969 559.991 46.2677 559.733C42.5254 558.787 40.113 558.659 40.127 558.521Z" fill="#17282F"/>
<path d="M645.37 140.633C641.45 141.535 639.54 146.046 639.17 150.051C638.799 154.058 639.31 158.289 637.627 161.943C635.732 166.057 631.21 169.089 631.059 173.614C630.968 176.374 632.606 178.969 632.528 181.727C632.399 186.261 627.776 189.685 627.534 194.213C627.36 197.473 629.532 200.601 629.01 203.823C628.602 206.333 626.65 208.309 625.824 210.711C624.179 215.502 627.47 220.775 631.756 223.473C636.534 226.477 642.651 227.253 648.027 225.535C653.403 223.818 657.936 219.638 660.087 214.421C662.459 208.662 661.94 202.178 661.424 195.971C659.818 176.631 658.624 157.257 657.844 137.865" fill="#17282F"/>
<path d="M633.988 208.885C633.904 208.807 635.06 208.465 635.778 206.754C636.128 205.917 636.306 204.793 636.236 203.499C636.19 202.197 635.746 200.779 635.262 199.182C634.816 197.597 634.234 195.759 634.568 193.714C634.904 191.638 636.389 189.934 637.745 188.258C638.426 187.409 639.113 186.527 639.545 185.522C640 184.529 640.096 183.391 639.754 182.325C639.065 180.146 636.93 178.545 635.95 176.029C635.465 174.769 635.46 173.385 635.737 172.138C636 170.879 636.51 169.738 637.024 168.649C638.068 166.478 639.217 164.487 639.673 162.375C640.608 158.146 640.172 154.109 640.809 150.793C641.385 147.47 642.789 144.971 644.18 143.687C644.857 143.023 645.513 142.67 645.941 142.433C646.397 142.237 646.638 142.146 646.646 142.167C646.692 142.242 645.658 142.559 644.37 143.878C643.085 145.178 641.796 147.622 641.292 150.874C641.028 152.491 640.988 154.31 640.921 156.262C640.853 158.213 640.792 160.331 640.296 162.521C639.832 164.739 638.65 166.809 637.638 168.941C636.636 171.035 635.714 173.491 636.601 175.787C637.448 178.057 639.596 179.669 640.402 182.121C640.797 183.341 640.668 184.693 640.153 185.786C639.664 186.898 638.937 187.807 638.242 188.661C636.848 190.346 635.453 191.95 635.134 193.815C634.801 195.671 635.314 197.462 635.736 199.046C636.182 200.633 636.613 202.126 636.624 203.482C636.658 204.826 636.433 205.997 636.028 206.862C635.625 207.733 635.074 208.27 634.661 208.545C634.25 208.826 633.988 208.885 633.988 208.885Z" fill="#33535F"/>
<path d="M623.49 240.487L611.455 275.183L561.263 277.874L552.894 296.498L605.295 301.799C615.744 306.119 627.682 300.825 631.495 290.181L645.479 251.147L623.49 240.487Z" fill="#C0776A"/>
<path d="M727.308 567.597C727.308 567.597 690.525 450.771 689.745 446.979C689.039 443.551 703.093 359.482 704.864 337.723L655.164 339.576C655.164 339.576 655.163 339.708 655.16 339.938L634.035 341.11L652.956 580.035H675.827L673.559 500.767C687.661 538.628 707.871 577.212 707.871 577.212L727.308 567.597Z" fill="#C0776A"/>
<path d="M674.492 529.177C674.512 528.452 674.215 502.618 674.215 502.618C673.929 504.164 665.447 480.188 665.652 478.73C665.757 477.976 674.492 529.177 674.492 529.177Z" fill="#AC584F"/>
<path d="M664.685 467.377C664.632 467.377 664.583 467.892 664.537 468.825C664.488 469.76 664.477 471.115 664.568 472.787C664.6 473.625 664.688 474.539 664.796 475.519C664.921 476.496 665.055 477.544 665.281 478.631C665.696 480.812 666.336 483.171 667.151 485.592C668.811 490.424 670.644 494.652 671.945 497.719C672.561 499.118 673.091 500.321 673.536 501.331C673.927 502.177 674.167 502.637 674.215 502.618C674.264 502.599 674.117 502.101 673.811 501.22C673.505 500.339 673.037 499.073 672.443 497.518C671.268 494.399 669.516 490.139 667.871 485.349C667.064 482.951 666.413 480.633 665.968 478.492C665.725 477.427 665.571 476.397 665.421 475.436C665.287 474.473 665.169 473.575 665.104 472.748C664.947 471.099 664.875 469.755 664.833 468.824C664.788 467.895 664.737 467.378 664.685 467.377Z" fill="#AC584F"/>
<path d="M652.527 581.212L652.517 579.064L675.943 578.045L676.008 586.904L674.563 587C668.132 587.378 641.84 588.462 637.536 587.173C632.737 585.733 652.527 581.212 652.527 581.212Z" fill="#33535F"/>
<path d="M676.335 586.369C676.335 586.378 676.198 586.393 675.934 586.413C675.588 586.434 675.21 586.459 674.783 586.488C673.632 586.541 672.218 586.606 670.548 586.685C666.971 586.825 662.026 586.955 656.563 586.981C651.098 587.003 646.151 586.917 642.574 586.807C640.903 586.743 639.487 586.69 638.336 586.646C637.91 586.622 637.531 586.601 637.186 586.582C636.922 586.565 636.784 586.55 636.784 586.542C636.784 586.531 636.923 586.526 637.187 586.526C637.534 586.529 637.912 586.533 638.339 586.537C639.491 586.555 640.907 586.579 642.578 586.606C646.155 586.666 651.099 586.721 656.562 586.698C662.022 586.673 666.964 586.576 670.542 586.485C672.212 586.442 673.628 586.406 674.779 586.377C675.206 586.369 675.586 586.362 675.931 586.355C676.196 586.354 676.333 586.358 676.335 586.369Z" fill="#17282F"/>
<path d="M644.937 587.122C644.851 587.134 644.781 586.122 644.139 585.104C643.513 584.073 642.641 583.559 642.689 583.487C642.704 583.417 643.705 583.853 644.379 584.955C645.064 586.049 645.007 587.14 644.937 587.122Z" fill="#17282F"/>
<path d="M651.801 583.608C651.736 583.651 651.405 583.251 651.064 582.716C650.721 582.183 650.497 581.715 650.564 581.672C650.629 581.631 650.96 582.031 651.301 582.564C651.644 583.1 651.867 583.565 651.801 583.608Z" fill="#17282F"/>
<path d="M653.686 582.604C653.634 582.662 653.264 582.418 652.863 582.058C652.459 581.7 652.175 581.361 652.227 581.303C652.278 581.245 652.647 581.489 653.049 581.847C653.452 582.207 653.738 582.545 653.686 582.604Z" fill="#17282F"/>
<path d="M654.869 580.4C654.871 580.478 654.327 580.549 653.655 580.559C652.981 580.569 652.436 580.514 652.435 580.436C652.433 580.358 652.977 580.288 653.651 580.277C654.323 580.267 654.868 580.322 654.869 580.4Z" fill="#17282F"/>
<path d="M655.273 578.847C655.301 578.916 654.708 579.185 653.919 579.247C653.129 579.311 652.501 579.137 652.517 579.064C652.529 578.984 653.145 579.027 653.896 578.964C654.645 578.908 655.249 578.768 655.273 578.847Z" fill="#17282F"/>
<path d="M651.004 581.579C651.005 581.61 650.431 581.682 649.505 581.574C649.044 581.521 648.497 581.414 647.911 581.229C647.617 581.126 647.312 581.049 646.996 580.857C646.848 580.758 646.683 580.619 646.624 580.391C646.561 580.167 646.68 579.916 646.848 579.793C648.277 579.045 649.713 579.846 650.248 580.583C650.541 580.961 650.677 581.328 650.74 581.582C650.801 581.836 650.797 581.983 650.78 581.986C650.728 582.005 650.677 581.397 650.093 580.711C649.807 580.375 649.369 580.047 648.811 579.883C648.281 579.729 647.529 579.69 647.027 580.011C646.789 580.189 646.883 580.469 647.148 580.624C647.395 580.783 647.713 580.878 647.991 580.982C648.559 581.174 649.088 581.299 649.535 581.378C650.432 581.533 651.004 581.533 651.004 581.579Z" fill="#17282F"/>
<path d="M650.616 581.654C650.595 581.669 650.372 581.288 650.439 580.614C650.475 580.283 650.593 579.891 650.844 579.519C651.107 579.186 651.445 578.726 652.088 578.751C652.435 578.794 652.607 579.188 652.552 579.44C652.527 579.704 652.409 579.93 652.301 580.11C652.08 580.486 651.828 580.79 651.596 581.019C651.128 581.48 650.757 581.656 650.741 581.628C650.715 581.592 651.039 581.359 651.451 580.883C651.655 580.646 651.876 580.344 652.075 579.983C652.279 579.664 652.417 579.097 652.04 579.03C651.667 578.994 651.285 579.37 651.057 579.668C650.823 579.994 650.693 580.343 650.637 580.644C650.525 581.255 650.665 581.643 650.616 581.654Z" fill="#17282F"/>
<path d="M675.835 579.991C675.831 580.045 675.168 579.931 674.115 580.059C673.072 580.179 671.621 580.612 670.364 581.621C669.105 582.633 668.369 583.954 668.028 584.947C667.676 585.947 667.644 586.619 667.591 586.612C667.573 586.611 667.565 586.443 667.588 586.143C667.612 585.84 667.683 585.406 667.837 584.885C668.14 583.85 668.875 582.455 670.187 581.4C671.499 580.349 673.019 579.933 674.095 579.861C674.637 579.822 675.077 579.846 675.376 579.888C675.676 579.931 675.839 579.975 675.835 579.991Z" fill="#17282F"/>
<path d="M664.616 584.511C664.627 584.584 663.105 584.827 661.212 584.833C659.317 584.847 657.796 584.62 657.805 584.547C657.812 584.466 659.335 584.564 661.211 584.552C663.088 584.544 664.607 584.43 664.616 584.511Z" fill="#17282F"/>
<path d="M669.182 584.461C669.24 584.518 669.058 584.784 668.905 585.133C668.746 585.483 668.666 585.794 668.588 585.788C668.512 585.788 668.465 585.421 668.646 585.019C668.826 584.615 669.133 584.404 669.182 584.461Z" fill="#17282F"/>
<path d="M670.898 582.312C670.952 582.369 670.803 582.61 670.563 582.855C670.322 583.1 670.083 583.257 670.027 583.202C669.972 583.147 670.12 582.904 670.362 582.658C670.6 582.412 670.842 582.259 670.898 582.312Z" fill="#17282F"/>
<path d="M673.356 581.324C673.34 581.404 673.03 581.402 672.689 581.524C672.344 581.638 672.1 581.828 672.038 581.776C671.977 581.734 672.172 581.402 672.597 581.258C673.021 581.11 673.38 581.252 673.356 581.324Z" fill="#17282F"/>
<path d="M675.108 580.856C675.137 580.93 675.003 581.048 674.811 581.124C674.617 581.202 674.437 581.203 674.409 581.131C674.38 581.057 674.515 580.937 674.707 580.863C674.9 580.785 675.08 580.784 675.108 580.856Z" fill="#17282F"/>
<path d="M707.413 579.147L706.524 577.191L727.477 566.663L731.164 574.719L729.885 575.4C724.175 578.378 700.633 590.136 696.179 590.722C691.211 591.375 707.413 579.147 707.413 579.147Z" fill="#33535F"/>
<path d="M731.243 574.096C731.248 574.104 731.128 574.175 730.896 574.302C730.591 574.463 730.256 574.64 729.876 574.839C728.849 575.361 727.585 575.999 726.093 576.755C722.888 578.35 718.429 580.494 713.457 582.755C708.48 585.014 703.932 586.961 700.623 588.326C699.073 588.952 697.76 589.483 696.693 589.915C696.293 590.068 695.939 590.204 695.616 590.328C695.368 590.42 695.237 590.464 695.233 590.455C695.231 590.445 695.355 590.384 695.595 590.275C695.912 590.138 696.257 589.986 696.649 589.814C697.708 589.359 699.011 588.802 700.545 588.142C703.835 586.73 708.368 584.755 713.34 582.496C718.311 580.238 722.779 578.123 726.007 576.576C727.512 575.852 728.789 575.24 729.827 574.742C730.215 574.559 730.557 574.398 730.869 574.251C731.111 574.142 731.239 574.088 731.243 574.096Z" fill="#17282F"/>
<path d="M702.911 587.646C702.836 587.691 702.357 586.798 701.355 586.131C700.363 585.447 699.354 585.335 699.368 585.25C699.356 585.179 700.447 585.166 701.513 585.897C702.587 586.614 702.98 587.633 702.911 587.646Z" fill="#17282F"/>
<path d="M707.732 581.628C707.691 581.694 707.224 581.464 706.695 581.118C706.163 580.77 705.767 580.435 705.811 580.371C705.854 580.304 706.318 580.534 706.85 580.881C707.379 581.228 707.775 581.563 707.732 581.628Z" fill="#17282F"/>
<path d="M709.039 579.94C709.016 580.015 708.58 579.943 708.065 579.78C707.549 579.618 707.151 579.425 707.176 579.351C707.2 579.276 707.636 579.348 708.149 579.511C708.664 579.673 709.063 579.866 709.039 579.94Z" fill="#17282F"/>
<path d="M709.217 577.443C709.251 577.515 708.783 577.803 708.175 578.088C707.564 578.372 707.044 578.544 707.011 578.475C706.979 578.404 707.446 578.116 708.055 577.831C708.664 577.545 709.185 577.373 709.217 577.443Z" fill="#17282F"/>
<path d="M708.949 575.863C709.003 575.915 708.573 576.403 707.876 576.782C707.183 577.164 706.539 577.263 706.524 577.191C706.503 577.111 707.083 576.898 707.741 576.535C708.403 576.175 708.895 575.802 708.949 575.863Z" fill="#17282F"/>
<path d="M706.173 580.103C706.188 580.13 705.693 580.433 704.805 580.712C704.363 580.852 703.818 580.978 703.206 581.051C702.898 581.077 702.589 581.132 702.221 581.085C702.044 581.056 701.837 580.997 701.692 580.815C701.541 580.636 701.547 580.357 701.651 580.175C702.648 578.909 704.286 579.049 705.076 579.504C705.498 579.728 705.772 580.008 705.933 580.213C706.093 580.423 706.149 580.556 706.136 580.565C706.095 580.604 705.8 580.071 704.987 579.684C704.588 579.495 704.056 579.376 703.478 579.454C702.932 579.53 702.229 579.802 701.903 580.302C701.759 580.561 701.959 580.777 702.264 580.812C702.555 580.854 702.885 580.812 703.18 580.792C703.777 580.736 704.311 580.633 704.751 580.52C705.633 580.295 706.153 580.06 706.173 580.103Z" fill="#17282F"/>
<path d="M705.851 580.331C705.837 580.354 705.479 580.097 705.263 579.454C705.16 579.139 705.108 578.731 705.184 578.289C705.288 577.877 705.409 577.32 706.004 577.08C706.339 576.976 707.12 577.649 707.175 577.901C707.257 578.152 706.779 578.023 706.756 578.233C706.707 578.665 706.601 579.045 706.484 579.351C706.247 579.963 705.982 580.275 705.955 580.257C705.916 580.233 706.116 579.888 706.296 579.285C706.384 578.985 706.464 578.619 706.496 578.209C706.552 577.835 706.445 577.26 706.076 577.353C705.719 577.475 705.525 577.972 705.439 578.339C705.36 578.731 705.384 579.103 705.456 579.401C705.603 580.002 705.891 580.3 705.851 580.331Z" fill="#17282F"/>
<path d="M728.176 568.486C728.194 568.536 727.541 568.704 726.635 569.252C725.732 569.788 724.587 570.777 723.852 572.212C723.119 573.65 722.988 575.157 723.084 576.204C723.172 577.261 723.419 577.886 723.368 577.902C723.351 577.907 723.274 577.759 723.172 577.474C723.071 577.189 722.956 576.764 722.884 576.224C722.736 575.155 722.836 573.584 723.6 572.085C724.367 570.588 725.583 569.584 726.535 569.078C727.012 568.819 727.424 568.662 727.715 568.578C728.006 568.493 728.172 568.469 728.176 568.486Z" fill="#17282F"/>
<path d="M719.792 577.204C719.83 577.266 718.544 578.109 716.82 578.893C715.096 579.681 713.616 580.098 713.593 580.028C713.568 579.949 714.996 579.417 716.702 578.635C718.412 577.861 719.752 577.131 719.792 577.204Z" fill="#17282F"/>
<path d="M723.937 575.287C724.013 575.316 723.957 575.633 723.961 576.014C723.957 576.397 724.013 576.712 723.937 576.742C723.869 576.773 723.677 576.457 723.677 576.014C723.677 575.573 723.868 575.257 723.937 575.287Z" fill="#17282F"/>
<path d="M724.622 572.624C724.695 572.652 724.658 572.933 724.539 573.257C724.422 573.579 724.264 573.819 724.192 573.791C724.119 573.766 724.155 573.482 724.274 573.159C724.392 572.836 724.548 572.598 724.622 572.624Z" fill="#17282F"/>
<path d="M726.461 570.715C726.479 570.795 726.196 570.92 725.933 571.171C725.665 571.416 725.523 571.69 725.444 571.666C725.369 571.655 725.412 571.27 725.74 570.966C726.067 570.656 726.452 570.64 726.461 570.715Z" fill="#17282F"/>
<path d="M727.868 569.571C727.924 569.626 727.85 569.79 727.704 569.938C727.56 570.087 727.397 570.162 727.341 570.107C727.285 570.052 727.358 569.888 727.502 569.74C727.648 569.593 727.812 569.517 727.868 569.571Z" fill="#17282F"/>
<path d="M701.641 298.181L697.74 250.583L717.777 250.941C717.777 250.941 718.705 243.923 715.753 228.529C713.943 219.09 707.656 213.299 700.605 209.859L700.607 209.734L699.996 209.574C691.029 205.377 681.643 204.785 681.643 204.785L657.047 205.069C657.047 205.069 638.257 202.725 627.857 216.119C623.851 221.278 611.455 256.593 611.455 256.593L640.976 270.811L638.167 251.229C638.167 251.229 638.725 265.426 640.537 269.925C641.547 272.431 644.471 280.213 644.471 280.213L644.088 303.699L701.641 298.181Z" fill="#F03D5F"/>
<path d="M688.071 243.674L684.421 259.229H718.863L716.596 233.151L688.071 243.674Z" fill="#F03D5F"/>
<path d="M718.863 259.228C718.865 259.125 717.125 258.943 714.304 258.776C711.48 258.611 707.575 258.471 703.257 258.491C698.94 258.512 695.035 258.699 692.213 258.923C689.393 259.145 687.659 259.384 687.667 259.484C687.675 259.593 689.421 259.544 692.243 259.459C695.064 259.373 698.957 259.271 703.261 259.249C707.565 259.231 711.461 259.285 714.284 259.313C717.107 259.343 718.857 259.335 718.863 259.228Z" fill="#17282F"/>
<path d="M686.586 233.023C686.481 233.027 686.445 234.539 686.472 236.98C686.497 239.42 686.586 242.789 686.73 246.509C686.874 250.229 687.048 253.596 687.211 256.032C687.373 258.467 687.528 259.971 687.633 259.967C687.737 259.963 687.773 258.451 687.748 256.011C687.721 253.571 687.634 250.2 687.489 246.48C687.345 242.76 687.172 239.393 687.008 236.959C686.845 234.524 686.692 233.02 686.586 233.023Z" fill="#17282F"/>
<path d="M683.585 301.779C681.645 301.779 679.82 301.302 678.108 300.437L693.935 298.919C689.893 301.685 684.421 301.75 684.421 301.75C684.14 301.77 683.861 301.779 683.585 301.779Z" fill="#A7A9A8"/>
<path d="M678.108 300.437C661.381 291.986 655.247 246.495 655.247 246.495L697.224 292.661V295.195C696.451 296.795 695.271 298.005 693.935 298.919L678.108 300.437Z" fill="#BA2C42"/>
<path d="M685.135 269.075L682.467 264.193L686.473 237.131C686.501 239.558 686.589 242.866 686.731 246.51C686.763 247.345 686.797 248.161 686.832 248.953L684.421 259.229H687.479C687.536 259.707 687.589 259.967 687.632 259.967H687.633C687.667 259.966 687.693 259.807 687.713 259.51C687.816 259.537 688.089 259.547 688.511 259.547C688.785 259.547 689.124 259.542 689.521 259.534L685.135 269.075Z" fill="#BA2C42"/>
<path d="M687.479 259.229H684.421L686.832 248.953C686.952 251.694 687.085 254.143 687.211 256.032C687.307 257.452 687.397 258.557 687.479 259.229Z" fill="#BA2C42"/>
<path d="M688.511 259.547C688.089 259.547 687.816 259.536 687.713 259.51C687.713 259.502 687.713 259.494 687.715 259.484L689.524 259.528L689.521 259.534C689.124 259.542 688.785 259.547 688.511 259.547Z" fill="#0F191D"/>
<path d="M687.632 259.967C687.589 259.967 687.536 259.707 687.478 259.228C687.397 258.556 687.307 257.452 687.211 256.032C687.085 254.143 686.952 251.693 686.832 248.952C686.797 248.16 686.763 247.344 686.731 246.509C686.589 242.865 686.501 239.557 686.473 237.131L686.586 236.368L687.667 259.484H687.714C687.713 259.493 687.713 259.501 687.713 259.509C687.693 259.807 687.667 259.965 687.633 259.967H687.632Z" fill="#0F191D"/>
<path d="M644.471 280.212C644.424 280.228 644.22 279.755 643.888 278.885C643.555 278.015 643.109 276.742 642.595 275.158C641.567 271.991 640.296 267.558 639.301 262.564C638.311 257.568 637.827 252.974 637.669 249.643C637.588 247.978 637.564 246.63 637.588 245.698C637.607 244.766 637.641 244.251 637.689 244.25C637.799 244.248 637.873 246.304 638.159 249.61C638.441 252.915 638.999 257.465 639.981 262.43C640.972 267.391 642.159 271.822 643.065 275.017C643.488 276.498 643.848 277.76 644.144 278.799C644.397 279.695 644.516 280.198 644.471 280.212Z" fill="#17282F"/>
<path d="M653.171 296.523C652.987 296.577 652.455 295.353 651.981 293.788C651.508 292.221 651.272 290.907 651.456 290.851C651.64 290.796 652.172 292.02 652.645 293.587C653.12 295.152 653.355 296.467 653.171 296.523Z" fill="#17282F"/>
<path d="M656.145 296.306C655.969 296.351 655.388 294.514 655.36 292.157C655.319 289.801 655.846 287.946 656.024 287.987C656.222 288.023 656.014 289.872 656.054 292.147C656.08 294.42 656.343 296.264 656.145 296.306Z" fill="#17282F"/>
<path d="M641.576 271.46C641.49 271.632 634.62 268.372 626.232 264.182C617.841 259.988 611.11 256.451 611.197 256.28C611.282 256.108 618.152 259.367 626.542 263.56C634.929 267.751 641.661 271.29 641.576 271.46Z" fill="#17282F"/>
<path d="M653.683 209.67C653.836 202.925 653.873 195.822 653.873 195.822C653.873 195.822 645.223 194.154 643.715 182.77C642.277 171.914 646.299 146.441 646.299 146.441C658.936 141.663 672.069 145.994 680.728 156.234L678.579 210.999C678.329 217.357 672.664 222.206 665.859 221.887C658.984 221.565 653.536 216.098 653.683 209.67Z" fill="#C0776A"/>
<path d="M645.643 166.799C645.595 167.566 646.205 168.239 647.005 168.302C647.805 168.366 648.491 167.796 648.537 167.03C648.585 166.263 647.975 165.59 647.176 165.526C646.375 165.462 645.689 166.032 645.643 166.799Z" fill="#17282F"/>
<path d="M645.1 164.888C645.276 165.083 646.399 164.295 647.963 164.34C649.527 164.363 650.653 165.198 650.828 165.01C650.915 164.927 650.74 164.58 650.249 164.203C649.765 163.828 648.935 163.454 647.961 163.434C646.985 163.412 646.157 163.751 645.676 164.106C645.187 164.462 645.015 164.8 645.1 164.888Z" fill="#17282F"/>
<path d="M661.516 167.787C661.47 168.554 662.08 169.226 662.88 169.291C663.679 169.354 664.367 168.786 664.414 168.018C664.46 167.251 663.85 166.578 663.05 166.514C662.251 166.45 661.563 167.021 661.516 167.787Z" fill="#17282F"/>
<path d="M661.411 165.877C661.587 166.072 662.709 165.286 664.273 165.33C665.836 165.352 666.964 166.187 667.14 166C667.224 165.916 667.051 165.571 666.559 165.194C666.076 164.818 665.247 164.444 664.271 164.423C663.297 164.403 662.468 164.74 661.987 165.096C661.497 165.452 661.324 165.791 661.411 165.877Z" fill="#17282F"/>
<path d="M655.433 177.334C655.443 177.246 654.475 177.053 652.904 176.811C652.505 176.759 652.129 176.67 652.069 176.395C651.981 176.105 652.16 175.678 652.367 175.218C652.767 174.262 653.187 173.258 653.627 172.207C655.379 167.918 656.659 164.387 656.484 164.318C656.311 164.249 654.751 167.669 652.997 171.958C652.576 173.017 652.172 174.025 651.788 174.989C651.624 175.439 651.351 175.947 651.539 176.551C651.64 176.853 651.927 177.077 652.181 177.153C652.435 177.238 652.66 177.247 652.857 177.265C654.441 177.391 655.424 177.423 655.433 177.334Z" fill="#17282F"/>
<path d="M653.873 195.821C653.873 195.821 661.488 196.509 669.161 192.161C669.161 192.161 665.277 199.855 653.958 198.501L653.873 195.821Z" fill="#AC584F"/>
<path d="M666.419 161.364C666.097 161.854 664.908 161.636 663.575 161.396C662.247 161.128 661.06 160.892 660.941 160.319C660.809 159.77 662.187 159.01 663.965 159.35C665.744 159.687 666.744 160.902 666.419 161.364Z" fill="#17282F"/>
<path d="M650.862 159.068C650.741 159.637 649.466 159.846 647.997 159.922C646.526 159.982 645.24 159.891 645.066 159.333C644.89 158.795 646.133 157.919 647.901 157.84C649.669 157.756 650.986 158.515 650.862 159.068Z" fill="#17282F"/>
<path d="M655.459 181.079C655.128 180.989 654.757 181.175 654.592 181.475C654.395 181.831 654.485 182.322 654.797 182.585C655.108 182.847 655.607 182.854 655.924 182.601C656.244 182.346 656.347 181.859 656.16 181.497C655.973 181.135 655.516 180.938 655.124 181.051" fill="#AC584F"/>
<path d="M655.824 181.234C655.895 181.171 655.575 180.787 654.891 180.935C654.576 181.006 654.161 181.29 654.035 181.774C653.911 182.23 654.024 182.822 654.507 183.191C655.007 183.545 655.609 183.471 656.007 183.201C656.432 182.921 656.553 182.409 656.487 182.089C656.349 181.386 655.829 181.274 655.815 181.373C655.756 181.461 655.996 181.703 655.951 182.119C655.927 182.323 655.831 182.513 655.633 182.609C655.44 182.715 655.133 182.714 654.957 182.579C654.773 182.45 654.679 182.158 654.717 181.934C654.745 181.711 654.895 181.543 655.076 181.441C655.447 181.231 655.776 181.33 655.824 181.234Z" fill="#17282F"/>
<path d="M675.488 169.61C674.14 172.736 670.848 175.144 671.305 178.517C671.599 180.696 672.996 182.726 672.724 184.906C672.383 187.646 669.537 189.545 669.136 192.274C668.641 195.624 671.899 198.226 673.2 201.352C675.095 205.904 672.671 211.021 672.613 215.95C672.527 223.501 678.948 230.554 686.473 231.174C689.517 231.425 692.945 230.506 694.524 227.892C695.825 225.733 695.565 222.993 696.347 220.597C697.509 217.028 700.911 214.417 701.628 210.733C702.935 204.017 694.817 198.46 695.352 191.638C695.58 188.725 697.379 186.182 698.145 183.361C699.145 179.665 698.228 175.502 695.763 172.572C693.76 170.189 690.855 168.622 689.148 166.02C687.213 163.068 687.147 159.325 686.417 155.872C684.64 147.458 678.32 140.148 670.252 137.172C662.183 134.196 652.631 135.652 645.813 140.897C645.813 140.897 643.875 149.685 652.896 151.154C661.916 152.624 666.096 150.928 667.113 154.544C667.113 154.544 666.087 158.768 669.815 162.801C673.545 166.836 677.049 165.992 675.488 169.61Z" fill="#17282F"/>
<path d="M689.883 230.559C689.879 230.583 689.598 230.553 689.06 230.473C688.524 230.39 687.738 230.211 686.766 229.854C684.839 229.15 682.111 227.617 679.786 224.687C678.631 223.237 677.548 221.475 676.819 219.406C676.072 217.349 675.646 215.017 675.606 212.561C675.548 210.102 675.897 207.526 676.568 204.947C676.903 203.655 677.338 202.369 677.844 201.09C678.343 199.806 678.956 198.569 679.308 197.259C679.687 195.954 679.636 194.621 679.295 193.349C678.947 192.075 678.355 190.881 677.778 189.698C677.198 188.517 676.606 187.338 676.224 186.085C675.836 184.842 675.692 183.502 675.944 182.253C676.476 179.741 678.001 177.882 678.901 175.975C679.855 174.085 680.152 172.089 680.108 170.295C679.947 166.663 678.399 163.978 677.136 162.43C675.818 160.879 674.819 160.29 674.87 160.225C674.87 160.225 675.927 160.723 677.34 162.254C678.695 163.782 680.367 166.505 680.599 170.274C680.679 172.131 680.395 174.235 679.42 176.226C678.5 178.203 677.028 180.075 676.573 182.374C676.104 184.69 677.2 187.075 678.388 189.397C678.97 190.581 679.586 191.806 679.962 193.167C680.335 194.519 680.39 196.046 679.978 197.439C679.599 198.838 678.974 200.091 678.486 201.346C677.987 202.599 677.558 203.859 677.226 205.122C676.56 207.643 676.207 210.158 676.247 212.551C676.262 217.357 677.912 221.559 680.171 224.383C682.385 227.274 685.003 228.834 686.866 229.602C688.752 230.366 689.9 230.481 689.883 230.559Z" fill="#33535F"/>
<path d="M688.555 163.278C688.559 163.322 687.856 163.449 686.568 163.574C685.285 163.681 683.391 163.829 681.077 163.43C678.817 163.017 675.957 161.906 674.147 159.225C673.259 157.879 672.907 156.251 672.328 154.749C671.784 153.229 670.732 151.913 669.291 151.001C666.373 149.153 662.941 148.925 659.939 148.559C656.921 148.219 654.088 147.579 652.168 146.138C650.233 144.762 649.241 142.974 648.985 141.686C648.841 141.042 648.853 140.523 648.883 140.183C648.931 139.841 648.968 139.666 648.992 139.669C649.077 139.67 648.9 140.402 649.249 141.621C649.571 142.826 650.573 144.474 652.449 145.737C654.299 147.046 657.009 147.619 660.015 147.923C662.989 148.259 666.543 148.445 669.668 150.418C671.209 151.379 672.404 152.89 672.963 154.503C673.556 156.09 673.888 157.653 674.685 158.878C676.311 161.359 679 162.494 681.171 162.947C683.397 163.397 685.273 163.327 686.552 163.305C687.836 163.263 688.549 163.227 688.555 163.278Z" fill="#33535F"/>
<path d="M685.247 152.419C685.255 152.454 684.708 152.623 683.684 152.65C682.668 152.678 681.147 152.498 679.475 151.702C678.64 151.306 677.784 150.738 676.997 149.979C676.197 149.224 675.541 148.248 674.928 147.219C673.725 145.191 672.569 142.69 670.076 141.655C667.633 140.608 664.943 140.842 662.605 140.999C660.245 141.232 658.033 141.3 656.229 140.946C654.413 140.63 653.051 139.878 652.296 139.182C651.913 138.836 651.653 138.53 651.511 138.302C651.361 138.076 651.293 137.955 651.312 137.94C651.368 137.898 651.687 138.37 652.468 138.972C653.244 139.574 654.555 140.218 656.311 140.462C658.067 140.742 660.18 140.63 662.551 140.362C664.9 140.176 667.671 139.882 670.357 141.02C671.685 141.586 672.769 142.583 673.54 143.664C674.325 144.746 674.888 145.876 675.48 146.896C676.069 147.916 676.673 148.85 677.403 149.57C678.124 150.298 678.916 150.859 679.695 151.263C681.257 152.074 682.704 152.326 683.691 152.379C684.683 152.436 685.239 152.359 685.247 152.419Z" fill="#33535F"/>
<path d="M693.863 227.682C693.795 227.652 694.219 226.794 694.711 225.153C695.2 223.517 695.685 221.057 695.599 218.006C695.495 214.974 694.765 211.308 692.757 207.825C691.781 206.078 690.3 204.522 689.092 202.605C688.492 201.648 687.976 200.574 687.749 199.386C687.527 198.197 687.661 196.934 688.044 195.788C688.792 193.486 690.132 191.546 690.42 189.43C690.776 187.308 689.704 185.372 688.689 183.65C688.176 182.773 687.661 181.906 687.261 181C686.863 180.093 686.608 179.138 686.508 178.216C686.305 176.362 686.521 174.66 686.659 173.132C687.043 170.086 686.76 167.584 686.027 166.046C685.315 164.489 684.384 164.022 684.453 163.96L684.615 164.036C684.712 164.1 684.868 164.184 685.039 164.34C685.395 164.629 685.869 165.142 686.269 165.928C687.113 167.485 687.476 170.101 687.147 173.173C687.039 174.708 686.861 176.39 687.079 178.145C687.256 179.917 688.169 181.59 689.24 183.324C689.759 184.202 690.307 185.118 690.692 186.157C691.087 187.189 691.265 188.368 691.092 189.524C690.768 191.856 689.395 193.829 688.705 195.997C688.348 197.078 688.233 198.19 688.428 199.261C688.631 200.329 689.099 201.326 689.671 202.246C690.813 204.089 692.304 205.676 693.311 207.505C695.357 211.125 696.047 214.897 696.091 217.994C696.113 221.113 695.543 223.602 694.969 225.234C694.669 226.049 694.419 226.673 694.201 227.076C694 227.485 693.884 227.693 693.863 227.682Z" fill="#33535F"/>
<path d="M639.549 476.116C639.549 476.116 630.571 390.992 630.055 359.54C629.539 328.086 644.197 297.051 644.197 297.051L701.641 294.622C701.641 294.622 712.995 326.536 713.199 339.94C713.593 365.992 706.276 391.719 707.12 412.384L709.04 476.116" fill="#17282F"/>
<path d="M710.963 371.47C710.975 371.49 710.648 371.735 710.025 372.179C709.865 372.292 709.691 372.416 709.501 372.548C709.321 372.702 709.147 372.892 708.945 373.086C708.541 373.474 708.072 373.912 707.666 374.519C705.811 376.791 704.458 380.848 703.172 385.912C702.463 388.427 701.746 391.248 700.263 394.01C699.867 394.684 699.511 395.399 698.988 396.027C698.739 396.346 698.512 396.69 698.239 396.996L697.353 397.88C696.153 399.06 694.635 399.95 693.034 400.652C689.818 402.062 686.188 402.73 682.871 404.394C679.533 406.019 677.032 409.17 675.499 412.798C673.882 416.411 672.9 420.204 671.551 423.746C670.225 427.259 668.422 430.679 665.555 432.839C662.711 435.078 659.197 435.59 656.153 435.786C653.061 435.966 650.197 435.878 647.628 436.266C645.069 436.62 642.802 437.432 641.199 438.692C639.59 439.956 638.651 441.542 638.209 442.899C637.755 444.272 637.836 445.431 637.987 446.168C638.136 446.918 638.347 447.275 638.3 447.295C638.3 447.295 638.048 446.958 637.852 446.202C637.651 445.455 637.52 444.256 637.952 442.82C638.37 441.399 639.304 439.738 640.956 438.388C642.613 437.039 644.946 436.175 647.555 435.78C650.171 435.354 653.067 435.415 656.115 435.211C659.129 434.992 662.492 434.464 665.166 432.33C667.874 430.271 669.614 426.982 670.916 423.503C672.242 420.003 673.216 416.204 674.867 412.512C676.415 408.822 679.068 405.47 682.564 403.787C686.012 402.075 689.644 401.428 692.779 400.064C694.34 399.388 695.791 398.548 696.937 397.434L697.787 396.599C698.051 396.307 698.269 395.978 698.512 395.672C699.017 395.076 699.368 394.384 699.758 393.736C701.218 391.071 701.963 388.28 702.699 385.78C704.042 380.744 705.489 376.62 707.453 374.351C707.884 373.747 708.38 373.312 708.807 372.934C709.019 372.746 709.204 372.558 709.394 372.412C709.592 372.287 709.776 372.171 709.944 372.064C710.603 371.652 710.951 371.448 710.963 371.47Z" fill="#FAFAF9"/>
<path d="M711.316 332.078C711.34 332.077 711.367 332.468 711.391 333.218C711.403 333.968 711.312 335.08 710.992 336.476C710.325 339.25 708.299 343.061 704.503 346.509C702.628 348.241 700.364 349.916 697.776 351.424C695.201 352.95 692.363 354.404 689.453 356.048C686.555 357.697 683.565 359.56 680.939 362.036C678.277 364.481 676.284 367.694 674.489 371.098C672.676 374.496 671.071 377.956 668.897 380.95C667.819 382.446 666.6 383.813 665.252 384.982C663.895 386.144 662.417 387.088 660.916 387.87C657.903 389.434 654.833 390.401 651.989 391.292C649.14 392.173 646.48 392.953 644.156 393.928C641.828 394.888 639.811 395.974 638.181 397.128C636.551 398.281 635.311 399.492 634.431 400.586C632.655 402.785 632.281 404.378 632.181 404.325C632.159 404.318 632.285 403.948 632.551 403.245C632.86 402.564 633.336 401.549 634.219 400.42C635.081 399.28 636.317 398.017 637.955 396.813C639.591 395.609 641.623 394.477 643.967 393.476C646.311 392.46 648.981 391.646 651.816 390.742C654.647 389.83 657.68 388.849 660.619 387.304C662.083 386.53 663.513 385.605 664.819 384.48C666.119 383.344 667.295 382.018 668.345 380.553C670.463 377.624 672.053 374.192 673.876 370.772C675.677 367.353 677.729 364.046 680.472 361.541C683.172 359.01 686.215 357.134 689.14 355.49C692.075 353.853 694.919 352.421 697.484 350.926C700.06 349.454 702.303 347.83 704.172 346.148C707.951 342.796 709.995 339.109 710.732 336.406C711.448 333.677 711.209 332.072 711.316 332.078Z" fill="#FAFAF9"/>
<path d="M630.345 364.047C630.333 364.051 630.295 363.965 630.228 363.789C630.171 363.611 630.048 363.355 629.971 362.995C629.808 362.283 629.705 361.157 630.104 359.799C630.845 357.084 633.795 353.707 638.547 352.013C640.912 351.201 643.595 350.711 646.389 349.98C649.152 349.235 652.163 348.192 654.412 345.881C655.528 344.741 656.472 343.384 657.256 341.892C658.023 340.387 658.653 338.771 659.249 337.103C660.444 333.777 661.447 330.163 663.476 326.879C665.491 323.568 668.775 321.268 672.173 320.116C675.564 318.871 678.981 318.319 682.153 317.587C685.335 316.895 688.308 315.999 690.832 314.632C693.319 313.219 695.301 311.337 696.704 309.343C699.581 305.343 700.333 301.247 700.436 298.541C700.499 295.791 700.061 294.293 700.152 294.28C700.152 294.28 700.685 295.752 700.705 298.547C700.685 301.293 700 305.489 697.104 309.627C695.691 311.689 693.675 313.651 691.112 315.135C688.525 316.567 685.489 317.497 682.296 318.211C679.108 318.963 675.709 319.529 672.411 320.753C669.091 321.896 666.007 324.073 664.064 327.247C662.105 330.411 661.099 333.984 659.889 337.331C659.285 339.011 658.639 340.655 657.845 342.199C657.032 343.733 656.04 345.147 654.863 346.336C652.475 348.759 649.329 349.808 646.535 350.536C643.7 351.252 641.033 351.711 638.701 352.48C634.079 354.057 631.144 357.295 630.363 359.879C629.94 361.175 629.992 362.263 630.107 362.968C630.256 363.669 630.376 364.037 630.345 364.047Z" fill="#FAFAF9"/>
<path d="M706.376 436.025C706.4 436.022 706.431 436.309 706.469 436.861C706.5 437.411 706.457 438.237 706.223 439.267C705.753 441.322 704.167 444.133 701.184 446.471C699.715 447.655 697.937 448.742 695.896 449.61C693.861 450.483 691.609 451.174 689.257 451.906C686.909 452.639 684.444 453.407 682.047 454.539C679.633 455.645 677.404 457.263 675.484 459.326C673.539 461.364 671.861 463.59 669.999 465.554C668.144 467.531 666.037 469.159 663.855 470.364C659.467 472.786 654.917 473.618 651.173 473.659C647.403 473.702 644.409 472.909 642.447 472.21C641.456 471.865 640.72 471.519 640.232 471.261C639.74 471.014 639.487 470.877 639.497 470.854C639.508 470.833 639.781 470.93 640.291 471.134C640.793 471.35 641.54 471.653 642.533 471.954C644.501 472.567 647.464 473.271 651.165 473.169C654.839 473.065 659.281 472.198 663.541 469.805C665.667 468.611 667.693 467.03 669.504 465.088C671.327 463.153 672.999 460.928 674.981 458.846C676.935 456.742 679.284 455.042 681.755 453.925C684.217 452.773 686.715 452.013 689.071 451.295C691.427 450.579 693.668 449.913 695.673 449.081C697.675 448.255 699.427 447.217 700.879 446.086C703.829 443.849 705.423 441.175 705.963 439.199C706.488 437.203 706.28 436.022 706.376 436.025Z" fill="#FAFAF9"/>
<path d="M699.828 259.285L688.721 259.547C687.992 263.289 686.209 265.849 686.209 265.849C676.921 249.726 669.72 228.126 667.932 219.445C668.193 218.577 668.501 217.618 668.887 216.545C669.331 215.307 668.949 212.965 668.74 211.663C668.428 209.731 667.888 207.13 667.725 205.926C667.231 202.258 666.64 201.682 665.36 202.097C663.62 202.661 666.073 212.399 664.647 212.61C663.88 212.723 662.943 209.387 662.672 206.65C662.4 203.913 661.161 195.493 660.256 194.931C658.931 194.109 657.775 195.41 658.109 198.135C658.448 200.895 658.876 209.122 657.429 209.234C656.004 209.343 654.808 195.383 654.808 195.383C654.808 195.383 655.033 192.346 653.359 192.418C650.337 192.55 652.699 207.267 652.956 208.661C653.137 209.631 651.568 209.809 651.429 208.757C651.288 207.673 650.559 194.795 647.483 194.899C645.121 194.979 649.311 207.027 647.985 209.821C646.66 212.613 645.74 200.335 643.485 200.505C642.647 200.567 642.027 200.731 643.568 207.679C644.397 211.414 646.831 218.281 648.959 223.965C652.531 243.233 668.207 304.867 692.785 293.585C706.537 287.271 712.119 259.291 712.119 259.291L699.828 259.285Z" fill="#C0776A"/>
<path d="M652.431 209.604C652.431 209.604 652.543 209.625 652.752 209.56C652.939 209.503 653.311 209.268 653.253 208.791C653.221 207.963 653.091 206.757 652.9 205.199C652.757 203.629 652.288 201.747 652.287 199.517C652.268 198.401 652.297 197.201 652.361 195.929C652.403 195.293 652.415 194.633 652.555 194.009C652.66 193.405 653.064 192.715 653.531 192.797L653.583 192.807L653.604 192.805C654.079 192.784 654.449 193.153 654.601 193.717C654.768 194.259 654.811 194.896 654.776 195.503L654.775 195.528L654.777 195.545C655.088 198.957 655.424 202.691 656.201 206.679C656.311 207.176 656.421 207.677 656.576 208.183C656.652 208.436 656.743 208.691 656.853 208.947C656.924 209.079 656.971 209.204 657.08 209.343C657.175 209.459 657.295 209.661 657.637 209.692C658.191 209.651 658.351 209.232 658.476 208.992C658.595 208.715 658.669 208.443 658.725 208.172C658.84 207.629 658.897 207.089 658.939 206.544C659.087 204.371 659.011 202.151 658.851 199.876C658.799 198.725 658.516 197.577 658.711 196.536C658.804 196.023 659.017 195.505 659.367 195.292C659.537 195.188 659.731 195.165 659.941 195.219L660.257 195.356C660.345 195.441 660.325 195.403 660.405 195.553C660.851 196.507 661.08 197.751 661.33 198.905C661.567 200.084 661.771 201.287 661.96 202.503C662.147 203.719 662.319 204.949 662.464 206.189C662.584 207.428 662.763 208.729 663.079 209.981C663.239 210.612 663.416 211.241 663.68 211.865C663.815 212.179 663.956 212.489 664.23 212.808C664.328 212.944 664.64 213.199 665.028 213.099C665.404 212.973 665.511 212.675 665.572 212.5C665.788 211.733 665.724 211.096 665.713 210.425C665.685 209.764 665.631 209.109 665.575 208.456C665.479 207.333 665.372 206.223 665.333 205.127C665.316 204.581 665.315 204.037 665.373 203.523C665.407 203.272 665.449 203.015 665.535 202.828L665.664 202.629L665.716 202.596L665.888 202.547C666.773 202.181 667.067 203.412 667.303 204.404C667.507 205.437 667.637 206.507 667.845 207.559C668.197 209.659 668.644 211.745 668.879 213.751C668.976 214.745 669.047 215.779 668.761 216.621C668.447 217.585 668.135 218.539 667.825 219.481L667.799 219.567L667.817 219.656C669.443 226.825 671.695 233.24 673.784 238.935C675.895 244.624 678.005 249.541 679.868 253.563C681.725 257.587 683.392 260.688 684.543 262.803C685.127 263.805 685.588 264.599 685.93 265.187C686.252 265.724 686.427 265.999 686.445 265.988C686.464 265.977 686.323 265.684 686.035 265.127C685.717 264.525 685.291 263.716 684.751 262.692C683.667 260.544 682.065 257.42 680.269 253.379C678.468 249.343 676.413 244.416 674.352 238.727C672.312 233.037 670.099 226.605 668.519 219.512L668.511 219.687C668.817 218.757 669.131 217.816 669.444 216.865C669.804 215.777 669.697 214.715 669.608 213.675C669.369 211.589 668.933 209.564 668.587 207.453C668.38 206.411 668.255 205.34 668.039 204.247C667.913 203.703 667.795 203.152 667.495 202.596C667.351 202.327 667.128 202.02 666.759 201.855C666.387 201.693 666.007 201.739 665.707 201.812L665.483 201.876L665.18 202.047C665.011 202.196 664.913 202.364 664.843 202.521C664.703 202.841 664.663 203.137 664.621 203.432C664.555 204.017 664.559 204.587 664.576 205.152C664.615 206.283 664.723 207.401 664.817 208.52C664.872 209.172 664.927 209.82 664.955 210.459C664.977 211.081 664.999 211.768 664.856 212.251C664.823 212.391 664.756 212.364 664.833 212.432L664.836 212.437L664.844 212.488L664.841 212.473L664.845 212.428L664.866 212.365L664.784 212.292C664.639 212.123 664.491 211.845 664.377 211.569C664.14 211.011 663.965 210.404 663.811 209.799C663.505 208.576 663.333 207.363 663.209 206.103C663.061 204.849 662.885 203.612 662.695 202.388C662.501 201.164 662.293 199.955 662.051 198.759C661.776 197.556 661.599 196.4 661.036 195.197C661.003 195.076 660.764 194.808 660.619 194.729C660.469 194.64 660.303 194.571 660.123 194.52C659.763 194.421 659.324 194.467 658.995 194.677C658.333 195.115 658.129 195.809 658.009 196.412C657.903 197.033 657.919 197.647 657.987 198.239C658.053 198.808 658.109 199.367 658.153 199.929C658.321 202.175 658.407 204.384 658.273 206.496C658.237 207.021 658.183 207.544 658.081 208.036C658.033 208.284 657.965 208.521 657.879 208.727L657.733 208.976C657.684 209.088 657.643 208.951 657.645 209.131C657.713 208.993 657.648 209.071 657.596 208.956L657.437 208.679C657.343 208.461 657.26 208.232 657.187 207.995C657.037 207.521 656.924 207.032 656.816 206.547C656.025 202.631 655.653 198.887 655.311 195.5V195.543C655.339 194.857 655.295 194.204 655.092 193.56C654.991 193.244 654.841 192.923 654.572 192.672C654.307 192.416 653.924 192.3 653.584 192.312L653.656 192.32C653.121 192.224 652.729 192.549 652.507 192.871C652.279 193.201 652.176 193.56 652.097 193.905C651.951 194.605 651.953 195.272 651.92 195.909C651.871 197.192 651.862 198.399 651.899 199.527C651.942 201.801 652.453 203.685 652.635 205.235C652.867 206.784 653.039 207.987 653.115 208.797C653.199 209.183 652.888 209.431 652.725 209.495C652.539 209.576 652.428 209.588 652.431 209.604Z" fill="#AC584F"/>
<path d="M565.597 277.642C565.597 277.642 561.908 277.466 557.873 278.527C550.988 280.339 539.101 287.543 538.609 296.442H547.243C547.243 296.442 542.408 306.734 543.828 305.78C547.515 303.307 554.853 295.851 554.853 295.851L565.597 277.642Z" fill="#C0776A"/>
<path d="M683.367 122.725C683.175 122.741 682.391 115.602 681.616 106.782C680.84 97.9592 680.367 90.7952 680.557 90.7779C680.749 90.7619 681.532 97.8979 682.308 106.722C683.084 115.542 683.557 122.707 683.367 122.725Z" fill="#17282F"/>
<path d="M721.243 91.2141C721.399 91.3261 715.565 99.7915 708.215 110.121C700.864 120.454 694.777 128.738 694.621 128.629C694.465 128.517 700.297 120.053 707.649 109.719C715 99.3888 721.087 91.1021 721.243 91.2141Z" fill="#17282F"/>
<path d="M736.978 129.584C737.018 129.772 730.21 131.33 721.777 133.064C713.34 134.797 706.472 136.05 706.432 135.862C706.394 135.674 713.201 134.117 721.637 132.384C730.072 130.65 736.941 129.397 736.978 129.584Z" fill="#17282F"/>
<path d="M283.5 312.724L236.352 555.123L230.18 586.854L544.931 585.302C559.056 585.232 571.575 572.69 576.119 554.056L631.931 325.207C635.381 311.061 627.811 296.348 617.089 296.359L298.524 296.693C291.491 296.701 285.34 303.264 283.5 312.724Z" fill="#F03D5F"/>
<path d="M548.953 584.943C551.218 584.398 553.146 583.793 554.789 583.162C552.904 583.993 550.952 584.593 548.953 584.943Z" fill="#7E1C2C"/>
<path d="M552.173 577.803C518.033 577.803 514.741 538.728 514.738 538.7L484.681 296.498L617.089 296.359C617.093 296.359 617.096 296.359 617.101 296.359C626.037 296.359 632.781 306.59 632.774 318.187C632.772 320.496 632.504 322.859 631.93 325.207L607.904 423.724L598.333 462.97L576.118 554.056C573.776 563.664 569.313 571.652 563.602 577.147C563.89 576.691 563.978 576.42 563.978 576.42C559.684 577.371 555.756 577.803 552.173 577.803Z" fill="#7E1C2C"/>
<path d="M514.739 538.7L481.413 270.157C480.048 259.154 471.283 250.946 460.933 250.979L387.859 251.218C382.449 251.237 377.264 253.535 373.423 257.619L338.724 294.505L135.488 295.566C123.069 295.63 113.527 307.382 115.173 320.586L146.115 568.788C147.484 579.776 156.233 587.974 166.568 587.954L520.763 587.254C560.212 588.071 563.979 576.421 563.979 576.421C518.768 586.439 514.743 538.731 514.739 538.7Z" fill="#F03D5F"/>
<path d="M350.065 497.784L310.665 462.34L322.611 449.509L362.012 484.955L350.065 497.784ZM297.462 450.463L258.062 415.019L270.008 402.188L309.408 437.632L297.462 450.463Z" fill="#F68AA6"/>
<path d="M275.015 500.63L261.813 488.752L297.463 450.463L309.408 437.632L345.059 399.343L358.261 411.22L322.611 449.51L310.665 462.34L275.015 500.63Z" fill="#F68AA6"/>
<path d="M565.315 138.378C564.464 138.014 563.852 137.185 563.808 136.197L563.276 123.82C563.241 123.041 563.575 122.29 564.175 121.796C564.775 121.298 565.575 121.112 566.332 121.292C568.321 121.761 570.516 121.329 572.352 120.102C574.043 118.974 575.177 117.313 575.465 115.544C575.753 113.781 575.207 111.829 573.969 110.189C572.641 108.434 570.681 107.25 568.715 107.026C564.7 106.564 560.365 109.64 559.249 113.742C558.889 115.069 557.523 115.852 556.197 115.492C554.849 115.121 554.088 113.764 554.448 112.438C556.2 105.988 562.856 101.342 569.285 102.082C572.619 102.466 575.777 104.329 577.937 107.189C579.993 109.909 580.881 113.245 580.376 116.345C579.867 119.472 577.949 122.349 575.115 124.241C573.067 125.608 570.716 126.361 568.367 126.444L568.78 135.985C568.839 137.357 567.773 138.518 566.401 138.576C566.016 138.593 565.647 138.521 565.315 138.378Z" fill="#F03D5F"/>
<path d="M568.963 143.435C569.039 144.556 568.193 145.528 567.072 145.605C565.951 145.683 564.977 144.836 564.901 143.713C564.824 142.593 565.671 141.621 566.792 141.544C567.915 141.467 568.885 142.313 568.963 143.435Z" fill="#F03D5F"/>
<path d="M522.47 120.924C522.486 120.924 522.528 120.65 522.59 120.112C522.653 119.532 522.741 118.743 522.852 117.728C522.912 116.674 523.181 115.399 523.497 113.896C523.672 113.15 523.764 112.319 524.037 111.479C524.297 110.634 524.573 109.736 524.865 108.787C526.154 105.042 528.144 100.552 531.494 96.0844C534.82 91.6271 539.496 87.2244 545.498 83.8871C548.453 82.1244 551.834 80.8964 555.377 79.8124C558.977 78.9591 562.792 78.2298 566.777 78.3231C568.77 78.2164 570.78 78.5084 572.826 78.6804C573.85 78.7791 574.857 79.0524 575.884 79.2311C576.912 79.4218 577.945 79.6218 578.952 79.9711C583.068 81.0271 587.066 82.9684 590.877 85.3751C598.526 90.1884 604.968 98.0164 608.501 107.508C610.273 112.256 611.121 117.462 611.114 122.719C611.22 127.987 610.2 133.339 608.325 138.375L607.724 139.898L607.644 140.099L607.726 140.287C611.07 147.99 614.35 155.544 617.529 162.863L618.088 162.227C611.202 159.58 604.526 157.016 598.121 154.555L597.873 154.46L597.68 154.648C592.14 160.015 585.524 163.644 578.824 165.534C572.104 167.428 565.336 167.526 559.18 166.432C553.01 165.339 547.456 162.979 542.824 159.946C538.178 156.912 534.453 153.224 531.581 149.478C528.73 145.687 526.852 141.802 525.434 138.332C524.186 134.786 523.421 131.638 523.05 129.032C522.893 127.731 522.753 126.574 522.632 125.564C522.605 124.567 522.584 123.719 522.565 123.016C522.542 122.362 522.526 121.844 522.513 121.455C522.497 121.104 522.482 120.924 522.47 120.924C522.458 120.924 522.448 121.102 522.438 121.454C522.433 121.844 522.425 122.36 522.418 123.019C522.417 123.724 522.414 124.578 522.413 125.58C522.516 126.599 522.633 127.766 522.765 129.078C523.094 131.708 523.822 134.894 525.044 138.494C526.437 142.015 528.302 145.966 531.157 149.827C534.034 153.647 537.786 157.412 542.481 160.519C547.162 163.626 552.79 166.054 559.053 167.192C565.302 168.331 572.182 168.259 579.028 166.354C585.852 164.452 592.602 160.774 598.262 155.312L597.821 155.406C604.224 157.876 610.896 160.451 617.778 163.108L618.785 163.496L618.34 162.471C615.166 155.148 611.89 147.594 608.55 139.888L608.553 140.276L609.168 138.722C611.085 133.572 612.124 128.1 612.016 122.716C612.02 117.343 611.144 112.022 609.329 107.172C605.709 97.4778 599.12 89.5111 591.316 84.6285C587.429 82.1858 583.352 80.2258 579.16 79.1618C578.134 78.8125 577.084 78.6111 576.037 78.4204C574.99 78.2418 573.966 77.9684 572.926 77.8738C570.845 77.7058 568.801 77.4191 566.777 77.5351C562.726 77.4564 558.852 78.2138 555.204 79.1018C551.609 80.2204 548.186 81.4871 545.198 83.2938C539.129 86.7165 534.422 91.2165 531.096 95.7591C527.745 100.31 525.781 104.874 524.532 108.667C524.252 109.628 523.985 110.539 523.737 111.395C523.476 112.244 523.396 113.084 523.233 113.839C522.944 115.359 522.701 116.644 522.67 117.707C522.597 118.727 522.54 119.523 522.498 120.107C522.465 120.647 522.454 120.923 522.47 120.924Z" fill="#17282F"/>
</g>
<defs>
<clipPath id="clip0_250_2993">
<rect width="802.067" height="590.747" fill="white"/>
</clipPath>
</defs>
</svg>
