<svg width="4785" height="2630" viewBox="0 0 4785 2630" fill="none" xmlns="http://www.w3.org/2000/svg">
<path d="M420.076 632.436C416.107 621.843 412.063 611.105 405.389 601.971C398.717 592.844 388.967 585.36 377.745 583.988C366.519 582.616 354.083 588.674 350.424 599.373C348.815 575.258 345.399 550.514 333.327 529.575C321.258 508.635 298.735 492.183 274.614 493.661C251.869 495.053 232.395 511.949 221.574 532.007C210.755 552.065 207.04 575.066 203.488 597.583C194.867 586.997 176.662 590.325 167.663 600.586C158.667 610.847 156.386 625.197 154.473 638.713H425.73L420.076 632.436Z" fill="#F3F2F1"/>
<path d="M1512.48 351.678C1505.85 333.966 1499.08 316.01 1487.93 300.744C1476.77 285.472 1460.47 272.964 1441.7 270.671C1422.93 268.371 1402.14 278.499 1396.03 296.396C1393.34 256.075 1387.62 214.7 1367.44 179.688C1347.25 144.676 1309.6 117.174 1269.27 119.64C1231.24 121.967 1198.68 150.218 1180.59 183.751C1162.49 217.291 1156.28 255.757 1150.34 293.393C1135.93 275.702 1105.49 281.263 1090.45 298.424C1075.4 315.586 1071.59 339.567 1068.4 362.164H1521.94L1512.48 351.678Z" fill="#F3F2F1"/>
<path d="M2998.41 351.678C2991.78 333.966 2985.01 316.01 2973.86 300.744C2962.71 285.472 2946.4 272.964 2927.63 270.671C2908.87 268.371 2888.07 278.499 2881.96 296.396C2879.26 256.075 2873.55 214.7 2853.37 179.688C2833.18 144.676 2795.53 117.174 2755.2 119.64C2717.17 121.967 2684.61 150.218 2666.51 183.751C2648.42 217.291 2642.21 255.757 2636.27 293.393C2621.86 275.702 2591.42 281.263 2576.38 298.424C2561.33 315.586 2557.52 339.567 2554.32 362.164H3007.87L2998.41 351.678Z" fill="#E7E8E5"/>
<path d="M3958.09 164.588C3953.41 152.061 3948.61 139.354 3940.73 128.549C3932.83 117.751 3921.3 108.902 3908.02 107.278C3894.75 105.654 3880.03 112.82 3875.71 125.48C3873.8 96.9511 3869.76 67.6864 3855.48 42.9156C3841.2 18.1382 3814.57 -1.31649 3786.03 0.433439C3759.13 2.07731 3736.09 22.0622 3723.29 45.7857C3710.49 69.5091 3706.1 96.7258 3701.9 123.352C3691.7 110.838 3670.17 114.775 3659.52 126.912C3648.88 139.049 3646.18 156.025 3643.92 172.006H3964.79L3958.09 164.588Z" fill="#E7E8E5"/>
<path d="M3107.16 559.237C3104.78 552.88 3102.35 546.431 3098.34 540.949C3094.34 535.474 3088.49 530.98 3081.76 530.158C3075.02 529.329 3067.55 532.968 3065.36 539.391C3064.39 524.915 3062.34 510.067 3055.09 497.499C3047.85 484.931 3034.33 475.055 3019.85 475.943C3006.2 476.772 2994.51 486.92 2988.02 498.957C2981.52 510.995 2979.29 524.802 2977.16 538.317C2971.99 531.967 2961.06 533.962 2955.66 540.12C2950.26 546.278 2948.89 554.889 2947.74 563.002H3110.55L3107.16 559.237Z" fill="#F3F2F1"/>
<path d="M3371.68 214.633C3369.3 208.277 3366.87 201.827 3362.87 196.345C3358.86 190.864 3353.01 186.376 3346.27 185.554C3339.54 184.726 3332.07 188.365 3329.88 194.788C3328.91 180.311 3326.86 165.463 3319.62 152.895C3312.37 140.321 3298.85 130.451 3284.37 131.333C3270.73 132.175 3259.03 142.316 3252.54 154.354C3246.04 166.391 3243.82 180.198 3241.68 193.714C3236.51 187.357 3225.58 189.359 3220.18 195.517C3214.78 201.675 3213.41 210.285 3212.26 218.398H3375.08L3371.68 214.633Z" fill="#F3F2F1"/>
<path d="M4581.18 380.452C4578.8 374.088 4576.37 367.646 4572.36 362.164C4568.36 356.682 4562.51 352.194 4555.77 351.366C4549.03 350.544 4541.57 354.183 4539.38 360.606C4538.41 346.129 4536.36 331.275 4529.11 318.707C4521.87 306.14 4508.35 296.27 4493.87 297.151C4480.22 297.986 4468.53 308.128 4462.04 320.172C4455.54 332.209 4453.31 346.017 4451.18 359.532C4446.01 353.175 4435.08 355.177 4429.68 361.335C4424.28 367.493 4422.91 376.104 4421.76 384.217H4584.57L4581.18 380.452Z" fill="#F3F2F1"/>
<path d="M720.55 280.62C718.171 274.263 715.745 267.813 711.742 262.332C707.732 256.85 701.88 252.363 695.147 251.541C688.407 250.712 680.944 254.351 678.75 260.774C677.783 246.297 675.735 231.45 668.484 218.882C661.242 206.308 647.723 196.438 633.246 197.319C619.595 198.161 607.906 208.303 601.41 220.34C594.918 232.378 592.686 246.185 590.555 259.7C585.38 253.343 574.453 255.345 569.052 261.503C563.652 267.661 562.285 276.271 561.136 284.385H723.95L720.55 280.62Z" fill="#F3F2F1"/>
<path d="M831.21 1532.3H919.747V1227.88H831.21V1532.3Z" fill="#E7E8E5"/>
<path d="M1211.22 1226.88C1211.22 1226.88 1206.87 1223.98 1216.46 1211.42C1226.04 1198.86 1211.22 1192.09 1211.22 1192.09C1169.39 1216.25 1110.98 1192.09 1110.98 1192.09C1110.98 1192.09 1179.84 1170.83 1188.57 1150.54C1195.07 1135.38 1183.59 1133.7 1177.36 1133.82C1184.39 1133.09 1199.61 1130.6 1204.25 1122.51C1210.36 1111.88 1186.39 1099.32 1186.39 1099.32C1186.39 1099.32 1190.31 1093.53 1186.39 1082.9C1182.47 1072.26 1092.67 1056.81 1092.67 1056.81C1118.82 1059.7 1128.41 1033.61 1128.41 1033.61C1128.41 1033.61 1172.87 1034.58 1183.34 1017.19C1193.79 999.788 1176.36 994.956 1146.72 980.466C1117.08 965.969 1051.7 911.854 1051.7 911.854C1051.7 911.854 1092.67 907.99 1104.01 898.325C1115.34 888.661 1104.88 886.725 1104.88 886.725C1153.69 891.557 1137.13 865.468 1137.13 865.468C1071.75 845.178 1036.88 800.727 1036.88 800.727C1036.88 800.727 1067.39 793.959 1083.09 779.463C1098.78 764.973 1070.01 761.108 1070.01 761.108C1070.01 761.108 1127.55 753.373 1094.41 732.115C1069.24 715.955 1028.96 694.22 1016.44 687.684C1030.16 692.729 1061.29 686.697 1061.29 686.697C1097.9 670.271 1061.29 646.11 1061.29 646.11C1018.58 621.949 955.814 561.073 955.814 561.073C955.814 561.073 987.195 577.499 1002.88 572.666C1018.58 567.834 985.452 548.506 985.452 548.506C985.452 548.506 1002.01 553.338 1008.99 548.506C1015.96 543.673 990.681 521.455 990.681 521.455C953.103 497.029 906.777 432.937 887.398 405.409C868.019 432.937 821.693 497.029 784.115 521.455C784.115 521.455 758.837 543.673 765.81 548.506C772.782 553.338 789.344 548.506 789.344 548.506C789.344 548.506 756.22 567.834 771.913 572.666C787.601 577.499 818.989 561.073 818.989 561.073C818.989 561.073 756.22 621.949 713.505 646.11C713.505 646.11 676.895 670.271 713.505 686.697C713.505 686.697 744.635 692.729 758.36 687.684C745.841 694.22 705.559 715.955 680.381 732.115C647.255 753.373 704.79 761.108 704.79 761.108C704.79 761.108 676.02 764.973 691.714 779.463C707.401 793.959 737.914 800.727 737.914 800.727C737.914 800.727 703.047 845.178 637.665 865.468C637.665 865.468 621.102 891.557 669.916 886.725C669.916 886.725 659.458 888.661 670.791 898.325C682.124 907.99 723.095 911.854 723.095 911.854C723.095 911.854 657.716 965.969 628.077 980.466C598.436 994.956 581.003 999.788 591.462 1017.19C601.926 1034.58 646.385 1033.61 646.385 1033.61C646.385 1033.61 655.972 1059.7 682.124 1056.81C682.124 1056.81 592.329 1072.26 588.41 1082.9C584.49 1093.53 588.41 1099.32 588.41 1099.32C588.41 1099.32 564.442 1111.88 570.544 1122.51C575.183 1130.6 590.406 1133.09 597.432 1133.82C591.2 1133.7 579.724 1135.38 586.235 1150.54C594.952 1170.83 663.819 1192.09 663.819 1192.09C663.819 1192.09 605.41 1216.25 563.57 1192.09C563.57 1192.09 548.748 1198.86 558.337 1211.42C567.927 1223.98 563.57 1226.88 563.57 1226.88C563.57 1226.88 541.776 1210.45 551.366 1235.58C560.952 1260.71 611.515 1276.16 611.515 1276.16C611.515 1276.16 582.745 1281 591.462 1296.46C600.179 1311.92 636.793 1330.28 676.895 1334.14C716.991 1338.01 771.039 1323.52 771.039 1323.52C771.039 1323.52 734.428 1342.84 759.706 1353.47C784.99 1364.1 813.753 1339.94 813.753 1339.94C813.753 1339.94 808.524 1364.67 829.447 1356.18C850.37 1347.67 867.8 1331.25 867.8 1331.25C867.8 1331.25 874.335 1367.69 887.398 1358.97C900.461 1367.69 906.996 1331.25 906.996 1331.25C906.996 1331.25 924.433 1347.67 945.349 1356.18C966.272 1364.67 961.043 1339.94 961.043 1339.94C961.043 1339.94 989.806 1364.1 1015.09 1353.47C1040.37 1342.84 1003.76 1323.52 1003.76 1323.52C1003.76 1323.52 1057.8 1338.01 1097.9 1334.14C1138 1330.28 1174.61 1311.92 1183.34 1296.46C1192.05 1281 1163.28 1276.16 1163.28 1276.16C1163.28 1276.16 1213.84 1260.71 1223.43 1235.58C1233.02 1210.45 1211.22 1226.88 1211.22 1226.88Z" fill="#E7E8E5"/>
<path d="M4061.15 1545.33H4159.93V1205.69H4061.15V1545.33Z" fill="#E7E8E5"/>
<path d="M4485.13 1204.58C4485.13 1204.58 4480.27 1201.34 4490.96 1187.33C4501.66 1173.31 4485.13 1165.76 4485.13 1165.76C4438.45 1192.72 4373.29 1165.76 4373.29 1165.76C4373.29 1165.76 4450.12 1142.04 4459.84 1119.4C4467.1 1102.49 4454.3 1100.62 4447.35 1100.75C4455.19 1099.94 4472.17 1097.15 4477.35 1088.14C4484.16 1076.27 4457.42 1062.26 4457.42 1062.26C4457.42 1062.26 4461.79 1055.79 4457.42 1043.93C4453.04 1032.07 4352.86 1014.82 4352.86 1014.82C4382.04 1018.06 4392.74 988.95 4392.74 988.95C4392.74 988.95 4442.34 990.023 4454.01 970.622C4465.68 951.214 4446.23 945.825 4413.16 929.651C4380.09 913.478 4307.15 853.105 4307.15 853.105C4307.15 853.105 4352.86 848.79 4365.5 838.012C4378.14 827.227 4366.48 825.073 4366.48 825.073C4420.94 830.462 4402.46 801.356 4402.46 801.356C4329.52 778.713 4290.61 729.119 4290.61 729.119C4290.61 729.119 4324.65 721.575 4342.16 705.402C4359.67 689.228 4327.57 684.92 4327.57 684.92C4327.57 684.92 4391.76 676.29 4354.8 652.573C4326.71 634.543 4281.77 610.296 4267.8 603.005C4283.11 608.632 4317.85 601.898 4317.85 601.898C4358.7 583.576 4317.85 556.618 4317.85 556.618C4270.19 529.667 4200.17 461.744 4200.17 461.744C4200.17 461.744 4235.18 480.072 4252.68 474.683C4270.19 469.294 4233.23 447.725 4233.23 447.725C4233.23 447.725 4251.71 453.121 4259.49 447.725C4267.27 442.343 4239.07 417.546 4239.07 417.546C4197.15 390.296 4145.46 318.787 4123.84 288.071C4102.22 318.787 4050.53 390.296 4008.61 417.546C4008.61 417.546 3980.41 442.343 3988.19 447.725C3995.97 453.121 4014.45 447.725 4014.45 447.725C4014.45 447.725 3977.48 469.294 3994.99 474.683C4012.5 480.072 4047.51 461.744 4047.51 461.744C4047.51 461.744 3977.48 529.667 3929.83 556.618C3929.83 556.618 3888.99 583.576 3929.83 601.898C3929.83 601.898 3964.56 608.632 3979.88 603.005C3965.91 610.296 3920.96 634.543 3892.88 652.573C3855.92 676.29 3920.1 684.92 3920.1 684.92C3920.1 684.92 3888.01 689.228 3905.52 705.402C3923.03 721.575 3957.06 729.119 3957.06 729.119C3957.06 729.119 3918.16 778.713 3845.22 801.356C3845.22 801.356 3826.74 830.462 3881.2 825.073C3881.2 825.073 3869.53 827.227 3882.17 838.012C3894.82 848.79 3940.53 853.105 3940.53 853.105C3940.53 853.105 3867.59 913.478 3834.52 929.651C3801.45 945.825 3782 951.214 3793.67 970.622C3805.35 990.023 3854.95 988.95 3854.95 988.95C3854.95 988.95 3865.64 1018.06 3894.82 1014.82C3894.82 1014.82 3794.64 1032.07 3790.26 1043.93C3785.89 1055.79 3790.26 1062.26 3790.26 1062.26C3790.26 1062.26 3763.52 1076.27 3770.33 1088.14C3775.51 1097.15 3792.49 1099.94 3800.33 1100.75C3793.38 1100.62 3780.57 1102.49 3787.84 1119.4C3797.56 1142.04 3874.39 1165.76 3874.39 1165.76C3874.39 1165.76 3809.23 1192.72 3762.55 1165.76C3762.55 1165.76 3746.02 1173.31 3756.71 1187.33C3767.41 1201.34 3762.55 1204.58 3762.55 1204.58C3762.55 1204.58 3738.24 1186.25 3748.93 1214.28C3759.63 1242.31 3816.04 1259.56 3816.04 1259.56C3816.04 1259.56 3783.95 1264.95 3793.67 1282.2C3803.4 1299.45 3844.24 1319.93 3888.99 1324.25C3933.72 1328.55 3994.02 1312.39 3994.02 1312.39C3994.02 1312.39 3953.17 1333.95 3981.37 1345.81C4009.58 1357.67 4041.68 1330.72 4041.68 1330.72C4041.68 1330.72 4035.84 1358.31 4059.18 1348.82C4082.52 1339.34 4101.97 1321.01 4101.97 1321.01C4101.97 1321.01 4109.27 1361.67 4123.84 1351.95C4138.41 1361.67 4145.7 1321.01 4145.7 1321.01C4145.7 1321.01 4165.15 1339.34 4188.5 1348.82C4211.84 1358.31 4206 1330.72 4206 1330.72C4206 1330.72 4238.1 1357.67 4266.3 1345.81C4294.5 1333.95 4253.66 1312.39 4253.66 1312.39C4253.66 1312.39 4313.96 1328.55 4358.7 1324.25C4403.43 1319.93 4444.28 1299.45 4454.01 1282.2C4463.73 1264.95 4431.63 1259.56 4431.63 1259.56C4431.63 1259.56 4488.05 1242.31 4498.74 1214.28C4509.44 1186.25 4485.13 1204.58 4485.13 1204.58Z" fill="#E7E8E5"/>
<path d="M3391.56 1532.3H3480.11V1227.88H3391.56V1532.3Z" fill="#E7E8E5"/>
<path d="M3771.59 1226.88C3771.59 1226.88 3767.23 1223.98 3776.82 1211.42C3786.41 1198.86 3771.59 1192.09 3771.59 1192.09C3729.75 1216.25 3671.34 1192.09 3671.34 1192.09C3671.34 1192.09 3740.21 1170.83 3748.92 1150.54C3755.44 1135.38 3743.96 1133.7 3737.73 1133.82C3744.75 1133.09 3759.97 1130.6 3764.61 1122.51C3770.72 1111.88 3746.75 1099.32 3746.75 1099.32C3746.75 1099.32 3750.66 1093.53 3746.75 1082.9C3742.83 1072.26 3653.03 1056.81 3653.03 1056.81C3679.19 1059.7 3688.78 1033.61 3688.78 1033.61C3688.78 1033.61 3733.23 1034.58 3743.69 1017.19C3754.16 999.788 3736.72 994.956 3707.08 980.466C3677.44 965.969 3612.06 911.854 3612.06 911.854C3612.06 911.854 3653.03 907.99 3664.37 898.325C3675.7 888.661 3665.23 886.725 3665.23 886.725C3714.05 891.557 3697.49 865.468 3697.49 865.468C3632.11 845.178 3597.24 800.727 3597.24 800.727C3597.24 800.727 3627.75 793.959 3643.44 779.463C3659.14 764.973 3630.37 761.108 3630.37 761.108C3630.37 761.108 3687.9 753.373 3654.78 732.115C3629.6 715.955 3589.32 694.22 3576.8 687.684C3590.52 692.729 3621.65 686.697 3621.65 686.697C3658.26 670.271 3621.65 646.11 3621.65 646.11C3578.94 621.949 3516.17 561.073 3516.17 561.073C3516.17 561.073 3547.55 577.499 3563.24 572.666C3578.94 567.834 3545.81 548.506 3545.81 548.506C3545.81 548.506 3562.38 553.338 3569.35 548.506C3576.32 543.673 3551.04 521.455 3551.04 521.455C3513.46 497.029 3467.14 432.937 3447.76 405.409C3428.38 432.937 3382.05 497.029 3344.48 521.455C3344.48 521.455 3319.2 543.673 3326.17 548.506C3333.14 553.338 3349.71 548.506 3349.71 548.506C3349.71 548.506 3316.58 567.834 3332.27 572.666C3347.96 577.499 3379.34 561.073 3379.34 561.073C3379.34 561.073 3316.58 621.949 3273.87 646.11C3273.87 646.11 3237.25 670.271 3273.87 686.697C3273.87 686.697 3305 692.729 3318.72 687.684C3306.2 694.22 3265.92 715.955 3240.74 732.115C3207.61 753.373 3265.14 761.108 3265.14 761.108C3265.14 761.108 3236.38 764.973 3252.08 779.463C3267.76 793.959 3298.28 800.727 3298.28 800.727C3298.28 800.727 3263.41 845.178 3198.02 865.468C3198.02 865.468 3181.46 891.557 3230.28 886.725C3230.28 886.725 3219.82 888.661 3231.15 898.325C3242.48 907.99 3283.46 911.854 3283.46 911.854C3283.46 911.854 3218.08 965.969 3188.44 980.466C3158.79 994.956 3141.36 999.788 3151.82 1017.19C3162.29 1034.58 3206.74 1033.61 3206.74 1033.61C3206.74 1033.61 3216.33 1059.7 3242.48 1056.81C3242.48 1056.81 3152.69 1072.26 3148.77 1082.9C3144.85 1093.53 3148.77 1099.32 3148.77 1099.32C3148.77 1099.32 3124.8 1111.88 3130.9 1122.51C3135.54 1130.6 3150.77 1133.09 3157.79 1133.82C3151.56 1133.7 3140.08 1135.38 3146.59 1150.54C3155.31 1170.83 3224.18 1192.09 3224.18 1192.09C3224.18 1192.09 3165.77 1216.25 3123.93 1192.09C3123.93 1192.09 3109.11 1198.86 3118.7 1211.42C3128.29 1223.98 3123.93 1226.88 3123.93 1226.88C3123.93 1226.88 3102.13 1210.45 3111.72 1235.58C3121.31 1260.71 3171.88 1276.16 3171.88 1276.16C3171.88 1276.16 3143.11 1281 3151.82 1296.46C3160.54 1311.92 3197.15 1330.28 3237.25 1334.14C3277.35 1338.01 3331.4 1323.52 3331.4 1323.52C3331.4 1323.52 3294.79 1342.84 3320.07 1353.47C3345.35 1364.1 3374.11 1339.94 3374.11 1339.94C3374.11 1339.94 3368.89 1364.67 3389.8 1356.18C3410.72 1347.67 3428.16 1331.25 3428.16 1331.25C3428.16 1331.25 3434.7 1367.69 3447.76 1358.97C3460.82 1367.69 3467.35 1331.25 3467.35 1331.25C3467.35 1331.25 3484.79 1347.67 3505.71 1356.18C3526.63 1364.67 3521.4 1339.94 3521.4 1339.94C3521.4 1339.94 3550.17 1364.1 3575.45 1353.47C3600.73 1342.84 3564.12 1323.52 3564.12 1323.52C3564.12 1323.52 3618.17 1338.01 3658.26 1334.14C3698.37 1330.28 3734.98 1311.92 3743.69 1296.46C3752.41 1281 3723.64 1276.16 3723.64 1276.16C3723.64 1276.16 3774.2 1260.71 3783.79 1235.58C3793.38 1210.45 3771.59 1226.88 3771.59 1226.88Z" fill="#E7E8E5"/>
<path d="M2910.05 1245.04C2910.05 1245.04 2906.29 1242.54 2914.57 1231.69C2922.85 1220.84 2910.05 1214.99 2910.05 1214.99C2873.9 1235.86 2823.45 1214.99 2823.45 1214.99C2823.45 1214.99 2882.94 1196.62 2890.47 1179.1C2896.09 1166 2886.18 1164.55 2880.8 1164.65C2886.87 1164.02 2900.02 1161.87 2904.03 1154.88C2909.3 1145.7 2888.59 1134.84 2888.59 1134.84C2888.59 1134.84 2891.98 1129.84 2888.59 1120.66C2885.21 1111.47 2807.63 1098.11 2807.63 1098.11C2830.23 1100.62 2838.51 1078.08 2838.51 1078.08C2838.51 1078.08 2876.92 1078.91 2885.95 1063.89C2894.99 1048.86 2879.93 1044.69 2854.33 1032.17C2828.72 1019.64 2772.24 972.896 2772.24 972.896C2772.24 972.896 2807.63 969.555 2817.42 961.203C2827.21 952.858 2818.18 951.187 2818.18 951.187C2860.35 955.363 2846.04 932.826 2846.04 932.826C2789.56 915.287 2759.43 876.888 2759.43 876.888C2759.43 876.888 2785.8 871.042 2799.35 858.521C2812.9 845.999 2788.05 842.665 2788.05 842.665C2788.05 842.665 2837.76 835.984 2809.14 817.616C2787.39 803.657 2752.59 784.878 2741.77 779.237C2753.63 783.592 2780.52 778.382 2780.52 778.382C2812.15 764.19 2780.52 743.317 2780.52 743.317C2743.62 722.451 2689.4 669.853 2689.4 669.853C2689.4 669.853 2716.51 684.045 2730.07 679.876C2743.62 675.7 2715 659.003 2715 659.003C2715 659.003 2729.31 663.178 2735.34 659.003C2741.36 654.827 2719.52 635.63 2719.52 635.63C2687.06 614.532 2647.04 559.164 2630.3 535.381C2613.55 559.164 2573.54 614.532 2541.07 635.63C2541.07 635.63 2519.24 654.827 2525.26 659.003C2531.28 663.178 2545.59 659.003 2545.59 659.003C2545.59 659.003 2516.97 675.7 2530.53 679.876C2544.08 684.045 2571.2 669.853 2571.2 669.853C2571.2 669.853 2516.97 722.451 2480.08 743.317C2480.08 743.317 2448.44 764.19 2480.08 778.382C2480.08 778.382 2506.96 783.592 2518.82 779.237C2508 784.878 2473.21 803.657 2451.46 817.616C2422.84 835.984 2472.54 842.665 2472.54 842.665C2472.54 842.665 2447.69 845.999 2461.25 858.521C2474.8 871.042 2501.16 876.888 2501.16 876.888C2501.16 876.888 2471.04 915.287 2414.56 932.826C2414.56 932.826 2400.25 955.363 2442.42 951.187C2442.42 951.187 2433.39 952.858 2443.17 961.203C2452.96 969.555 2488.36 972.896 2488.36 972.896C2488.36 972.896 2431.87 1019.64 2406.27 1032.17C2380.67 1044.69 2365.61 1048.86 2374.64 1063.89C2383.68 1078.91 2422.09 1078.08 2422.09 1078.08C2422.09 1078.08 2430.37 1100.62 2452.96 1098.11C2452.96 1098.11 2375.39 1111.47 2372 1120.66C2368.61 1129.84 2372 1134.84 2372 1134.84C2372 1134.84 2351.3 1145.7 2356.57 1154.88C2360.58 1161.87 2373.73 1164.02 2379.8 1164.65C2374.41 1164.55 2364.5 1166 2370.13 1179.1C2377.65 1196.62 2437.15 1214.99 2437.15 1214.99C2437.15 1214.99 2386.69 1235.86 2350.55 1214.99C2350.55 1214.99 2337.74 1220.84 2346.03 1231.69C2354.31 1242.54 2350.55 1245.04 2350.55 1245.04C2350.55 1245.04 2331.72 1230.85 2340 1252.55C2348.28 1274.26 2391.96 1287.62 2391.96 1287.62C2391.96 1287.62 2367.11 1291.79 2374.64 1305.15C2382.17 1318.51 2413.8 1334.37 2448.44 1337.71C2483.09 1341.04 2529.78 1328.52 2529.78 1328.52C2529.78 1328.52 2498.15 1345.22 2519.99 1354.4C2541.82 1363.59 2566.68 1342.71 2566.68 1342.71C2566.68 1342.71 2562.16 1364.08 2580.23 1356.74C2598.31 1349.4 2613.37 1335.2 2613.37 1335.2C2613.37 1335.2 2619.02 1366.69 2630.3 1359.16C2641.58 1366.69 2647.23 1335.2 2647.23 1335.2C2647.23 1335.2 2662.29 1349.4 2680.37 1356.74C2698.44 1364.08 2693.92 1342.71 2693.92 1342.71C2693.92 1342.71 2718.77 1363.59 2740.61 1354.4C2762.45 1345.22 2730.82 1328.52 2730.82 1328.52C2730.82 1328.52 2777.51 1341.04 2812.15 1337.71C2846.79 1334.37 2878.42 1318.51 2885.95 1305.15C2893.48 1291.79 2868.63 1287.62 2868.63 1287.62C2868.63 1287.62 2912.31 1274.26 2920.59 1252.55C2928.88 1230.85 2910.05 1245.04 2910.05 1245.04Z" fill="#E7E8E5"/>
<path d="M1663.95 1532.3H1763.81V1188.95H1663.95V1532.3Z" fill="#E7E8E5"/>
<path d="M2092.57 1187.83C2092.57 1187.83 2087.65 1184.56 2098.47 1170.39C2109.28 1156.21 2092.57 1148.58 2092.57 1148.58C2045.37 1175.83 1979.5 1148.58 1979.5 1148.58C1979.5 1148.58 2057.17 1124.61 2067 1101.72C2074.35 1084.63 2061.4 1082.73 2054.37 1082.87C2062.3 1082.04 2079.47 1079.23 2084.7 1070.12C2091.58 1058.12 2064.55 1043.95 2064.55 1043.95C2064.55 1043.95 2068.97 1037.42 2064.55 1025.43C2060.13 1013.44 1958.85 995.996 1958.85 995.996C1988.35 999.271 1999.16 969.84 1999.16 969.84C1999.16 969.84 2049.31 970.927 2061.1 951.313C2072.9 931.693 2053.24 926.244 2019.81 909.898C1986.38 893.546 1912.64 832.511 1912.64 832.511C1912.64 832.511 1958.85 828.149 1971.63 817.252C1984.41 806.354 1972.61 804.174 1972.61 804.174C2027.68 809.622 2008.99 780.198 2008.99 780.198C1935.25 757.31 1895.93 707.172 1895.93 707.172C1895.93 707.172 1930.34 699.543 1948.04 683.19C1965.73 666.844 1933.29 662.489 1933.29 662.489C1933.29 662.489 1998.18 653.766 1960.82 629.784C1932.42 611.562 1886.99 587.043 1872.86 579.679C1888.35 585.366 1923.46 578.559 1923.46 578.559C1964.75 560.032 1923.46 532.782 1923.46 532.782C1875.28 505.539 1804.49 436.875 1804.49 436.875C1804.49 436.875 1839.88 455.401 1857.58 449.953C1875.28 444.504 1837.92 422.703 1837.92 422.703C1837.92 422.703 1856.6 428.152 1864.47 422.703C1872.33 417.254 1843.82 392.192 1843.82 392.192C1801.43 364.644 1749.18 292.353 1727.32 261.299C1705.47 292.353 1653.22 364.644 1610.84 392.192C1610.84 392.192 1582.33 417.254 1590.19 422.703C1598.05 428.152 1616.74 422.703 1616.74 422.703C1616.74 422.703 1579.38 444.504 1597.07 449.953C1614.77 455.401 1650.17 436.875 1650.17 436.875C1650.17 436.875 1579.38 505.539 1531.2 532.782C1531.2 532.782 1489.91 560.032 1531.2 578.559C1531.2 578.559 1566.31 585.366 1581.79 579.679C1567.67 587.043 1522.23 611.562 1493.84 629.784C1456.48 653.766 1521.37 662.489 1521.37 662.489C1521.37 662.489 1488.92 666.844 1506.62 683.19C1524.32 699.543 1558.73 707.172 1558.73 707.172C1558.73 707.172 1519.4 757.31 1445.66 780.198C1445.66 780.198 1426.98 809.622 1482.04 804.174C1482.04 804.174 1470.24 806.354 1483.02 817.252C1495.8 828.149 1542.01 832.511 1542.01 832.511C1542.01 832.511 1468.27 893.546 1434.84 909.898C1401.42 926.244 1381.75 931.693 1393.55 951.313C1405.35 970.927 1455.49 969.84 1455.49 969.84C1455.49 969.84 1466.31 999.271 1495.8 995.996C1495.8 995.996 1394.52 1013.44 1390.1 1025.43C1385.68 1037.42 1390.1 1043.95 1390.1 1043.95C1390.1 1043.95 1363.07 1058.12 1369.95 1070.12C1375.18 1079.23 1392.36 1082.04 1400.28 1082.87C1393.25 1082.73 1380.31 1084.63 1387.65 1101.72C1397.48 1124.61 1475.16 1148.58 1475.16 1148.58C1475.16 1148.58 1409.28 1175.83 1362.09 1148.58C1362.09 1148.58 1345.37 1156.21 1356.19 1170.39C1367.01 1184.56 1362.09 1187.83 1362.09 1187.83C1362.09 1187.83 1337.51 1169.3 1348.32 1197.64C1359.13 1225.97 1416.16 1243.41 1416.16 1243.41C1416.16 1243.41 1383.72 1248.86 1393.55 1266.3C1403.38 1283.73 1444.67 1304.45 1489.91 1308.8C1535.13 1313.16 1596.09 1296.82 1596.09 1296.82C1596.09 1296.82 1554.8 1318.61 1583.31 1330.6C1611.82 1342.59 1644.27 1315.34 1644.27 1315.34C1644.27 1315.34 1638.37 1343.24 1661.96 1333.65C1685.56 1324.06 1705.23 1305.53 1705.23 1305.53C1705.23 1305.53 1712.6 1346.64 1727.32 1336.81C1742.06 1346.64 1749.43 1305.53 1749.43 1305.53C1749.43 1305.53 1769.09 1324.06 1792.69 1333.65C1816.28 1343.24 1810.39 1315.34 1810.39 1315.34C1810.39 1315.34 1842.83 1342.59 1871.35 1330.6C1899.86 1318.61 1858.57 1296.82 1858.57 1296.82C1858.57 1296.82 1919.52 1313.16 1964.75 1308.8C2009.98 1304.45 2051.27 1283.73 2061.1 1266.3C2070.93 1248.86 2038.49 1243.41 2038.49 1243.41C2038.49 1243.41 2095.51 1225.97 2106.33 1197.64C2117.15 1169.3 2092.57 1187.83 2092.57 1187.83Z" fill="#E7E8E5"/>
<path d="M2204.8 1530.75H2269.72V1307.98H2204.8V1530.75Z" fill="#DADBD8"/>
<path d="M2483.42 1307.24C2483.42 1307.24 2480.23 1305.12 2487.25 1295.93C2494.28 1286.74 2483.42 1281.79 2483.42 1281.79C2452.74 1299.47 2409.92 1281.79 2409.92 1281.79C2409.92 1281.79 2460.41 1266.23 2466.8 1251.38C2471.58 1240.29 2463.16 1239.06 2458.59 1239.15C2463.75 1238.61 2474.91 1236.79 2478.31 1230.87C2482.78 1223.09 2465.21 1213.9 2465.21 1213.9C2465.21 1213.9 2468.08 1209.66 2465.21 1201.88C2462.33 1194.1 2396.5 1182.79 2396.5 1182.79C2415.68 1184.91 2422.7 1165.81 2422.7 1165.81C2422.7 1165.81 2455.3 1166.52 2462.97 1153.79C2470.64 1141.06 2457.85 1137.53 2436.12 1126.92C2414.4 1116.32 2366.46 1076.71 2366.46 1076.71C2366.46 1076.71 2396.5 1073.89 2404.81 1066.81C2413.12 1059.74 2405.45 1058.33 2405.45 1058.33C2441.24 1061.86 2429.1 1042.77 2429.1 1042.77C2381.16 1027.92 2355.6 995.393 2355.6 995.393C2355.6 995.393 2377.97 990.441 2389.47 979.836C2400.98 969.23 2379.88 966.4 2379.88 966.4C2379.88 966.4 2422.06 960.739 2397.78 945.182C2379.32 933.356 2349.79 917.448 2340.61 912.675C2350.67 916.361 2373.49 911.946 2373.49 911.946C2400.33 899.922 2373.49 882.244 2373.49 882.244C2342.18 864.572 2296.16 820.016 2296.16 820.016C2296.16 820.016 2319.17 832.04 2330.67 828.5C2342.18 824.967 2317.89 810.822 2317.89 810.822C2317.89 810.822 2330.04 814.361 2335.14 810.822C2340.26 807.289 2321.72 791.022 2321.72 791.022C2294.17 773.152 2260.21 726.249 2246 706.105C2231.8 726.249 2197.83 773.152 2170.28 791.022C2170.28 791.022 2151.74 807.289 2156.86 810.822C2161.97 814.361 2174.11 810.822 2174.11 810.822C2174.11 810.822 2149.83 824.967 2161.33 828.5C2172.84 832.04 2195.84 820.016 2195.84 820.016C2195.84 820.016 2149.83 864.572 2118.51 882.244C2118.51 882.244 2091.66 899.922 2118.51 911.946C2118.51 911.946 2141.33 916.361 2151.4 912.675C2142.21 917.448 2112.68 933.356 2094.22 945.182C2069.93 960.739 2112.12 966.4 2112.12 966.4C2112.12 966.4 2091.03 969.23 2102.53 979.836C2114.03 990.441 2136.41 995.393 2136.41 995.393C2136.41 995.393 2110.84 1027.92 2062.91 1042.77C2062.91 1042.77 2050.76 1061.86 2086.55 1058.33C2086.55 1058.33 2078.89 1059.74 2087.19 1066.81C2095.5 1073.89 2125.54 1076.71 2125.54 1076.71C2125.54 1076.71 2077.61 1116.32 2055.87 1126.92C2034.14 1137.53 2021.37 1141.06 2029.03 1153.79C2036.7 1166.52 2069.3 1165.81 2069.3 1165.81C2069.3 1165.81 2076.33 1184.91 2095.5 1182.79C2095.5 1182.79 2029.66 1194.1 2026.79 1201.88C2023.92 1209.66 2026.79 1213.9 2026.79 1213.9C2026.79 1213.9 2009.22 1223.09 2013.69 1230.87C2017.1 1236.79 2028.26 1238.61 2033.41 1239.15C2028.84 1239.06 2020.42 1240.29 2025.2 1251.38C2031.59 1266.23 2082.08 1281.79 2082.08 1281.79C2082.08 1281.79 2039.26 1299.47 2008.58 1281.79C2008.58 1281.79 1997.72 1286.74 2004.74 1295.93C2011.78 1305.12 2008.58 1307.24 2008.58 1307.24C2008.58 1307.24 1992.6 1295.23 1999.63 1313.61C2006.66 1332 2043.73 1343.31 2043.73 1343.31C2043.73 1343.31 2022.64 1346.84 2029.03 1358.16C2035.42 1369.47 2062.26 1382.91 2091.66 1385.74C2121.06 1388.57 2160.69 1377.96 2160.69 1377.96C2160.69 1377.96 2133.85 1392.1 2152.38 1399.88C2170.92 1407.66 2192.01 1389.98 2192.01 1389.98C2192.01 1389.98 2188.17 1408.08 2203.51 1401.86C2218.85 1395.64 2231.63 1383.62 2231.63 1383.62C2231.63 1383.62 2236.42 1410.29 2246 1403.91C2255.58 1410.29 2260.37 1383.62 2260.37 1383.62C2260.37 1383.62 2273.15 1395.64 2288.49 1401.86C2303.83 1408.08 2299.99 1389.98 2299.99 1389.98C2299.99 1389.98 2321.08 1407.66 2339.62 1399.88C2358.16 1392.1 2331.31 1377.96 2331.31 1377.96C2331.31 1377.96 2370.93 1388.57 2400.33 1385.74C2429.73 1382.91 2456.57 1369.47 2462.97 1358.16C2469.36 1346.84 2448.27 1343.31 2448.27 1343.31C2448.27 1343.31 2485.34 1332 2492.37 1313.61C2499.39 1295.23 2483.42 1307.24 2483.42 1307.24Z" fill="#DADBD8"/>
<path d="M312.718 1529.8H368.451V1338.19H312.718V1529.8Z" fill="#E7E8E5"/>
<path d="M551.92 1337.56C551.92 1337.56 549.178 1335.73 555.212 1327.83C561.247 1319.92 551.92 1315.66 551.92 1315.66C525.583 1330.87 488.821 1315.66 488.821 1315.66C488.821 1315.66 532.166 1302.28 537.652 1289.51C541.751 1279.97 534.525 1278.91 530.605 1278.99C535.03 1278.52 544.611 1276.96 547.529 1271.87C551.37 1265.17 536.285 1257.27 536.285 1257.27C536.285 1257.27 538.75 1253.62 536.285 1246.93C533.818 1240.24 477.298 1230.51 477.298 1230.51C493.758 1232.33 499.792 1215.91 499.792 1215.91C499.792 1215.91 527.778 1216.51 534.361 1205.57C540.945 1194.62 529.971 1191.58 511.316 1182.46C492.66 1173.33 451.508 1139.27 451.508 1139.27C451.508 1139.27 477.298 1136.83 484.43 1130.75C491.562 1124.67 484.979 1123.46 484.979 1123.46C515.706 1126.49 505.281 1110.07 505.281 1110.07C464.128 1097.3 442.18 1069.32 442.18 1069.32C442.18 1069.32 461.384 1065.06 471.26 1055.94C481.137 1046.82 463.03 1044.38 463.03 1044.38C463.03 1044.38 499.246 1039.51 478.393 1026.14C462.544 1015.96 437.191 1002.28 429.311 998.17C437.947 1001.35 457.542 997.547 457.542 997.547C480.589 987.207 457.542 971.994 457.542 971.994C430.657 956.795 391.15 918.469 391.15 918.469C391.15 918.469 410.903 928.809 420.78 925.774C430.657 922.731 409.806 910.561 409.806 910.561C409.806 910.561 420.231 913.604 424.622 910.561C429.01 907.525 413.099 893.532 413.099 893.532C389.444 878.161 360.286 837.82 348.087 820.493C335.891 837.82 306.73 878.161 283.078 893.532C283.078 893.532 267.167 907.525 271.555 910.561C275.945 913.604 286.371 910.561 286.371 910.561C286.371 910.561 265.52 922.731 275.397 925.774C285.274 928.809 305.026 918.469 305.026 918.469C305.026 918.469 265.52 956.795 238.634 971.994C238.634 971.994 215.586 987.207 238.634 997.547C238.634 997.547 258.227 1001.35 266.866 998.17C258.986 1002.28 233.631 1015.96 217.784 1026.14C196.931 1039.51 233.146 1044.38 233.146 1044.38C233.146 1044.38 215.04 1046.82 224.916 1055.94C234.793 1065.06 253.997 1069.32 253.997 1069.32C253.997 1069.32 232.049 1097.3 190.896 1110.07C190.896 1110.07 180.471 1126.49 211.198 1123.46C211.198 1123.46 204.614 1124.67 211.747 1130.75C218.879 1136.83 244.669 1139.27 244.669 1139.27C244.669 1139.27 203.517 1173.33 184.861 1182.46C166.203 1191.58 155.232 1194.62 161.815 1205.57C168.401 1216.51 196.384 1215.91 196.384 1215.91C196.384 1215.91 202.419 1232.33 218.879 1230.51C218.879 1230.51 162.359 1240.24 159.892 1246.93C157.424 1253.62 159.892 1257.27 159.892 1257.27C159.892 1257.27 144.806 1265.17 148.645 1271.87C151.568 1276.96 161.15 1278.52 165.571 1278.99C161.649 1278.91 154.424 1279.97 158.522 1289.51C164.011 1302.28 207.356 1315.66 207.356 1315.66C207.356 1315.66 170.594 1330.87 144.257 1315.66C144.257 1315.66 134.93 1319.92 140.964 1327.83C146.999 1335.73 144.257 1337.56 144.257 1337.56C144.257 1337.56 130.539 1327.22 136.576 1343.03C142.611 1358.85 174.436 1368.58 174.436 1368.58C174.436 1368.58 156.327 1371.62 161.815 1381.35C167.301 1391.09 190.347 1402.64 215.586 1405.07C240.827 1407.51 274.848 1398.39 274.848 1398.39C274.848 1398.39 251.802 1410.55 267.713 1417.24C283.627 1423.93 301.733 1408.73 301.733 1408.73C301.733 1408.73 298.443 1424.29 311.61 1418.94C324.78 1413.59 335.753 1403.25 335.753 1403.25C335.753 1403.25 339.865 1426.19 348.087 1420.7C356.312 1426.19 360.423 1403.25 360.423 1403.25C360.423 1403.25 371.398 1413.59 384.567 1418.94C397.734 1424.29 394.443 1408.73 394.443 1408.73C394.443 1408.73 412.55 1423.93 428.461 1417.24C444.375 1410.55 421.329 1398.39 421.329 1398.39C421.329 1398.39 455.35 1407.51 480.588 1405.07C505.83 1402.64 528.873 1391.09 534.361 1381.35C539.85 1371.62 521.741 1368.58 521.741 1368.58C521.741 1368.58 553.566 1358.85 559.6 1343.03C565.638 1327.22 551.92 1337.56 551.92 1337.56Z" fill="#DADBD8"/>
<path d="M4442.58 1529.8H4498.31V1338.19H4442.58V1529.8Z" fill="#E7E8E5"/>
<path d="M4681.78 1337.56C4681.78 1337.56 4679.04 1335.73 4685.07 1327.83C4691.11 1319.92 4681.78 1315.66 4681.78 1315.66C4655.45 1330.87 4618.68 1315.66 4618.68 1315.66C4618.68 1315.66 4662.03 1302.28 4667.51 1289.51C4671.61 1279.97 4664.39 1278.91 4660.46 1278.99C4664.89 1278.52 4674.47 1276.96 4677.39 1271.87C4681.23 1265.17 4666.14 1257.27 4666.14 1257.27C4666.14 1257.27 4668.61 1253.62 4666.14 1246.93C4663.68 1240.24 4607.16 1230.51 4607.16 1230.51C4623.62 1232.33 4629.65 1215.91 4629.65 1215.91C4629.65 1215.91 4657.64 1216.51 4664.22 1205.57C4670.81 1194.62 4659.83 1191.58 4641.18 1182.46C4622.52 1173.33 4581.37 1139.27 4581.37 1139.27C4581.37 1139.27 4607.16 1136.83 4614.29 1130.75C4621.42 1124.67 4614.84 1123.46 4614.84 1123.46C4645.56 1126.49 4635.14 1110.07 4635.14 1110.07C4593.99 1097.3 4572.04 1069.32 4572.04 1069.32C4572.04 1069.32 4591.24 1065.06 4601.12 1055.94C4610.99 1046.82 4592.89 1044.38 4592.89 1044.38C4592.89 1044.38 4629.11 1039.51 4608.25 1026.14C4592.4 1015.96 4567.05 1002.28 4559.17 998.17C4567.81 1001.35 4587.4 997.547 4587.4 997.547C4610.45 987.207 4587.4 971.994 4587.4 971.994C4560.52 956.795 4521.01 918.469 4521.01 918.469C4521.01 918.469 4540.76 928.809 4550.64 925.774C4560.52 922.731 4539.67 910.561 4539.67 910.561C4539.67 910.561 4550.09 913.604 4554.48 910.561C4558.87 907.525 4542.96 893.532 4542.96 893.532C4519.3 878.161 4490.15 837.82 4477.95 820.493C4465.75 837.82 4436.59 878.161 4412.94 893.532C4412.94 893.532 4397.03 907.525 4401.41 910.561C4405.81 913.604 4416.23 910.561 4416.23 910.561C4416.23 910.561 4395.38 922.731 4405.26 925.774C4415.13 928.809 4434.89 918.469 4434.89 918.469C4434.89 918.469 4395.38 956.795 4368.49 971.994C4368.49 971.994 4345.45 987.207 4368.49 997.547C4368.49 997.547 4388.08 1001.35 4396.73 998.17C4388.85 1002.28 4363.49 1015.96 4347.64 1026.14C4326.79 1039.51 4363.01 1044.38 4363.01 1044.38C4363.01 1044.38 4344.9 1046.82 4354.77 1055.94C4364.65 1065.06 4383.86 1069.32 4383.86 1069.32C4383.86 1069.32 4361.91 1097.3 4320.76 1110.07C4320.76 1110.07 4310.33 1126.49 4341.06 1123.46C4341.06 1123.46 4334.47 1124.67 4341.61 1130.75C4348.74 1136.83 4374.53 1139.27 4374.53 1139.27C4374.53 1139.27 4333.37 1173.33 4314.72 1182.46C4296.06 1191.58 4285.09 1194.62 4291.67 1205.57C4298.26 1216.51 4326.24 1215.91 4326.24 1215.91C4326.24 1215.91 4332.28 1232.33 4348.74 1230.51C4348.74 1230.51 4292.22 1240.24 4289.75 1246.93C4287.29 1253.62 4289.75 1257.27 4289.75 1257.27C4289.75 1257.27 4274.67 1265.17 4278.51 1271.87C4281.43 1276.96 4291.01 1278.52 4295.43 1278.99C4291.51 1278.91 4284.28 1279.97 4288.38 1289.51C4293.87 1302.28 4337.22 1315.66 4337.22 1315.66C4337.22 1315.66 4300.46 1330.87 4274.12 1315.66C4274.12 1315.66 4264.79 1319.92 4270.82 1327.83C4276.86 1335.73 4274.12 1337.56 4274.12 1337.56C4274.12 1337.56 4260.4 1327.22 4266.44 1343.03C4272.47 1358.85 4304.29 1368.58 4304.29 1368.58C4304.29 1368.58 4286.19 1371.62 4291.67 1381.35C4297.16 1391.09 4320.21 1402.64 4345.45 1405.07C4370.69 1407.51 4404.71 1398.39 4404.71 1398.39C4404.71 1398.39 4381.66 1410.55 4397.58 1417.24C4413.49 1423.93 4431.59 1408.73 4431.59 1408.73C4431.59 1408.73 4428.3 1424.29 4441.47 1418.94C4454.64 1413.59 4465.61 1403.25 4465.61 1403.25C4465.61 1403.25 4469.72 1426.19 4477.95 1420.7C4486.17 1426.19 4490.28 1403.25 4490.28 1403.25C4490.28 1403.25 4501.26 1413.59 4514.43 1418.94C4527.59 1424.29 4524.3 1408.73 4524.3 1408.73C4524.3 1408.73 4542.41 1423.93 4558.33 1417.24C4574.24 1410.55 4551.19 1398.39 4551.19 1398.39C4551.19 1398.39 4585.21 1407.51 4610.45 1405.07C4635.69 1402.64 4658.73 1391.09 4664.22 1381.35C4669.71 1371.62 4651.6 1368.58 4651.6 1368.58C4651.6 1368.58 4683.43 1358.85 4689.46 1343.03C4695.5 1327.22 4681.78 1337.56 4681.78 1337.56Z" fill="#DADBD8"/>
<path d="M3109.51 1529.8H3165.24V1338.19H3109.51V1529.8Z" fill="#E7E8E5"/>
<path d="M3348.71 1337.56C3348.71 1337.56 3345.97 1335.73 3352.01 1327.83C3358.04 1319.92 3348.71 1315.66 3348.71 1315.66C3322.37 1330.87 3285.61 1315.66 3285.61 1315.66C3285.61 1315.66 3328.96 1302.28 3334.44 1289.51C3338.54 1279.97 3331.31 1278.91 3327.4 1278.99C3331.82 1278.52 3341.4 1276.96 3344.32 1271.87C3348.16 1265.17 3333.08 1257.27 3333.08 1257.27C3333.08 1257.27 3335.54 1253.62 3333.08 1246.93C3330.61 1240.24 3274.09 1230.51 3274.09 1230.51C3290.55 1232.33 3296.59 1215.91 3296.59 1215.91C3296.59 1215.91 3324.57 1216.51 3331.16 1205.57C3337.74 1194.62 3326.76 1191.58 3308.11 1182.46C3289.45 1173.33 3248.3 1139.27 3248.3 1139.27C3248.3 1139.27 3274.09 1136.83 3281.22 1130.75C3288.35 1124.67 3281.77 1123.46 3281.77 1123.46C3312.49 1126.49 3302.07 1110.07 3302.07 1110.07C3260.92 1097.3 3238.97 1069.32 3238.97 1069.32C3238.97 1069.32 3258.17 1065.06 3268.05 1055.94C3277.93 1046.81 3259.82 1044.38 3259.82 1044.38C3259.82 1044.38 3296.04 1039.51 3275.19 1026.14C3259.33 1015.96 3233.98 1002.28 3226.1 998.17C3234.74 1001.35 3254.34 997.54 3254.34 997.54C3277.38 987.207 3254.34 971.994 3254.34 971.994C3227.45 956.795 3187.94 918.469 3187.94 918.469C3187.94 918.469 3207.69 928.809 3217.57 925.774C3227.45 922.731 3206.6 910.561 3206.6 910.561C3206.6 910.561 3217.02 913.604 3221.41 910.561C3225.8 907.519 3209.89 893.532 3209.89 893.532C3186.24 878.161 3157.08 837.82 3144.88 820.486C3132.68 837.82 3103.52 878.161 3079.87 893.532C3079.87 893.532 3063.95 907.519 3068.35 910.561C3072.74 913.604 3083.16 910.561 3083.16 910.561C3083.16 910.561 3062.31 922.731 3072.19 925.774C3082.06 928.809 3101.82 918.469 3101.82 918.469C3101.82 918.469 3062.31 956.795 3035.42 971.994C3035.42 971.994 3012.38 987.207 3035.42 997.54C3035.42 997.54 3055.02 1001.35 3063.66 998.17C3055.78 1002.28 3030.42 1015.96 3014.57 1026.14C2993.72 1039.51 3029.93 1044.38 3029.93 1044.38C3029.93 1044.38 3011.83 1046.81 3021.7 1055.94C3031.58 1065.06 3050.78 1069.32 3050.78 1069.32C3050.78 1069.32 3028.84 1097.3 2987.68 1110.07C2987.68 1110.07 2977.26 1126.49 3007.98 1123.46C3007.98 1123.46 3001.4 1124.67 3008.53 1130.75C3015.67 1136.83 3041.46 1139.27 3041.46 1139.27C3041.46 1139.27 3000.3 1173.33 2981.65 1182.46C2963 1191.58 2952.02 1194.62 2958.6 1205.57C2965.19 1216.51 2993.17 1215.91 2993.17 1215.91C2993.17 1215.91 2999.21 1232.33 3015.67 1230.51C3015.67 1230.51 2959.15 1240.24 2956.68 1246.93C2954.22 1253.62 2956.68 1257.27 2956.68 1257.27C2956.68 1257.27 2941.6 1265.17 2945.43 1271.87C2948.36 1276.96 2957.94 1278.52 2962.36 1278.99C2958.44 1278.91 2951.21 1279.97 2955.32 1289.51C2960.8 1302.28 3004.15 1315.66 3004.15 1315.66C3004.15 1315.66 2967.38 1330.87 2941.05 1315.66C2941.05 1315.66 2931.72 1319.92 2937.75 1327.83C2943.79 1335.73 2941.05 1337.56 2941.05 1337.56C2941.05 1337.56 2927.33 1327.22 2933.37 1343.03C2939.4 1358.85 2971.23 1368.58 2971.23 1368.58C2971.23 1368.58 2953.12 1371.62 2958.6 1381.35C2964.09 1391.09 2987.13 1402.64 3012.38 1405.07C3037.62 1407.51 3071.64 1398.39 3071.64 1398.39C3071.64 1398.39 3048.59 1410.55 3064.5 1417.24C3080.42 1423.93 3098.52 1408.73 3098.52 1408.73C3098.52 1408.73 3095.23 1424.29 3108.4 1418.94C3121.57 1413.59 3132.54 1403.25 3132.54 1403.25C3132.54 1403.25 3136.66 1426.19 3144.88 1420.7C3153.1 1426.19 3157.22 1403.25 3157.22 1403.25C3157.22 1403.25 3168.18 1413.59 3181.35 1418.94C3194.52 1424.29 3191.24 1408.73 3191.24 1408.73C3191.24 1408.73 3209.34 1423.93 3225.25 1417.24C3241.17 1410.55 3218.12 1398.39 3218.12 1398.39C3218.12 1398.39 3252.14 1407.51 3277.38 1405.07C3302.62 1402.64 3325.66 1391.09 3331.16 1381.35C3336.64 1371.62 3318.53 1368.58 3318.53 1368.58C3318.53 1368.58 3350.36 1358.85 3356.39 1343.03C3362.43 1327.22 3348.71 1337.56 3348.71 1337.56Z" fill="#DADBD8"/>
<path d="M2179.07 299.73C2179 299.942 2175.37 298.451 2168.52 296.926C2161.7 295.435 2151.46 294.109 2139.05 295.793C2126.73 297.443 2112.12 302.401 2099.34 312.921C2086.59 323.255 2075.68 338.885 2071.32 357.431L2071.19 357.922L2070.38 361.104L2069.15 358.088C2062.02 340.469 2049.35 326.463 2035.59 317.561C2021.81 308.5 2006.98 304.741 1994.62 303.9C1982.16 303.031 1972.07 304.814 1965.34 306.577C1958.58 308.36 1955 309.931 1954.92 309.733C1954.9 309.66 1955.77 309.242 1957.48 308.5C1959.17 307.751 1961.73 306.77 1965.11 305.775C1971.84 303.754 1982.04 301.699 1994.71 302.388C2007.3 303.051 2022.5 306.723 2036.67 315.904C2050.78 324.919 2063.81 339.21 2071.14 357.285L2069.1 357.451L2069.23 356.941C2073.72 337.877 2084.97 321.889 2098.11 311.39C2111.27 300.685 2126.29 295.773 2138.86 294.295C2151.52 292.77 2161.88 294.355 2168.71 296.118C2172.14 296.986 2174.75 297.874 2176.48 298.577C2178.21 299.273 2179.1 299.664 2179.07 299.73Z" fill="#DADBD8"/>
<path d="M2374.26 364.735C2374.19 364.914 2372.18 364.152 2368.42 363.376C2364.66 362.614 2359.06 361.945 2352.29 362.906C2345.57 363.854 2337.63 366.585 2330.69 372.338C2323.76 377.979 2317.83 386.496 2315.46 396.578L2315.4 396.85L2314.58 400.025L2313.35 397.009C2309.48 387.425 2302.58 379.782 2295.11 374.917C2287.61 369.958 2279.54 367.87 2272.79 367.367C2265.99 366.843 2260.45 367.771 2256.75 368.679C2253.04 369.6 2251.05 370.409 2250.98 370.23C2250.95 370.164 2251.42 369.905 2252.35 369.468C2253.27 369.024 2254.67 368.454 2256.53 367.877C2260.23 366.704 2265.86 365.517 2272.88 365.855C2279.85 366.18 2288.3 368.182 2296.18 373.259C2304.03 378.244 2311.27 386.165 2315.34 396.214L2313.31 396.373L2313.38 396.095C2315.87 385.489 2322.14 376.613 2329.45 370.8C2336.78 364.874 2345.13 362.183 2352.1 361.408C2359.12 360.606 2364.84 361.534 2368.6 362.568C2370.5 363.071 2371.93 363.588 2372.87 364.006C2373.81 364.417 2374.29 364.669 2374.26 364.735Z" fill="#DADBD8"/>
<path d="M2265.58 36.7702C2265.72 36.9028 2263.57 39.0769 2259.92 43.1932C2256.27 47.3029 2251.29 53.5402 2246.09 61.8656C2235.65 78.2911 2225.2 104.48 2225.56 134.527L2225.55 135.442L2223.43 135.621C2221.21 120.959 2216.31 107.51 2210.14 96.2677C2203.98 84.9926 2196.75 75.832 2189.92 68.9384C2183.09 62.0248 2176.86 57.1461 2172.38 54.0705C2167.91 50.975 2165.32 49.4106 2165.41 49.2449C2165.45 49.1853 2166.13 49.5102 2167.4 50.1929C2168.64 50.9221 2170.57 51.8367 2172.84 53.3745C2177.5 56.2645 2183.93 61.0106 2190.98 67.8711C2198.04 74.7117 2205.51 83.912 2211.87 95.3131C2218.24 106.688 2223.28 120.369 2225.54 135.31L2223.41 135.489L2223.42 134.554C2223.05 103.983 2233.92 77.4559 2244.81 61.0503C2250.23 52.7382 2255.44 46.5869 2259.31 42.6297C2261.17 40.5815 2262.83 39.1962 2263.87 38.1886C2264.95 37.2076 2265.53 36.7172 2265.58 36.7702Z" fill="#DADBD8"/>
<path d="M4784.99 1532.3C4784.99 1533.26 3713.74 1534.03 2392.61 1534.03C1071.01 1534.03 0 1533.26 0 1532.3C0 1531.35 1071.01 1530.58 2392.61 1530.58C3713.74 1530.58 4784.99 1531.35 4784.99 1532.3Z" fill="#17282F"/>
<path d="M4572.36 2578.39C4572.36 2606.5 3588.2 2629.29 2374.18 2629.29C1160.15 2629.29 175.994 2606.5 175.994 2578.39C175.994 2550.27 1160.15 2527.48 2374.18 2527.48C3588.2 2527.48 4572.36 2550.27 4572.36 2578.39Z" fill="#E7E8E5"/>
<path d="M1330 1616.69C1330 1616.69 1693.59 1409.77 1810.1 1352.94C1926.61 1296.11 2058.51 1257.4 2058.51 1257.4L2119.39 1283.93L1798.77 1458.48L1455.82 1657.38L1330 1616.69Z" fill="#33535F"/>
<path d="M1292.53 1588.14L1371.92 1592.92L1488.97 1620.44L1390.75 1643.11L1302.38 1610.32L1292.53 1588.14Z" fill="#17282F"/>
<path d="M3511.96 1275.93C3511.96 1275.93 3957.39 1476.13 4088.78 1502.86L4050.51 1585.42L3828.06 1526.82L3648.86 1406.66L3467.63 1331C3467.63 1331 3420.79 1277.57 3426.9 1275.93C3433.01 1274.28 3511.96 1275.93 3511.96 1275.93Z" fill="#33535F"/>
<path d="M507.784 2330.39C542.56 2341.58 3119.49 2330.39 3119.49 2330.39L4218.25 2260.56L4185.59 1831.19L727.814 1825.95L479.62 1990.67V2310.08L507.784 2330.39Z" fill="#F2575D"/>
<mask id="mask0_608_63" style="mask-type:luminance" maskUnits="userSpaceOnUse" x="535" y="1880" width="3539" height="456">
<path d="M1200.35 2335.37C883.534 2335.37 628.925 2334.53 540.753 2332.18C537.066 2310.83 535.128 2288.89 535.128 2266.49C535.128 2053.33 707.898 1880.53 921.026 1880.53C1134.15 1880.53 1306.93 2053.33 1306.93 2266.49C1306.93 2290 1304.79 2313 1300.74 2335.34C1266.72 2335.36 1233.15 2335.37 1200.35 2335.37ZM3305.37 2318.58C3303.05 2301.55 3301.83 2284.16 3301.83 2266.49C3301.83 2053.33 3474.61 1880.53 3687.73 1880.53C3900.86 1880.53 4073.64 2053.33 4073.64 2266.49C4073.64 2267.58 4073.63 2268.67 4073.62 2269.75L3305.37 2318.58Z" fill="white"/>
</mask>
<g mask="url(#mask0_608_63)">
<path d="M535.128 2335.37H4073.64V1880.53H535.128V2335.37Z" fill="#CC4341"/>
</g>
<path d="M4501.61 1825.95C4501.61 1825.95 4496.11 1732.54 4496.11 1705.19C4496.11 1677.85 4467.28 1615.06 4467.28 1615.06L4477.95 1550.81C4477.95 1535.01 4449.5 1536.34 4426.86 1537.68C4419.88 1538.09 4413.45 1538.5 4408.57 1538.41C4237.86 1535.2 4088.78 1502.86 4088.78 1502.86L4050.5 1538.41C3973.96 1522 3479.15 1295.07 3479.15 1295.07C3479.15 1295.07 3503.75 1278.66 3511.96 1275.92C3520.16 1273.19 3358.86 1213.04 2825.78 1185.7C2292.7 1158.35 2043.93 1262.26 2043.93 1262.26L2101.33 1281.39C1877.16 1336.08 1488.97 1620.43 1488.97 1620.43C1305.81 1620.43 1286.67 1582.15 1286.67 1582.15C816.463 1606.76 392.734 1738 302.52 1779.01C257.411 1799.52 200.961 1826.58 181.482 1854.61C162.003 1882.63 168.02 1910.15 165.83 1945.8C164.742 1963.53 134.355 2018.59 132.679 2053.22C127.406 2162.12 156.238 2283.8 156.238 2283.8C156.43 2289.84 88.8031 2316.99 115.852 2325.14C199.628 2350.41 454.551 2373 502.083 2375.06C510.44 2375.43 527.454 2375.74 550.984 2376.01C540.725 2341.28 535.128 2304.55 535.128 2266.49C535.128 2053.33 707.898 1880.53 921.025 1880.53C1134.15 1880.53 1306.93 2053.33 1306.93 2266.49C1306.93 2304.23 1301.42 2340.65 1291.32 2375.12C1292.5 2375.1 1293.72 2375.08 1294.88 2375.06C1475.3 2372.33 2995.28 2369.59 3301.46 2358.66C3305.24 2358.53 3309.07 2358.39 3312.9 2358.25C3305.72 2328.83 3301.83 2298.12 3301.83 2266.49C3301.83 2053.33 3474.61 1880.53 3687.73 1880.53C3900.86 1880.53 4073.63 2053.33 4073.63 2266.49C4073.63 2286.64 4072.08 2306.43 4069.1 2325.75C4070.21 2325.78 4071.22 2325.81 4072.38 2325.85C4159.86 2328.59 4455.1 2273.9 4455.1 2273.9L4553.52 2170L4579.35 1940.45L4501.61 1825.95Z" fill="#F2575D"/>
<path d="M1520.2 1721.07C1520.2 1721.13 1519.35 1721.19 1517.69 1721.26C1515.87 1721.31 1513.44 1721.39 1510.35 1721.47C1503.7 1721.59 1494.23 1721.75 1482.12 1721.96C1457.62 1722.47 1422.15 1722.23 1378.34 1723.76C1290.72 1725.62 1169.7 1730.85 1036.46 1742.01C903.178 1753.35 782.961 1768.31 696.373 1781.8C653.035 1788.31 618.13 1794.58 594.002 1798.85C582.105 1801.07 572.798 1802.8 566.259 1804.02C563.222 1804.59 560.835 1805.02 559.041 1805.36C557.413 1805.65 556.571 1805.77 556.559 1805.71C556.545 1805.65 557.361 1805.42 558.966 1805.01C560.745 1804.6 563.108 1804.04 566.116 1803.34C572.408 1801.9 581.735 1799.98 593.748 1797.53C617.811 1792.85 652.678 1786.21 695.988 1779.39C782.537 1765.27 902.8 1749.92 1036.17 1738.57C1169.5 1727.4 1290.62 1722.55 1378.29 1721.32C1409.82 1720.44 1437.03 1720.51 1458.94 1720.58C1467.5 1720.61 1475.24 1720.64 1482.12 1720.61C1494.23 1720.68 1503.7 1720.74 1510.36 1720.78C1513.44 1720.84 1515.87 1720.88 1517.69 1720.91C1519.35 1720.96 1520.2 1721.02 1520.2 1721.07Z" fill="#17282F"/>
<path d="M400.168 2310.08C400.168 2310.08 348.512 2137.87 322.685 2135.71C296.856 2133.56 206.461 2124.95 197.852 2135.71C189.242 2146.48 197.852 2267.03 197.852 2267.03L400.168 2310.08Z" fill="#17282F"/>
<path d="M615.401 2025.93C615.401 2026.17 611.694 2026.4 604.994 2026.6C597.675 2026.75 588.124 2026.93 576.614 2027.15C552.654 2027.46 519.553 2027.66 482.993 2027.66C473.852 2027.64 464.933 2027.64 456.301 2027.62C452.01 2027.62 447.771 2027.66 443.445 2027.28C439.21 2026.68 435.057 2025.86 431.267 2024.3C415.726 2018.54 405.901 2005.73 401.99 1994.26C399.996 1988.45 399.191 1982.89 399.243 1978.04C399.256 1973.25 399.411 1969.17 399.496 1965.81C399.704 1959.11 399.929 1955.41 400.17 1955.41C400.405 1955.41 400.633 1959.11 400.84 1965.81C401.355 1972.47 400.038 1982.45 404.283 1993.43C408.294 2004.23 417.771 2016.1 432.38 2021.32C435.942 2022.75 439.836 2023.46 443.797 2024.01C447.737 2024.32 451.976 2024.27 456.301 2024.24C464.933 2024.23 473.852 2024.22 482.993 2024.2C519.553 2024.2 552.654 2024.4 576.614 2024.72C588.124 2024.93 597.678 2025.12 604.994 2025.26C611.694 2025.47 615.401 2025.69 615.401 2025.93Z" fill="#17282F"/>
<path d="M1619.45 1623.6C1619.45 1623.6 1934.6 1421.07 2069.48 1363.67C2204.36 1306.27 2332.06 1281.87 2413.85 1273.26C2495.64 1264.65 2619.03 1265.5 2693.65 1264.36C2768.27 1263.22 3013.63 1280.44 3099.72 1291.92C3185.81 1303.4 3285.2 1314.88 3405.54 1370.84C3525.88 1426.82 3723.89 1558.84 3723.89 1571.76C3723.89 1584.67 3713.85 1578.94 3713.85 1578.94L1619.45 1623.6Z" fill="#33535F"/>
<path d="M2629.28 1264.36L2527.17 1604.24L2692.08 1600.72L2733.23 1264.36H2629.28Z" fill="#17282F"/>
<path d="M2421.43 1830.7C2395.33 1830.7 2374.18 1809.54 2374.18 1783.44C2374.18 1757.34 2395.33 1736.18 2421.43 1736.18C2447.53 1736.18 2468.68 1757.34 2468.68 1783.44C2468.68 1809.54 2447.53 1830.7 2421.43 1830.7Z" fill="#CC4341"/>
<path d="M2504.01 1805.97H2335.53C2323.99 1805.97 2314.63 1796.61 2314.63 1785.07V1783.13C2314.63 1771.59 2323.99 1762.23 2335.53 1762.23H2504.01C2515.55 1762.23 2524.9 1771.59 2524.9 1783.13V1785.07C2524.9 1796.61 2515.55 1805.97 2504.01 1805.97Z" fill="#F2575D"/>
<path d="M2504.01 1805.97C2504 1805.79 2505.68 1805.84 2508.68 1805.07C2511.6 1804.26 2516.08 1802.43 2519.7 1797.83C2521.47 1795.55 2522.95 1792.62 2523.65 1789.2C2524.17 1785.81 2524.29 1781.74 2523.22 1777.9C2521.25 1770.09 2512.93 1762.63 2502.44 1763.46C2459.38 1763.58 2400.54 1763.76 2335.54 1763.96C2328 1763.88 2320.87 1768.66 2317.99 1775.39C2316.48 1778.77 2316.16 1782.31 2316.4 1786.16C2316.54 1789.75 2317.83 1793.23 2319.84 1796.12C2323.95 1802.09 2330.96 1804.89 2338.15 1804.32C2345.54 1804.34 2352.78 1804.36 2359.85 1804.38C2387.99 1804.52 2413.4 1804.64 2434.88 1804.75C2455.95 1804.98 2473.12 1805.16 2485.46 1805.3C2491.16 1805.43 2495.73 1805.54 2499.21 1805.62C2502.36 1805.73 2504.01 1805.85 2504.01 1805.97C2504.01 1806.09 2502.36 1806.21 2499.21 1806.32C2495.73 1806.4 2491.16 1806.51 2485.46 1806.64C2473.12 1806.78 2455.95 1806.96 2434.88 1807.19C2413.4 1807.3 2387.99 1807.42 2359.85 1807.56C2352.78 1807.58 2345.54 1807.6 2338.15 1807.62C2334.6 1807.76 2330.18 1807.44 2326.52 1805.76C2322.79 1804.12 2319.46 1801.47 2317.07 1798.07C2314.69 1794.68 2313.18 1790.58 2312.99 1786.35C2312.72 1782.44 2313.06 1777.9 2314.85 1774C2318.23 1766.06 2326.64 1760.41 2335.54 1760.51C2400.54 1760.71 2459.38 1760.89 2502.44 1761.01C2507.91 1760.75 2513.47 1762.51 2517.38 1765.69C2521.38 1768.81 2524 1773.09 2525.08 1777.38C2526.16 1781.75 2525.93 1785.81 2525.26 1789.53C2524.4 1793.22 2522.71 1796.32 2520.74 1798.68C2516.71 1803.45 2511.9 1805.13 2508.84 1805.75C2505.68 1806.32 2504.01 1805.97 2504.01 1805.97Z" fill="#17282F"/>
<path d="M3340.92 1831.19C3314.82 1831.19 3293.67 1810.03 3293.67 1783.93C3293.67 1757.83 3314.82 1736.66 3340.92 1736.66C3367.02 1736.66 3388.17 1757.83 3388.17 1783.93C3388.17 1810.03 3367.02 1831.19 3340.92 1831.19Z" fill="#CC4341"/>
<path d="M3423.5 1806.46H3255.02C3243.48 1806.46 3234.12 1797.1 3234.12 1785.56V1783.62C3234.12 1772.08 3243.48 1762.72 3255.02 1762.72H3423.5C3435.04 1762.72 3444.39 1772.08 3444.39 1783.62V1785.56C3444.39 1797.1 3435.04 1806.46 3423.5 1806.46Z" fill="#F2575D"/>
<path d="M3423.5 1806.46C3423.49 1806.28 3425.17 1806.33 3428.17 1805.56C3431.09 1804.75 3435.57 1802.92 3439.18 1798.32C3440.96 1796.04 3442.44 1793.11 3443.14 1789.69C3443.66 1786.3 3443.78 1782.23 3442.71 1778.38C3440.73 1770.58 3432.42 1763.12 3421.93 1763.94C3378.87 1764.07 3320.03 1764.25 3255.03 1764.45C3247.49 1764.37 3240.37 1769.15 3237.48 1775.88C3235.96 1779.26 3235.66 1782.8 3235.89 1786.65C3236.04 1790.24 3237.32 1793.72 3239.32 1796.61C3243.45 1802.58 3250.45 1805.37 3257.64 1804.81C3265.03 1804.83 3272.27 1804.85 3279.34 1804.87C3307.49 1805.01 3332.89 1805.13 3354.37 1805.24C3375.43 1805.47 3392.62 1805.65 3404.95 1805.79C3410.65 1805.92 3415.22 1806.03 3418.71 1806.11C3421.85 1806.23 3423.5 1806.34 3423.5 1806.46C3423.5 1806.58 3421.85 1806.7 3418.71 1806.81C3415.22 1806.89 3410.65 1806.99 3404.95 1807.13C3392.62 1807.27 3375.43 1807.45 3354.37 1807.68C3332.89 1807.78 3307.49 1807.91 3279.34 1808.05C3272.27 1808.07 3265.03 1808.09 3257.64 1808.11C3254.09 1808.25 3249.67 1807.93 3246.01 1806.25C3242.28 1804.61 3238.96 1801.96 3236.57 1798.56C3234.19 1795.17 3232.67 1791.07 3232.48 1786.84C3232.21 1782.93 3232.55 1778.39 3234.34 1774.49C3237.72 1766.55 3246.14 1760.9 3255.03 1761C3320.03 1761.2 3378.87 1761.37 3421.93 1761.5C3427.4 1761.24 3432.95 1763 3436.87 1766.18C3440.87 1769.3 3443.49 1773.58 3444.57 1777.87C3445.65 1782.24 3445.41 1786.3 3444.75 1790.02C3443.9 1793.71 3442.2 1796.81 3440.22 1799.17C3436.19 1803.94 3431.4 1805.62 3428.33 1806.24C3425.17 1806.81 3423.5 1806.46 3423.5 1806.46Z" fill="#17282F"/>
<path d="M4260.78 1700.2C4260.78 1700.2 4258.38 1700.33 4253.71 1700.39C4248.95 1700.44 4242.01 1700.51 4232.93 1700.6C4214.6 1700.7 4187.7 1700.85 4153.06 1701.04C4083.62 1701.49 3983.28 1702.12 3859.31 1702.91C3611.21 1705.11 3268.6 1708.16 2890.19 1711.53C2511.62 1715.1 2168.94 1718.01 1920.89 1719.15C1796.91 1719.47 1696.58 1719.73 1627.15 1719.91C1592.52 1719.82 1565.62 1719.76 1547.29 1719.71C1538.21 1719.65 1531.27 1719.6 1526.52 1719.57C1521.84 1719.52 1519.44 1719.4 1519.44 1719.4C1519.44 1719.4 1521.84 1719.29 1526.52 1719.22C1531.27 1719.17 1538.21 1719.1 1547.29 1719.01C1565.62 1718.91 1592.52 1718.76 1627.14 1718.56C1696.57 1718.13 1796.91 1717.49 1920.88 1716.71C2168.97 1714.5 2511.62 1711.45 2890.16 1708.08C3268.6 1704.52 3611.25 1701.59 3859.3 1700.46C3983.28 1700.14 4083.62 1699.88 4153.06 1699.7C4187.69 1699.79 4214.6 1699.86 4232.93 1699.9C4242.01 1699.96 4248.95 1700.01 4253.71 1700.04C4258.38 1700.09 4260.78 1700.2 4260.78 1700.2Z" fill="#17282F"/>
<path d="M4385.99 1691.7C4385.89 1691.74 4385.21 1690.58 4383.96 1688.36C4382.68 1686.14 4380.77 1682.89 4378.2 1678.79C4373 1670.62 4364.99 1659.04 4353.32 1646.25C4341.68 1633.5 4326.29 1619.54 4306.82 1607.61C4302.01 1604.57 4296.7 1602.05 4291.5 1599.14C4286.05 1596.74 4280.51 1594.17 4274.74 1591.93C4263.1 1587.77 4250.65 1584.22 4237.83 1580.86C4186.58 1567.25 4139.57 1557.28 4105.57 1550.1C4088.89 1546.65 4075.22 1543.83 4065.24 1541.77C4060.78 1540.82 4057.16 1540.05 4054.29 1539.43C4051.79 1538.87 4050.49 1538.53 4050.51 1538.41C4050.52 1538.29 4051.87 1538.41 4054.42 1538.75C4057.32 1539.2 4060.98 1539.76 4065.49 1540.45C4075.09 1542.02 4088.96 1544.45 4106.04 1547.71C4140.2 1554.29 4187.34 1563.89 4238.72 1577.52C4251.56 1580.9 4264.03 1584.46 4275.94 1588.77C4281.81 1591.07 4287.43 1593.71 4292.97 1596.19C4298.25 1599.18 4303.61 1601.77 4308.48 1604.9C4328.18 1617.17 4343.61 1631.53 4355.14 1644.62C4366.7 1657.76 4374.47 1669.65 4379.35 1678.1C4381.76 1682.34 4383.49 1685.71 4384.58 1688.04C4385.64 1690.38 4386.11 1691.65 4385.99 1691.7Z" fill="#17282F"/>
<path d="M3351.53 1321.52C3351.53 1321.52 3352.98 1323.7 3355.66 1328.04C3358.37 1332.47 3362.32 1338.94 3367.51 1347.41C3377.89 1364.53 3393.13 1389.66 3412.75 1422.02C3432.35 1454.47 3456.32 1494.15 3484.14 1540.2C3497.98 1563.28 3513.1 1587.82 3528.51 1614.1C3536.24 1627.2 3544.28 1640.93 3549.59 1656.31C3554.92 1671.67 3558.06 1688.21 3557.81 1705.41L3557.39 1708.75C3557.15 1709.82 3556.79 1710.83 3556.5 1711.89C3555.87 1713.97 3555.29 1716.08 3554.4 1718.05C3552.86 1722.1 3551.11 1726.08 3549.17 1729.98C3545.43 1737.85 3541.22 1745.57 3536.87 1753.31C3528.11 1768.76 3518.6 1784.21 3508.71 1799.84C3488.83 1831.06 3467.31 1862.96 3444.64 1895.72C3399.25 1961.21 3349.36 2030.19 3295.96 2102.11C3282.52 2120.02 3268.91 2138.15 3255.14 2156.5C3241.25 2174.69 3228.1 2193.92 3211.77 2211.08C3195.47 2228.26 3174.73 2241.48 3152.32 2250.17C3146.75 2252.46 3141.1 2254.57 3135.34 2256.4C3129.66 2258.43 3123.83 2260.06 3118.01 2261.74C3112.22 2263.53 3106.31 2264.9 3100.42 2266.41C3094.59 2268.1 3088.48 2268.99 3082.4 2269.98C3058.09 2273.11 3033.59 2274.9 3008.85 2276.56C2984.11 2278.29 2959.17 2279.62 2934.04 2281.02C2883.78 2283.69 2832.76 2285.99 2781.13 2288.18C2574.54 2296.79 2377.67 2302.89 2198.62 2308.27C2019.56 2313.15 1858.32 2317.54 1722.88 2321.23C1587.49 2324.35 1477.92 2326.88 1402.12 2328.63C1364.29 2329.33 1334.91 2329.86 1314.9 2330.23C1304.98 2330.34 1297.4 2330.43 1292.21 2330.48C1287.1 2330.49 1284.49 2330.38 1284.49 2330.38C1293.98 2330.13 1452.81 2325.93 1722.82 2318.79C1858.24 2314.88 2019.48 2310.24 2198.52 2305.09C2377.56 2299.54 2574.43 2293.34 2780.99 2284.74C2832.61 2282.54 2883.61 2280.24 2933.86 2277.59C2958.97 2276.19 2983.91 2274.87 3008.61 2273.15C3033.31 2271.51 3057.87 2269.72 3081.89 2266.64C3087.83 2265.68 3093.76 2264.83 3099.6 2263.13C3105.46 2261.64 3111.35 2260.27 3117.09 2258.51C3122.87 2256.84 3128.65 2255.23 3134.28 2253.22C3139.98 2251.41 3145.56 2249.33 3151.07 2247.07C3173.21 2238.49 3193.38 2225.64 3209.4 2208.79C3225.45 2191.96 3238.63 2172.76 3252.56 2154.54C3266.34 2136.22 3279.96 2118.1 3293.41 2100.21C3346.86 2028.37 3396.83 1959.47 3442.29 1894.09C3465 1861.39 3486.56 1829.54 3506.47 1798.42C3516.37 1782.82 3525.89 1767.43 3534.64 1752.05C3538.99 1744.35 3543.2 1736.67 3546.92 1728.9C3550.67 1721.21 3554.25 1713.19 3555.37 1705.26C3555.66 1688.64 3552.61 1672.12 3547.4 1657.08C3542.21 1641.92 3534.32 1628.36 3526.61 1615.2C3511.22 1588.79 3496.22 1564.28 3482.46 1541.15C3454.84 1494.99 3431.05 1455.23 3411.59 1422.7C3392.21 1390.2 3377.16 1364.96 3366.91 1347.76C3361.86 1339.22 3358 1332.69 3355.37 1328.23C3352.78 1323.82 3351.53 1321.52 3351.53 1321.52Z" fill="#17282F"/>
<path d="M3765.03 1568.45C3765.03 1568.45 3764.75 1567.82 3764.28 1566.59C3763.84 1565.36 3762.69 1563.69 3761.12 1561.63C3757.93 1557.47 3752.36 1551.94 3744.61 1545.25C3729.1 1531.86 3704.84 1513.73 3672.47 1492.09C3640.08 1470.47 3599.58 1445.28 3551.34 1418.2C3503.07 1391.23 3447.1 1362.07 3382.94 1335.06C3374.99 1331.5 3366.62 1328.8 3358.3 1325.64C3349.9 1322.74 3341.64 1319.11 3332.83 1316.8C3315.37 1311.65 3297.61 1306.1 3279.05 1302.01C3242.23 1292.68 3203.23 1285.99 3162.86 1279.38C3081.93 1267.04 2994.73 1258.98 2902.86 1253.19C2810.95 1247.58 2714.31 1244.53 2614.12 1243.52C2514.04 1242.26 2410.03 1248.44 2305.74 1268.56C2201.49 1288.83 2102.54 1322.4 2012.42 1365.98C1922.42 1409.99 1839.99 1460.86 1762.24 1510.12C1723.4 1534.85 1685.85 1559.5 1649.34 1583.4C1631.08 1595.35 1613.08 1607.12 1595.14 1618.4C1590.68 1621.24 1586.08 1623.91 1581.78 1626.85C1577.55 1629.86 1573.35 1632.86 1569.15 1635.84C1565.38 1639.35 1561.62 1642.83 1557.87 1646.31C1554.39 1650.03 1551.24 1654.06 1547.93 1657.89C1535.53 1673.99 1526.56 1692.09 1519.68 1710.47C1512.71 1728.87 1508.29 1747.77 1504.83 1766.39C1501.32 1785.03 1499.21 1803.53 1497.75 1821.66C1496.23 1839.8 1495.47 1857.6 1495 1875C1494.19 1909.75 1496.15 1942.92 1497.55 1974.25C1499.08 2005.59 1500.82 2035.13 1502.5 2062.75C1506.14 2117.97 1509.27 2165.52 1511.84 2204.42C1514.57 2243.24 1516.69 2273.4 1518.14 2293.92C1518.85 2304.11 1519.38 2311.89 1519.76 2317.2C1520.1 2322.45 1520.2 2325.14 1520.2 2325.14C1520.2 2325.14 1519.87 2322.47 1519.4 2317.23C1518.95 2311.92 1518.3 2304.15 1517.45 2293.98C1515.85 2273.46 1513.51 2243.32 1510.49 2204.52C1507.59 2165.66 1504.16 2118.11 1500.58 2062.87C1498.8 2035.25 1496.97 2005.71 1495.35 1974.36C1493.88 1943.01 1491.83 1909.87 1492.56 1874.94C1492.99 1857.52 1493.72 1839.67 1495.21 1821.46C1496.63 1803.26 1498.72 1784.67 1502.21 1765.92C1505.66 1747.18 1510.07 1728.12 1517.09 1709.51C1524 1690.92 1533.06 1672.55 1545.68 1656.14C1549.04 1652.22 1552.24 1648.12 1555.8 1644.3C1559.62 1640.74 1563.46 1637.18 1567.31 1633.59C1571.6 1630.53 1575.9 1627.46 1580.22 1624.37C1584.59 1621.39 1589.11 1618.75 1593.57 1615.9C1611.45 1604.62 1629.43 1592.83 1647.68 1580.86C1684.16 1556.92 1721.69 1532.22 1760.53 1507.44C1838.29 1458.08 1920.74 1407.1 2010.94 1362.94C2101.3 1319.19 2200.54 1285.5 2305.08 1265.17C2409.66 1244.99 2513.92 1238.83 2614.16 1240.14C2714.4 1241.2 2811.09 1244.32 2903.05 1250.01C2994.99 1255.89 3082.27 1264.07 3163.3 1276.55C3203.73 1283.23 3242.78 1290 3279.69 1299.43C3298.28 1303.56 3316.1 1309.16 3333.6 1314.36C3342.44 1316.7 3350.74 1320.37 3359.18 1323.3C3367.52 1326.49 3375.94 1329.23 3383.89 1332.8C3448.12 1360.01 3504.05 1389.36 3552.29 1416.52C3600.48 1443.78 3640.91 1469.16 3673.21 1490.97C3705.5 1512.81 3729.67 1531.13 3745.06 1544.73C3752.76 1551.52 3758.27 1557.15 3761.4 1561.41C3764.65 1565.63 3765.03 1568.45 3765.03 1568.45Z" fill="#17282F"/>
<path d="M2555.34 2295.12C2555.28 2295.12 2555.17 2294.19 2555.03 2292.37C2554.89 2290.4 2554.71 2287.73 2554.49 2284.31C2554.05 2277.22 2553.56 2266.76 2552.99 2253.28C2551.98 2226.32 2550.72 2187.29 2550.52 2139.04C2550.53 2042.66 2551.71 1908.86 2572.96 1762.93C2574.36 1753.82 2575.51 1744.73 2577.08 1735.77C2578.81 1726.84 2580.52 1717.95 2582.22 1709.14C2583.98 1700.34 2585.48 1691.55 2587.42 1682.93C2589.6 1674.36 2591.75 1665.85 2593.89 1657.43C2596.14 1649.03 2597.91 1640.58 2600.5 1632.45C2603.23 1624.35 2605.94 1616.33 2608.62 1608.4C2611.32 1600.49 2613.89 1592.55 2616.64 1584.93C2619.28 1577.24 2622.22 1569.76 2624.28 1562.07C2633.54 1531.65 2639.98 1502.02 2645.35 1474.22C2650.81 1446.42 2655.01 1420.35 2658.59 1396.51C2665.69 1348.83 2670.19 1310.06 2673.19 1283.26C2674.61 1270 2675.73 1259.63 2676.51 1252.39C2676.88 1248.99 2677.17 1246.33 2677.39 1244.36C2677.6 1242.55 2677.73 1241.62 2677.79 1241.63C2677.85 1241.64 2677.83 1242.57 2677.74 1244.39C2677.61 1246.37 2677.43 1249.03 2677.2 1252.45C2676.67 1259.53 2675.8 1269.97 2674.52 1283.4C2671.94 1310.25 2667.81 1349.08 2661.01 1396.87C2657.57 1420.75 2653.51 1446.87 2648.16 1474.75C2642.91 1502.65 2636.56 1532.37 2627.33 1563C2625.28 1570.73 2622.32 1578.3 2619.67 1586.06C2616.89 1593.81 2614.41 1601.6 2611.72 1609.49C2609.08 1617.38 2606.4 1625.35 2603.71 1633.4C2601.14 1641.49 2599.39 1649.92 2597.16 1658.28C2595.04 1666.67 2592.9 1675.14 2590.75 1683.68C2588.83 1692.27 2587.34 1701.03 2585.59 1709.81C2583.9 1718.59 2582.19 1727.44 2580.48 1736.35C2578.91 1745.28 2577.77 1754.36 2576.37 1763.44C2555.17 1909.03 2553.59 2042.73 2552.96 2139.04C2552.85 2187.25 2553.74 2226.27 2554.33 2253.23C2554.69 2266.58 2554.99 2277 2555.19 2284.28C2555.26 2287.7 2555.33 2290.38 2555.38 2292.36C2555.41 2294.18 2555.4 2295.11 2555.34 2295.12Z" fill="#17282F"/>
<path d="M3301.83 1331C3301.83 1331 3381.39 1457.82 3378.38 1474.33C3375.38 1490.84 3372.38 1585.42 3372.38 1585.42H3509.25L3372.58 1356.39" fill="#17282F"/>
<path d="M2677.79 1275.19C2678.73 1275.38 2664.74 1348.8 2646.56 1439.14C2628.37 1529.53 2612.87 1602.62 2611.94 1602.43C2611 1602.25 2624.99 1528.85 2643.18 1438.47C2661.36 1348.12 2676.86 1275.01 2677.79 1275.19Z" fill="#33535F"/>
<path d="M1985.2 1601.87C1985.2 1601.87 1964.79 1539.13 1924.34 1518.9C1915.02 1514.25 1902.95 1512.83 1891.67 1512.83C1873.95 1512.83 1858.2 1516.34 1858.2 1516.34C1858.2 1516.34 1978.53 1414.75 2263.58 1337.48C2380.94 1305.67 2500.77 1301.59 2554.5 1301.59C2573.04 1301.59 2583.7 1302.07 2583.7 1302.07L2569.64 1356.96C2569.64 1356.96 2561.11 1355.6 2549 1355.6C2525.99 1355.6 2490.06 1360.49 2475.15 1388.83C2452.38 1432.1 2507.02 1534.55 2507.02 1534.55C2507.02 1534.55 2495.63 1589.2 2486.52 1589.2C2477.42 1589.2 1985.2 1601.87 1985.2 1601.87Z" fill="#6A858C"/>
<path d="M3313.15 1578.44C3313.06 1578.44 3312.98 1578.41 3312.9 1578.34C3311.35 1576.91 3244.84 1576.43 3156.87 1576.43C2980.91 1576.43 2719.04 1578.34 2719.04 1578.34C2719.04 1576.91 2756.05 1309.46 2759.33 1309.46C2759.33 1309.46 2759.35 1309.46 2759.35 1309.46C2762.45 1310.9 3078.77 1302.31 3277.24 1355.23L3339.26 1458.2C3339.26 1458.2 3318.28 1578.44 3313.15 1578.44Z" fill="#6A858C"/>
<path d="M592.736 2257.17C590.08 2441.45 737.298 2593.01 921.556 2595.67C1105.82 2598.32 1257.35 2451.08 1260.01 2266.8C1262.67 2082.51 1115.44 1930.96 931.186 1928.3C746.921 1925.64 595.395 2072.88 592.736 2257.17Z" fill="#17282F"/>
<path d="M592.795 2256.31L592.736 2257.17C590.08 2441.45 737.298 2593.01 921.556 2595.67C1105.82 2598.32 1257.35 2451.08 1260.01 2266.8L1259.98 2265.94L592.795 2256.31Z" fill="#17282F"/>
<path d="M692.138 2258.61C690.276 2387.99 793.632 2494.39 922.994 2496.25C1052.36 2498.12 1158.74 2394.75 1160.61 2265.36C1162.47 2135.98 1059.12 2029.58 929.748 2027.72C800.385 2025.85 694.007 2129.22 692.138 2258.61Z" fill="#FAFAF9"/>
<path d="M929.747 2027.72C800.385 2025.85 694.007 2129.22 692.138 2258.61L1160.61 2265.36C1162.47 2135.98 1059.12 2029.58 929.747 2027.72Z" fill="#DADBD8"/>
<path d="M783.69 2259.93C782.55 2338.74 845.512 2403.55 924.313 2404.69C1003.11 2405.83 1067.92 2342.85 1069.06 2264.04C1070.2 2185.23 1007.23 2120.42 928.428 2119.27C849.627 2118.14 784.823 2181.11 783.69 2259.93Z" fill="#17282F"/>
<path d="M3340.96 2260.88C3338.21 2451.95 3490.84 2609.07 3681.88 2611.83C3872.92 2614.59 4030.03 2461.93 4032.78 2270.86C4035.53 2079.79 3882.9 1922.66 3691.86 1919.91C3500.82 1917.15 3343.71 2069.81 3340.96 2260.88Z" fill="#17282F"/>
<path d="M3341.02 2259.99L3340.96 2260.88C3338.21 2451.95 3490.84 2609.07 3681.88 2611.83C3872.92 2614.59 4030.03 2461.93 4032.78 2270.86L4032.74 2269.97L3341.02 2259.99Z" fill="#17282F"/>
<path d="M3444.02 2262.36C3442.09 2396.51 3549.24 2506.82 3683.36 2508.76C3817.49 2510.7 3927.78 2403.52 3929.72 2269.37C3931.65 2135.23 3824.49 2024.91 3690.37 2022.98C3556.24 2021.04 3445.96 2128.22 3444.02 2262.36Z" fill="#FAFAF9"/>
<path d="M3690.37 2022.98C3556.25 2021.04 3445.96 2128.22 3444.02 2262.37L3929.72 2269.37C3931.65 2135.23 3824.49 2024.91 3690.37 2022.98Z" fill="#DADBD8"/>
<path d="M3538.93 2263.73C3537.76 2345.45 3603.04 2412.65 3684.73 2413.82C3766.44 2415 3833.63 2349.72 3834.81 2268.01C3835.99 2186.29 3770.7 2119.09 3689 2117.91C3607.3 2116.73 3540.11 2182.02 3538.93 2263.73Z" fill="#17282F"/>
<path d="M4244.84 1691.71C4244.84 1691.71 4236.2 1705.55 4244.84 1714.2C4253.49 1722.85 4318.38 1816.29 4359.9 1818.89C4401.43 1821.48 4501.61 1818.89 4501.61 1818.89L4493.63 1691.71H4244.84Z" fill="white"/>
<path d="M4288.25 2238.48C4285.17 2238.48 4282.59 2238.36 4280.59 2238.1C4246.41 2233.69 4250.82 2211.64 4250.82 2211.64L4553.52 2170L4518.46 2207.01C4518.28 2207.04 4337.87 2238.48 4288.25 2238.48Z" fill="#CC4341"/>
<path d="M1367.48 2295.12C1373.4 2293.87 1433.27 2259.62 1513.64 2244.99C1515.09 2263.65 1516.3 2279.26 1517.26 2291.61C1424.34 2293.83 1367.48 2295.12 1367.48 2295.12ZM1517.97 2291.6C1517.1 2279.2 1516 2263.54 1514.68 2244.81C1535.41 2241.08 1557.49 2238.68 1580.34 2238.49C1641.77 2237.96 2127.14 2213.36 2551.2 2193.14C2551.71 2217.03 2552.39 2237.28 2552.98 2253.28C2553.14 2256.81 2553.28 2260.14 2553.42 2263.25C2196.24 2274.95 1747.54 2286.12 1517.97 2291.6Z" fill="#CC4341"/>
<path d="M1517.26 2291.61C1516.3 2279.26 1515.09 2263.65 1513.64 2244.99C1513.98 2244.93 1514.33 2244.87 1514.68 2244.81C1516 2263.54 1517.1 2279.2 1517.97 2291.6C1517.73 2291.6 1517.5 2291.61 1517.26 2291.61Z" fill="#0F191D"/>
<path d="M2554.6 2263.21C2554.52 2260.09 2554.42 2256.77 2554.33 2253.23C2553.98 2237.22 2553.52 2216.96 2553.24 2193.04C2850.55 2178.87 3117.36 2166.87 3186.19 2166.87C3198.04 2166.87 3204.02 2167.23 3203.28 2167.98C3192.08 2179.48 3151.69 2222.98 3070.38 2238.49C3033 2245.61 2818.98 2254.55 2554.6 2263.21Z" fill="#CC4341"/>
<path d="M2553.42 2263.25C2553.28 2260.14 2553.14 2256.81 2552.99 2253.28C2552.39 2237.28 2551.71 2217.03 2551.2 2193.14C2551.91 2193.11 2552.53 2193.07 2553.24 2193.04C2553.52 2216.96 2553.98 2237.22 2554.33 2253.23C2554.42 2256.77 2554.52 2260.09 2554.6 2263.21C2554.18 2263.23 2553.84 2263.24 2553.42 2263.25Z" fill="#0F191D"/>
<path d="M1810.48 1505.16L1882.35 1623.6H1619.45L1810.48 1505.16Z" fill="#17282F"/>
<path d="M1722.92 1580.81C1705.13 1597.57 1699.89 1625.84 1722.92 1643.63C1745.95 1661.43 1901.91 1662.48 1920.75 1643.63C1939.6 1624.79 1936.53 1588.14 1909.24 1557.79C1891.86 1538.45 1838.06 1516.96 1815.03 1519.05C1792.01 1521.15 1740.78 1564 1722.92 1580.81Z" fill="#F2575D"/>
<path d="M1722.92 1580.82C1722.88 1580.78 1723.21 1580.39 1723.91 1579.66C1724.76 1578.81 1725.8 1577.79 1727.06 1576.54C1729.89 1573.86 1734.1 1569.93 1739.71 1565.09C1751.02 1555.56 1767.3 1541.45 1790.15 1527.72C1795.9 1524.4 1802.07 1521 1809.23 1518.89C1816.56 1516.53 1824.46 1517.73 1832.14 1519.01C1847.61 1521.99 1863.43 1527.77 1879.3 1535.43C1887.19 1539.34 1895.11 1543.79 1902.52 1549.48C1910.04 1555.21 1915.99 1562.84 1921.25 1570.89C1926.43 1579.05 1930.56 1588.17 1932.8 1598C1934.97 1607.77 1935.19 1618.44 1931.9 1628.42C1930.39 1633.46 1927.65 1638.05 1924.4 1642.09C1923.52 1643.06 1922.72 1644.07 1921.78 1645.01C1920.69 1645.86 1919.61 1646.86 1918.42 1647.4C1916.11 1648.76 1913.72 1649.64 1911.32 1650.45C1901.71 1653.56 1892.03 1654.91 1882.53 1656.1C1863.51 1658.27 1845.09 1658.92 1827.56 1658.95C1810.02 1658.97 1793.36 1658.29 1777.81 1656.96C1762.28 1655.58 1747.8 1653.74 1734.89 1650.1C1731.66 1649.2 1728.56 1648.08 1725.63 1646.61C1722.61 1645.13 1720.33 1642.88 1718.08 1640.87C1713.74 1636.56 1710.61 1631.53 1708.82 1626.44C1705.13 1616.13 1706.94 1606.4 1709.59 1599.5C1712.36 1592.5 1715.96 1587.8 1718.6 1584.93C1719.83 1583.4 1721.04 1582.49 1721.74 1581.78C1722.48 1581.1 1722.88 1580.78 1722.92 1580.82C1723.04 1580.94 1721.56 1582.37 1719.13 1585.38C1716.69 1588.35 1713.34 1593.1 1710.85 1599.97C1708.46 1606.75 1706.97 1616.11 1710.63 1625.78C1714.26 1635.18 1722.58 1645.13 1735.56 1647.76C1748.19 1651.16 1762.61 1652.86 1778.04 1654.11C1793.51 1655.31 1810.09 1655.88 1827.54 1655.77C1844.98 1655.65 1863.33 1654.94 1882.13 1652.74C1891.49 1651.56 1901.11 1650.17 1910.23 1647.19C1912.48 1646.43 1914.74 1645.58 1916.69 1644.42C1917.78 1643.93 1918.51 1643.16 1919.39 1642.53C1920.2 1641.72 1920.96 1640.76 1921.75 1639.89C1924.7 1636.19 1927.24 1632.01 1928.62 1627.34C1931.67 1618.11 1931.51 1608.06 1929.45 1598.74C1927.31 1589.38 1923.38 1580.59 1918.39 1572.7C1913.3 1564.87 1907.58 1557.5 1900.5 1552.08C1893.4 1546.58 1885.63 1542.16 1877.88 1538.27C1862.32 1530.67 1846.68 1524.85 1831.6 1521.82C1824.11 1520.5 1816.56 1519.34 1809.95 1521.45C1803.2 1523.37 1797.06 1526.63 1791.36 1529.84C1768.64 1543.13 1752.1 1556.94 1740.58 1566.13C1735.09 1570.72 1730.74 1574.37 1727.53 1577.06C1724.57 1579.59 1723.01 1580.91 1722.92 1580.82Z" fill="#17282F"/>
<path d="M157.149 1973.22L163.764 1955.41L166.555 1911.24C166.361 1922.02 166.591 1933.42 165.83 1945.8C165.476 1951.59 161.999 1961.35 157.418 1973.09C157.24 1973.18 157.149 1973.22 157.149 1973.22Z" fill="#A7A9A8"/>
<path d="M157.419 1973.09C161.999 1961.35 165.476 1951.59 165.831 1945.8C166.591 1933.42 166.361 1922.02 166.556 1911.24L166.568 1911.03C166.568 1911.03 211.389 1853.37 278.286 1825.95C345.18 1798.53 738.637 1709.81 1026.98 1681.45C1302.6 1654.35 1477.45 1644.83 1477.45 1644.83L1531.18 1657.38C1531.18 1657.38 1135.62 1714 842.483 1758.69C787.349 1765.48 737.742 1772.58 695.989 1779.39C652.679 1786.21 617.811 1792.85 593.748 1797.54C583.485 1799.62 575.183 1801.33 569.061 1802.68C568.864 1802.72 568.667 1802.75 568.47 1802.79C437.709 1827.1 167.151 1968 157.419 1973.09Z" fill="#CC4341"/>
<path d="M569.061 1802.68C575.183 1801.33 583.485 1799.62 593.748 1797.54C617.811 1792.85 652.679 1786.21 695.989 1779.39C737.742 1772.58 787.349 1765.48 842.483 1758.69C723.208 1776.86 620.879 1793.07 569.061 1802.68Z" fill="#0F191D"/>
<path d="M289.252 1831.66C259.721 1847.9 236.099 1873.63 225.237 1900.02C213.126 1929.44 215.72 1950.2 224.372 1951.93C233.022 1953.66 391.331 1961.44 419.011 1945.87C446.694 1930.3 556.558 1805.71 556.558 1805.71C556.558 1805.71 341.073 1803.19 289.252 1831.66Z" fill="white"/>
<path d="M4008.98 2038.84C4008.95 2038.73 4010.91 2038.18 4014.65 2037.25C4018.69 2036.28 4024.17 2034.97 4031.07 2033.32C4045.34 2029.98 4066.02 2025.32 4091.62 2019.74C4142.83 2008.56 4213.71 1993.79 4292.44 1979.68C4371.2 1965.61 4442.91 1955.24 4494.95 1948.98C4520.97 1945.84 4542.06 1943.54 4556.65 1942.22C4563.71 1941.59 4569.32 1941.09 4573.46 1940.73C4577.31 1940.43 4579.33 1940.33 4579.34 1940.45C4579.35 1940.56 4577.35 1940.9 4573.54 1941.42C4569.41 1941.95 4563.83 1942.66 4556.79 1943.55C4542.25 1945.29 4521.22 1947.96 4495.26 1951.4C4443.33 1958.28 4371.75 1969.02 4293.05 1983.09C4214.38 1997.18 4143.44 2011.56 4092.13 2022.12C4066.7 2027.36 4046.02 2031.61 4031.35 2034.64C4024.4 2036.02 4018.88 2037.11 4014.8 2037.93C4011.01 2038.64 4009 2038.96 4008.98 2038.84Z" fill="#17282F"/>
<path d="M4501.61 1825.95C4501.12 1825.95 4500.72 1818.42 4500.13 1806.27C4499.49 1793.02 4498.69 1776.76 4497.82 1758.78C4496.78 1740.81 4495.85 1724.56 4495.09 1711.32C4494.65 1705.27 4494.32 1700.36 4493.97 1696.99C4493.74 1693.6 4493.34 1691.8 4493.63 1691.7C4494.18 1691.52 4496.19 1698.98 4497.52 1711.1C4498.95 1723.22 4500.29 1740.03 4501.26 1758.61C4502.21 1777.18 4502.61 1794.01 4502.57 1806.21C4502.53 1818.41 4502.07 1825.95 4501.61 1825.95Z" fill="#17282F"/>
</svg>
