<svg width="932" height="533" viewBox="0 0 932 533" fill="none" xmlns="http://www.w3.org/2000/svg">
<g clip-path="url(#clip0_393_19)">
<path d="M503.763 414.043H593.422V407.087H503.763V414.043Z" fill="#E7E8E5"/>
<path d="M568.804 407.087V414.043H593.421V407.087H568.804Z" fill="#DADBD8"/>
<path d="M492.378 414.043C492.378 414.608 492.378 445.372 492.378 445.372H487.468V448.772H492.378V469.74H584.186V450.66H577.385V446.504H584.186V440.272H587.208V437.437H583.618V414.043H492.378Z" fill="#F3F2F1"/>
<path d="M559.807 414.133V469.391H584.187V450.312H577.385V446.504H584.187V440.27H587.208V437.088H583.619V414.043L559.807 414.133Z" fill="#DADBD8"/>
<path d="M561.543 448.322C561.543 448.513 544.931 448.668 524.443 448.668C503.947 448.668 487.339 448.513 487.339 448.322C487.339 448.129 503.947 447.975 524.443 447.975C544.931 447.975 561.543 448.129 561.543 448.322Z" fill="#DADBD8"/>
<path d="M561.543 445.14C561.543 445.331 544.931 445.486 524.443 445.486C503.947 445.486 487.339 445.331 487.339 445.14C487.339 444.946 503.947 444.792 524.443 444.792C544.931 444.792 561.543 444.946 561.543 445.14Z" fill="#DADBD8"/>
<path d="M566.309 436.574C566.309 436.765 549.694 436.921 529.208 436.921C508.712 436.921 492.104 436.765 492.104 436.574C492.104 436.382 508.712 436.226 529.208 436.226C549.694 436.226 566.309 436.382 566.309 436.574Z" fill="#DADBD8"/>
<path d="M566.767 459.913C566.767 460.105 550.154 460.261 529.667 460.261C509.171 460.261 492.562 460.105 492.562 459.913C492.562 459.721 509.171 459.566 529.667 459.566C550.154 459.566 566.767 459.721 566.767 459.913Z" fill="#DADBD8"/>
<path d="M502.793 476.377C502.793 476.944 502.793 507.707 502.793 507.707H497.881V511.106H502.793V532.074H594.6V512.994H587.8V508.84H594.6V502.605H597.622V499.772H594.033V476.377H502.793Z" fill="#F3F2F1"/>
<path d="M570.22 476.469V531.725H594.6V512.646H587.8V508.84L594.6 508.969V502.734L597.681 502.74L597.622 499.517L594.033 499.424V476.377L570.22 476.469Z" fill="#DADBD8"/>
<path d="M571.957 510.658C571.957 510.848 555.345 511.004 534.857 511.004C514.361 511.004 497.753 510.848 497.753 510.658C497.753 510.465 514.361 510.311 534.857 510.311C555.345 510.311 571.957 510.465 571.957 510.658Z" fill="#DADBD8"/>
<path d="M571.957 507.474C571.957 507.667 555.345 507.822 534.857 507.822C514.361 507.822 497.753 507.667 497.753 507.474C497.753 507.282 514.361 507.128 534.857 507.128C555.345 507.128 571.957 507.282 571.957 507.474Z" fill="#DADBD8"/>
<path d="M576.723 498.909C576.723 499.101 560.111 499.257 539.623 499.257C519.128 499.257 502.519 499.101 502.519 498.909C502.519 498.717 519.128 498.562 539.623 498.562C560.111 498.562 576.723 498.717 576.723 498.909Z" fill="#DADBD8"/>
<path d="M577.181 522.249C577.181 522.44 560.569 522.598 540.081 522.598C519.585 522.598 502.976 522.44 502.976 522.249C502.976 522.058 519.585 521.901 540.081 521.901C560.569 521.901 577.181 522.058 577.181 522.249Z" fill="#DADBD8"/>
<path d="M501.462 351.387C501.462 351.955 501.462 382.717 501.462 382.717H496.55V386.117H501.462V407.086H593.267V388.006H586.468V383.85H593.267V377.617H596.291V374.783H592.7V351.387H501.462Z" fill="#F3F2F1"/>
<path d="M568.888 351.48V406.737H593.266V387.659H586.468V383.851L593.266 383.98V377.747L596.349 377.751L596.29 374.53L592.7 374.436V351.388L568.888 351.48Z" fill="#DADBD8"/>
<path d="M570.626 385.668C570.626 385.86 554.012 386.016 533.524 386.016C513.028 386.016 496.419 385.86 496.419 385.668C496.419 385.477 513.028 385.321 533.524 385.321C554.012 385.321 570.626 385.477 570.626 385.668Z" fill="#DADBD8"/>
<path d="M570.626 382.486C570.626 382.677 554.012 382.833 533.524 382.833C513.028 382.833 496.419 382.677 496.419 382.486C496.419 382.294 513.028 382.138 533.524 382.138C554.012 382.138 570.626 382.294 570.626 382.486Z" fill="#DADBD8"/>
<path d="M575.391 373.922C575.391 374.112 558.778 374.27 538.291 374.27C517.795 374.27 501.186 374.112 501.186 373.922C501.186 373.73 517.795 373.575 538.291 373.575C558.778 373.575 575.391 373.73 575.391 373.922Z" fill="#DADBD8"/>
<path d="M575.849 397.261C575.849 397.452 559.236 397.606 538.748 397.606C518.253 397.606 501.643 397.452 501.643 397.261C501.643 397.068 518.253 396.913 538.748 396.913C559.236 396.913 575.849 397.068 575.849 397.261Z" fill="#DADBD8"/>
<path d="M497.753 476.377H587.413V469.422H497.753V476.377Z" fill="#E7E8E5"/>
<path d="M562.793 469.423V476.379H587.413V469.423H562.793Z" fill="#DADBD8"/>
<path d="M661.8 517.87H841.32V227.706H661.8V517.87Z" fill="#DADBD8"/>
<path d="M850.77 305.085H781.258V223.672H850.77V305.085Z" fill="#E7E8E5"/>
<path d="M827.084 141.782L827.115 153.637L822.708 155.583L828.497 155.569L829.62 163.005L724.88 174.855L714.361 158.478L827.084 141.782Z" fill="#F3F2F1"/>
<path d="M843.416 166.829L842.02 159.941L829.053 161.529L768.427 168.954L770.723 176.465L843.416 166.829Z" fill="#DADBD8"/>
<path d="M727.102 181.485L786.086 174.699C783.188 165.597 774.209 159.857 764.732 161.047L718.242 166.879L727.102 181.485Z" fill="#DADBD8"/>
<path d="M647.628 167.45L647.731 207.344L852.957 206.813C852.931 196.373 844.445 187.932 834.007 187.96L741.653 188.198L717.807 155.854L658.472 156.465C652.453 156.526 647.612 161.432 647.628 167.45Z" fill="#E7E8E5"/>
<path d="M648.342 209.847V225.399C648.342 229.017 651.274 231.947 654.89 231.947H739.563H850.767V209.847H648.342Z" fill="#E7E8E5"/>
<path d="M850.77 396.321H648.564V316.515C648.564 310.203 653.683 305.085 659.995 305.085H850.77V396.321Z" fill="#E7E8E5"/>
<path d="M850.77 431.34H648.564V407.246C648.564 402.27 652.599 398.236 657.575 398.236H844.463C847.946 398.236 850.77 401.06 850.77 404.543V431.34Z" fill="#E7E8E5"/>
<path d="M774.71 413.571H723.774C719.97 413.571 716.884 410.487 716.884 406.681V398.235H781.601V406.681C781.601 410.487 778.517 413.571 774.71 413.571Z" fill="#DADBD8"/>
<path d="M850.77 499.569H648.564V442.156C648.564 436.908 652.818 432.656 658.066 432.656H841.268C846.516 432.656 850.77 436.908 850.77 442.156V499.569Z" fill="#E7E8E5"/>
<path d="M774.71 447.99H723.774C719.97 447.99 716.884 444.905 716.884 441.101V432.655H781.601V441.101C781.601 444.905 778.517 447.99 774.71 447.99Z" fill="#DADBD8"/>
<path d="M648.564 532.76H850.77V502.981H648.564V532.76Z" fill="#E7E8E5"/>
<path d="M781.257 287.909H701.902V282.933H781.257V287.909Z" fill="#FAFAF9"/>
<path d="M781.257 282.934H674.453V264.379H781.257V282.934Z" fill="#F3F2F1"/>
<path d="M739.562 258.004V209.848H850.766V249.4C850.766 254.152 846.916 258.004 842.162 258.004H739.562Z" fill="#F3F2F1"/>
<path d="M806.33 247.056H747.322V216.348H806.33V247.056Z" fill="white"/>
<path d="M819.326 219.66H816.014V216.348H819.326V219.66Z" fill="#DADBD8"/>
<path d="M825.729 219.66H822.417V216.348H825.729V219.66Z" fill="#DADBD8"/>
<path d="M832.135 219.66H828.821V216.348H832.135V219.66Z" fill="#DADBD8"/>
<path d="M845.448 219.66H836.499V216.348H845.448V219.66Z" fill="#DADBD8"/>
<path d="M845.448 225.328H836.499V222.016H845.448V225.328Z" fill="#DADBD8"/>
<path d="M845.448 231.019H836.499V227.707H845.448V231.019Z" fill="#DADBD8"/>
<path d="M845.448 237.116H836.499V233.803H845.448V237.116Z" fill="#DADBD8"/>
<path d="M832.135 225.432H828.821V222.118H832.135V225.432Z" fill="#DADBD8"/>
<path d="M819.326 225.606H816.014V222.294H819.326V225.606Z" fill="#DADBD8"/>
<path d="M819.326 231.131H816.014V227.818H819.326V231.131Z" fill="#DADBD8"/>
<path d="M825.941 225.606H822.629V222.294H825.941V225.606Z" fill="#DADBD8"/>
<path d="M825.941 231.131H822.629V227.818H825.941V231.131Z" fill="#DADBD8"/>
<path d="M832.415 231.131H829.102V227.818H832.415V231.131Z" fill="#DADBD8"/>
<path d="M835.809 244.146C835.809 247.327 833.229 249.908 830.046 249.908C826.864 249.908 824.285 247.327 824.285 244.146C824.285 240.963 826.864 238.383 830.046 238.383C833.229 238.383 835.809 240.963 835.809 244.146Z" fill="#DADBD8"/>
<path d="M822.122 244.145C822.122 246.026 820.596 247.552 818.714 247.552C816.832 247.552 815.306 246.026 815.306 244.145C815.306 242.262 816.832 240.737 818.714 240.737C820.596 240.737 822.122 242.262 822.122 244.145Z" fill="#DADBD8"/>
<path d="M844.728 244.199C844.728 246.082 843.201 247.607 841.32 247.607C839.438 247.607 837.913 246.082 837.913 244.199C837.913 242.318 839.438 240.793 841.32 240.793C843.201 240.793 844.728 242.318 844.728 244.199Z" fill="#DADBD8"/>
<path d="M850.652 387.456C850.652 387.648 805.467 387.804 749.742 387.804C693.995 387.804 648.82 387.648 648.82 387.456C648.82 387.265 693.995 387.109 749.742 387.109C805.467 387.109 850.652 387.265 850.652 387.456Z" fill="#DADBD8"/>
<path d="M850.652 380.04C850.652 380.232 805.467 380.387 749.742 380.387C693.995 380.387 648.82 380.232 648.82 380.04C648.82 379.848 693.995 379.693 749.742 379.693C805.467 379.693 850.652 379.848 850.652 380.04Z" fill="#DADBD8"/>
<path d="M850.652 372.623C850.652 372.816 805.467 372.971 749.742 372.971C693.995 372.971 648.82 372.816 648.82 372.623C648.82 372.432 693.995 372.276 749.742 372.276C805.467 372.276 850.652 372.432 850.652 372.623Z" fill="#DADBD8"/>
<path d="M850.652 365.206C850.652 365.398 805.467 365.553 749.742 365.553C693.995 365.553 648.82 365.398 648.82 365.206C648.82 365.014 693.995 364.859 749.742 364.859C805.467 364.859 850.652 365.014 850.652 365.206Z" fill="#DADBD8"/>
<path d="M188.959 414.727H99.2988V407.77H188.959V414.727Z" fill="#E7E8E5"/>
<path d="M164.339 407.77V414.727H188.959V407.77H164.339Z" fill="#DADBD8"/>
<path d="M87.9144 414.726C87.9144 415.293 87.9144 446.056 87.9144 446.056H83.0029V449.456H87.9144V470.425H179.721V451.345H172.921V447.189H179.721V440.956H182.744V438.121H179.155V414.726H87.9144Z" fill="#F3F2F1"/>
<path d="M155.342 414.819V470.076H179.722V450.996H172.922V447.189H179.722V440.956H182.744V437.772H179.155V414.727L155.342 414.819Z" fill="#DADBD8"/>
<path d="M157.079 449.005C157.079 449.198 140.467 449.353 119.978 449.353C99.4828 449.353 82.874 449.198 82.874 449.005C82.874 448.814 99.4828 448.658 119.978 448.658C140.467 448.658 157.079 448.814 157.079 449.005Z" fill="#DADBD8"/>
<path d="M157.079 445.824C157.079 446.015 140.467 446.17 119.978 446.17C99.4828 446.17 82.874 446.015 82.874 445.824C82.874 445.631 99.4828 445.477 119.978 445.477C140.467 445.477 157.079 445.631 157.079 445.824Z" fill="#DADBD8"/>
<path d="M161.844 437.26C161.844 437.451 145.232 437.605 124.744 437.605C104.248 437.605 87.6396 437.451 87.6396 437.26C87.6396 437.067 104.248 436.912 124.744 436.912C145.232 436.912 161.844 437.067 161.844 437.26Z" fill="#DADBD8"/>
<path d="M162.302 460.598C162.302 460.789 145.69 460.945 125.202 460.945C104.707 460.945 88.0977 460.789 88.0977 460.598C88.0977 460.407 104.707 460.252 125.202 460.252C145.69 460.252 162.302 460.407 162.302 460.598Z" fill="#DADBD8"/>
<path d="M98.3294 477.061C98.3294 477.629 98.3294 508.39 98.3294 508.39H93.418V511.792H98.3294V532.76H190.136V513.679H183.334V509.525H190.136V503.29H193.158V500.457H189.569V477.061H98.3294Z" fill="#F3F2F1"/>
<path d="M165.756 477.153V532.41H190.136V513.33H183.335V509.525L190.136 509.654V503.42L193.217 503.424L193.159 500.202L189.569 500.107V477.061L165.756 477.153Z" fill="#DADBD8"/>
<path d="M167.493 511.34C167.493 511.533 150.881 511.688 130.392 511.688C109.897 511.688 93.2881 511.533 93.2881 511.34C93.2881 511.15 109.897 510.993 130.392 510.993C150.881 510.993 167.493 511.15 167.493 511.34Z" fill="#DADBD8"/>
<path d="M167.493 508.158C167.493 508.351 150.881 508.507 130.392 508.507C109.897 508.507 93.2881 508.351 93.2881 508.158C93.2881 507.968 109.897 507.812 130.392 507.812C150.881 507.812 167.493 507.968 167.493 508.158Z" fill="#DADBD8"/>
<path d="M172.258 499.595C172.258 499.787 155.646 499.941 135.158 499.941C114.663 499.941 98.0537 499.787 98.0537 499.595C98.0537 499.403 114.663 499.248 135.158 499.248C155.646 499.248 172.258 499.403 172.258 499.595Z" fill="#DADBD8"/>
<path d="M172.718 522.934C172.718 523.125 156.105 523.279 135.616 523.279C115.122 523.279 98.5127 523.125 98.5127 522.934C98.5127 522.742 115.122 522.586 135.616 522.586C156.105 522.586 172.718 522.742 172.718 522.934Z" fill="#DADBD8"/>
<path d="M96.9974 352.073C96.9974 352.64 96.9974 383.403 96.9974 383.403H92.0859V386.803H96.9974V407.771H188.804V388.692H182.003V384.536H188.804V378.303H191.826V375.469H188.236V352.073H96.9974Z" fill="#F3F2F1"/>
<path d="M164.424 352.163V407.422H188.804V388.342H182.002V384.535L188.804 384.663V378.431L191.885 378.435L191.825 375.213L188.236 375.119V352.073L164.424 352.163Z" fill="#DADBD8"/>
<path d="M166.162 386.354C166.162 386.546 149.548 386.7 129.06 386.7C108.565 386.7 91.9561 386.546 91.9561 386.354C91.9561 386.162 108.565 386.006 129.06 386.006C149.548 386.006 166.162 386.162 166.162 386.354Z" fill="#DADBD8"/>
<path d="M166.162 383.171C166.162 383.363 149.548 383.518 129.06 383.518C108.565 383.518 91.9561 383.363 91.9561 383.171C91.9561 382.98 108.565 382.824 129.06 382.824C149.548 382.824 166.162 382.98 166.162 383.171Z" fill="#DADBD8"/>
<path d="M170.927 374.605C170.927 374.797 154.314 374.953 133.826 374.953C113.331 374.953 96.7217 374.797 96.7217 374.605C96.7217 374.414 113.331 374.258 133.826 374.258C154.314 374.258 170.927 374.414 170.927 374.605Z" fill="#DADBD8"/>
<path d="M171.385 397.944C171.385 398.137 154.772 398.292 134.284 398.292C113.788 398.292 97.1797 398.137 97.1797 397.944C97.1797 397.753 113.788 397.599 134.284 397.599C154.772 397.599 171.385 397.753 171.385 397.944Z" fill="#DADBD8"/>
<path d="M93.2881 477.061H182.947V470.105H93.2881V477.061Z" fill="#E7E8E5"/>
<path d="M158.329 470.105V477.061H182.948V470.105H158.329Z" fill="#DADBD8"/>
<path d="M188.221 88.0967L175.325 88.166L174.981 24.0007L187.877 23.9327L188.221 88.0967Z" fill="#DADBD8"/>
<path d="M96.8509 59.5235L63.4572 59.7021L63.2676 24.2781L96.6608 24.0995L96.8509 59.5235Z" fill="#E7E8E5"/>
<path d="M130.086 59.3448L96.6929 59.5234L96.5029 24.0994L129.896 23.9208L130.086 59.3448Z" fill="#F3F2F1"/>
<path d="M63.3199 34.0613C85.5122 34.2453 107.76 34.116 129.949 33.7546C130.406 33.748 130.403 33.048 129.945 33.0453C107.753 32.9226 85.5054 33.032 63.3163 33.4533C62.9253 33.46 62.9278 34.0586 63.3199 34.0613Z" fill="#DADBD8"/>
<path d="M103.272 87.7997L42.6015 88.125L42.4473 59.257L103.118 58.933L103.272 87.7997Z" fill="#E7E8E5"/>
<path d="M163.656 87.4755L102.985 87.8008L102.831 58.9328L163.502 58.6088L163.656 87.4755Z" fill="#F3F2F1"/>
<path d="M42.4905 67.2867C82.7962 67.7427 123.242 67.3333 163.544 66.688C164.002 66.6813 163.999 65.9813 163.54 65.9787C123.233 65.7653 82.7847 65.7893 42.4873 66.6787C42.0962 66.6867 42.0987 67.2813 42.4905 67.2867Z" fill="#DADBD8"/>
<path d="M254.858 98.4668H19.8008V88.1255H254.858V98.4668Z" fill="#DADBD8"/>
<path d="M67.8273 128.387H58.2852V93.0974H67.8273V128.387Z" fill="#DADBD8"/>
<path d="M210.272 128.387H200.729V93.0974H210.272V128.387Z" fill="#DADBD8"/>
<path d="M200.933 88.2549L188.039 88.3242L187.565 0.0749076L200.461 0.00557167L200.933 88.2549Z" fill="#E7E8E5"/>
<path d="M220.993 87.9486L200.956 88.0566L200.573 16.5393L220.609 16.4326L220.993 87.9486Z" fill="#F3F2F1"/>
<path d="M220.475 30.2106C220.475 30.4026 215.99 30.5586 210.456 30.5586C204.923 30.5586 200.438 30.4026 200.438 30.2106C200.438 30.0199 204.923 29.8639 210.456 29.8639C215.99 29.8639 220.475 30.0199 220.475 30.2106Z" fill="#DADBD8"/>
<path d="M220.475 27.2061C220.475 27.3981 215.99 27.5527 210.456 27.5527C204.923 27.5527 200.438 27.3981 200.438 27.2061C200.438 27.0141 204.923 26.8594 210.456 26.8594C215.99 26.8594 220.475 27.0141 220.475 27.2061Z" fill="#DADBD8"/>
<path d="M220.475 77.1891C220.475 77.3811 215.99 77.5371 210.456 77.5371C204.923 77.5371 200.438 77.3811 200.438 77.1891C200.438 76.9984 204.923 76.8424 210.456 76.8424C215.99 76.8424 220.475 76.9984 220.475 77.1891Z" fill="#DADBD8"/>
<path d="M220.475 74.1842C220.475 74.3762 215.99 74.5322 210.456 74.5322C204.923 74.5322 200.438 74.3762 200.438 74.1842C200.438 73.9935 204.923 73.8376 210.456 73.8376C215.99 73.8376 220.475 73.9935 220.475 74.1842Z" fill="#DADBD8"/>
<path d="M210.778 67.6289C210.586 67.6289 210.432 60.4142 210.432 51.5156C210.432 42.6142 210.586 35.3996 210.778 35.3996C210.97 35.3996 211.125 42.6142 211.125 51.5156C211.125 60.4142 210.97 67.6289 210.778 67.6289Z" fill="#DADBD8"/>
<path d="M242.503 87.9756H220.692V33.9956H242.503V87.9756Z" fill="#E7E8E5"/>
<path d="M197.529 15.0717C197.529 17.1183 195.871 18.7783 193.824 18.7783C191.777 18.7783 190.117 17.1183 190.117 15.0717C190.117 13.025 191.777 11.365 193.824 11.365C195.871 11.365 197.529 13.025 197.529 15.0717Z" fill="#DADBD8"/>
<path d="M194.97 77.7646H192.678V25.266H194.97V77.7646Z" fill="#DADBD8"/>
<path d="M900.364 532.412C900.364 532.604 701.799 532.76 456.912 532.76C211.94 532.76 13.416 532.604 13.416 532.412C13.416 532.22 211.94 532.065 456.912 532.065C701.799 532.065 900.364 532.22 900.364 532.412Z" fill="#17282F"/>
<path d="M323.452 210.432C408.372 170.963 490.788 126.111 570.041 76.2321C579.32 110.996 588.599 145.759 597.877 180.524C507.64 190.865 417.405 201.209 327.168 211.551L323.452 210.432Z" fill="#F03D5F"/>
<mask id="mask0_393_19" style="mask-type:luminance" maskUnits="userSpaceOnUse" x="323" y="76" width="259" height="136">
<path d="M327.168 211.551L323.452 210.432C408.372 170.963 490.788 126.111 570.041 76.2321C573.939 90.8321 577.835 105.431 581.732 120.031L569.159 120.483C568.032 120.523 567.147 121.457 567.168 122.585L567.275 128.355C562.064 129.695 552.473 133.563 546.789 144.304L546.781 144.277L545.66 176.352V186.329L535.321 187.693C465.937 195.645 396.553 203.599 327.168 211.551Z" fill="white"/>
</mask>
<g mask="url(#mask0_393_19)">
<path d="M323.452 211.551H581.732V76.2321H323.452V211.551Z" fill="#FDE3E9"/>
</g>
<path d="M125.778 232.885L206.131 277.95V267.676L129.265 227.421L125.778 232.885Z" fill="#F3F2F1"/>
<path d="M206.131 277.95L142.936 242.458L137.646 249.989L176.692 273.165L176.944 283.241L206.131 299.111V277.95Z" fill="#17282F"/>
<path d="M206.131 375.718L142.936 340.224L137.646 347.758L176.692 370.932L176.944 381.008L206.131 396.879V375.718Z" fill="#17282F"/>
<path d="M373.474 347.03H206.131V254.804C206.131 247.985 211.659 242.458 218.478 242.458H373.474V347.03Z" fill="#F03D5F"/>
<path d="M206.131 473.337H373.474V350.909H206.131V473.337Z" fill="#F03D5F"/>
<path d="M205.205 450.184H134.165V456.686L206.168 464.392L205.205 450.184Z" fill="#17282F"/>
<path d="M194.971 475.71C191.58 475.71 188.831 472.961 188.831 469.569V463.429C188.831 460.038 191.58 457.288 194.971 457.288C198.363 457.288 201.112 460.038 201.112 463.429V469.569C201.112 472.961 198.363 475.71 194.971 475.71Z" fill="#17282F"/>
<path d="M141.872 454.037V432.845H151.504V455.482L141.872 454.037Z" fill="#17282F"/>
<path d="M206.18 516.624H373.473V477.639H206.18V516.624Z" fill="#F03D5F"/>
<path d="M335.812 347.03H206.131V254.804C206.131 247.985 211.659 242.458 218.478 242.458H335.812V347.03Z" fill="#601321"/>
<path d="M322.576 473.337H206.131V464.388L206.168 464.392L206.131 463.828V350.909H335.812V397.889H331.587C326.611 397.889 322.576 401.924 322.576 406.9V430.992H335.812V432.308H332.078C326.831 432.308 322.576 436.561 322.576 441.808V473.337Z" fill="#601321"/>
<path d="M206.168 464.392L206.131 464.388V463.828L206.168 464.392Z" fill="#0A0D0E"/>
<path d="M322.576 516.624H206.18V477.639H322.576V499.221H335.812V502.635H322.576V516.624Z" fill="#601321"/>
<path d="M206.18 532.413H373.473V516.624H206.18V532.413Z" fill="#F03D5F"/>
<path d="M335.812 517.523H515.332V227.358H335.812V517.523Z" fill="#F03D5F"/>
<path d="M335.812 502.635H515.332V499.222H335.812V502.635Z" fill="#BA2C42"/>
<path d="M515.332 432.308C515.315 432.308 515.299 432.308 515.282 432.308H335.812V430.991H515.332V432.308Z" fill="#BA2C42"/>
<path d="M515.332 397.889H335.812V227.358H515.332V373.649V374.193V382.182V382.789V385.365V385.971V396.99V397.529V397.889Z" fill="#BA2C42"/>
<path d="M524.782 304.737H455.27V223.325H524.782V304.737Z" fill="#F03D5F"/>
<path d="M434.906 51.9731L441.651 61.7224L439.124 65.8237L443.886 62.5291L449.026 68.0197L369.454 137.15L351.503 129.621L434.906 51.9731Z" fill="#F3F2F1"/>
<path d="M462.558 63.3505L457.503 58.4665L447.722 67.1238L401.984 107.605L408.132 112.493L462.558 63.3505Z" fill="#17282F"/>
<path d="M375.042 141.352L419.788 102.326C412.242 96.4729 401.591 96.8329 394.458 103.185L359.463 134.34L375.042 141.352Z" fill="#33535F"/>
<path d="M301.61 174.838L324.306 207.646L493.082 90.8815C487.141 82.2962 475.366 80.1522 466.782 86.0922L390.833 138.635L352.856 125.507L304.318 159.642C299.394 163.103 298.186 169.888 301.61 174.838Z" fill="#F03D5F"/>
<path d="M322.354 209.5V225.052C322.354 228.67 325.286 231.602 328.902 231.602H413.576H524.78V209.5H322.354Z" fill="#F03D5F"/>
<path d="M413.576 257.658V209.5H524.78V249.052C524.78 253.805 520.927 257.658 516.175 257.658H413.576Z" fill="#17282F"/>
<path d="M480.344 246.709H421.335V216.001H480.344V246.709Z" fill="#33535F"/>
<path d="M493.338 219.313H490.026V216.001H493.338V219.313Z" fill="#33535F"/>
<path d="M499.743 219.313H496.43V216.001H499.743V219.313Z" fill="#33535F"/>
<path d="M506.145 219.313H502.833V216.001H506.145V219.313Z" fill="#33535F"/>
<path d="M519.461 219.313H510.511V216.001H519.461V219.313Z" fill="#F3F2F1"/>
<path d="M519.461 224.981H510.511V221.669H519.461V224.981Z" fill="#F3F2F1"/>
<path d="M519.461 230.672H510.511V227.359H519.461V230.672Z" fill="#F3F2F1"/>
<path d="M519.461 236.77H510.511V233.456H519.461V236.77Z" fill="#F3F2F1"/>
<path d="M506.145 225.084H502.833V221.772H506.145V225.084Z" fill="#33535F"/>
<path d="M493.338 225.26H490.026V221.948H493.338V225.26Z" fill="#33535F"/>
<path d="M493.338 230.782H490.026V227.47H493.338V230.782Z" fill="#33535F"/>
<path d="M499.953 225.26H496.64V221.948H499.953V225.26Z" fill="#33535F"/>
<path d="M499.953 230.782H496.64V227.47H499.953V230.782Z" fill="#33535F"/>
<path d="M506.425 230.782H503.113V227.47H506.425V230.782Z" fill="#33535F"/>
<path d="M509.821 243.797C509.821 246.98 507.242 249.56 504.06 249.56C500.876 249.56 498.297 246.98 498.297 243.797C498.297 240.614 500.876 238.036 504.06 238.036C507.242 238.036 509.821 240.614 509.821 243.797Z" fill="#F03D5F"/>
<path d="M496.134 243.797C496.134 245.68 494.608 247.205 492.726 247.205C490.844 247.205 489.318 245.68 489.318 243.797C489.318 241.916 490.844 240.39 492.726 240.39C494.608 240.39 496.134 241.916 496.134 243.797Z" fill="#33535F"/>
<path d="M518.74 243.853C518.74 245.734 517.215 247.261 515.332 247.261C513.451 247.261 511.924 245.734 511.924 243.853C511.924 241.97 513.451 240.445 515.332 240.445C517.215 240.445 518.74 241.97 518.74 243.853Z" fill="#33535F"/>
<path d="M524.781 395.973H322.576V316.167C322.576 309.854 327.695 304.737 334.007 304.737H524.781V395.973Z" fill="#F03D5F"/>
<path d="M524.781 430.991H322.576V406.9C322.576 401.923 326.611 397.889 331.587 397.889H518.475C521.959 397.889 524.781 400.712 524.781 404.195V430.991Z" fill="#F03D5F"/>
<path d="M448.723 413.224H397.787C393.981 413.224 390.897 410.14 390.897 406.334V397.889H455.613V406.334C455.613 410.14 452.528 413.224 448.723 413.224Z" fill="#BA2C42"/>
<path d="M524.781 499.222H322.576V441.808C322.576 436.561 326.831 432.308 332.078 432.308H515.281C520.528 432.308 524.781 436.561 524.781 441.808V499.222Z" fill="#F03D5F"/>
<path d="M448.723 447.644H397.787C393.981 447.644 390.897 444.557 390.897 440.753V432.308H455.613V440.753C455.613 444.557 452.528 447.644 448.723 447.644Z" fill="#BA2C42"/>
<path d="M322.576 532.413H524.781V502.634H322.576V532.413Z" fill="#F03D5F"/>
<path d="M455.27 287.562H375.915V282.586H455.27V287.562Z" fill="#17282F"/>
<path d="M455.269 282.585H348.465V264.032H455.269V282.585Z" fill="#F3F2F1"/>
<path d="M454.952 220.016C454.952 220.208 448.361 220.362 440.23 220.362C432.098 220.362 425.508 220.208 425.508 220.016C425.508 219.824 432.098 219.669 440.23 219.669C448.361 219.669 454.952 219.824 454.952 220.016Z" fill="#FAFAF9"/>
<path d="M437.989 224.765C437.989 224.955 435.194 225.111 431.749 225.111C428.302 225.111 425.508 224.955 425.508 224.765C425.508 224.573 428.302 224.417 431.749 224.417C435.194 224.417 437.989 224.573 437.989 224.765Z" fill="#FAFAF9"/>
<path d="M437.989 229.79C437.989 229.982 435.194 230.137 431.749 230.137C428.302 230.137 425.508 229.982 425.508 229.79C425.508 229.598 428.302 229.442 431.749 229.442C435.194 229.442 437.989 229.598 437.989 229.79Z" fill="#FAFAF9"/>
<path d="M438.361 238.036C438.361 238.227 435.567 238.383 432.12 238.383C428.673 238.383 425.88 238.227 425.88 238.036C425.88 237.844 428.673 237.688 432.12 237.688C435.567 237.688 438.361 237.844 438.361 238.036Z" fill="#FAFAF9"/>
<path d="M472.528 238.036C472.528 238.227 469.734 238.383 466.288 238.383C462.84 238.383 460.047 238.227 460.047 238.036C460.047 237.844 462.84 237.688 466.288 237.688C469.734 237.688 472.528 237.844 472.528 238.036Z" fill="#FAFAF9"/>
<path d="M524.781 532.413H322.576V502.634H524.781V507.141V507.809V510.322V510.992V521.932V522.565V532.413Z" fill="#F68AA6"/>
<path d="M485.629 84.5581C485.636 84.5688 485.496 84.6754 485.216 84.8781C484.908 85.0968 484.493 85.3874 483.966 85.7594C482.826 86.5421 481.201 87.6621 479.122 89.0914C474.88 91.9994 468.794 96.1701 461.288 101.314C446.246 111.659 425.556 126.079 402.953 142.357C380.349 158.646 360.116 173.706 345.54 184.698C338.282 190.187 332.401 194.639 328.3 197.742C326.285 199.261 324.709 200.449 323.605 201.281C323.085 201.663 322.678 201.963 322.373 202.187C322.093 202.389 321.946 202.487 321.94 202.477C321.932 202.467 322.064 202.351 322.33 202.131C322.624 201.894 323.018 201.575 323.52 201.17C324.605 200.314 326.153 199.091 328.134 197.529C332.148 194.373 337.99 189.853 345.242 184.306C359.745 173.213 379.937 158.086 402.548 141.794C425.156 125.511 445.896 111.151 461.012 100.909C468.569 95.7875 474.706 91.6754 478.972 88.8674C481.082 87.4834 482.732 86.4021 483.888 85.6434C484.432 85.2954 484.858 85.0221 485.177 84.8194C485.47 84.6368 485.622 84.5474 485.629 84.5581Z" fill="#17282F"/>
<path d="M524.664 387.108C524.664 387.301 479.479 387.456 423.752 387.456C368.007 387.456 322.832 387.301 322.832 387.108C322.832 386.917 368.007 386.763 423.752 386.763C479.479 386.763 524.664 386.917 524.664 387.108Z" fill="#17282F"/>
<path d="M524.664 379.693C524.664 379.884 479.479 380.04 423.752 380.04C368.007 380.04 322.832 379.884 322.832 379.693C322.832 379.5 368.007 379.345 423.752 379.345C479.479 379.345 524.664 379.5 524.664 379.693Z" fill="#17282F"/>
<path d="M524.664 372.275C524.664 372.467 479.479 372.622 423.752 372.622C368.007 372.622 322.832 372.467 322.832 372.275C322.832 372.083 368.007 371.929 423.752 371.929C479.479 371.929 524.664 372.083 524.664 372.275Z" fill="#17282F"/>
<path d="M524.664 364.859C524.664 365.05 479.479 365.206 423.752 365.206C368.007 365.206 322.832 365.05 322.832 364.859C322.832 364.667 368.007 364.511 423.752 364.511C479.479 364.511 524.664 364.667 524.664 364.859Z" fill="#17282F"/>
<path d="M524.976 430.958C524.976 431.15 479.584 431.307 423.605 431.307C367.605 431.307 322.223 431.15 322.223 430.958C322.223 430.768 367.605 430.61 423.605 430.61C479.584 430.61 524.976 430.768 524.976 430.958Z" fill="#17282F"/>
<path d="M524.976 499.221C524.976 499.413 479.584 499.569 423.605 499.569C367.605 499.569 322.223 499.413 322.223 499.221C322.223 499.031 367.605 498.875 423.605 498.875C479.584 498.875 524.976 499.031 524.976 499.221Z" fill="#17282F"/>
<path d="M455.613 397.889C455.638 397.889 455.657 398.2 455.694 398.787C455.74 399.446 455.797 400.301 455.868 401.361C455.937 402.48 456.036 403.858 455.898 405.467C455.742 407.064 455.242 408.939 453.914 410.553C453.254 411.349 452.35 412.037 451.301 412.457C450.254 412.893 449.122 413.129 447.958 413.357C445.622 413.798 443.086 414 440.428 414.058C435.11 414.119 429.298 413.968 423.181 413.909C417.069 413.816 411.249 413.727 405.941 413.645C403.286 413.579 400.789 413.605 398.402 413.457C397.213 413.358 396.046 413.146 395.004 412.691C393.958 412.243 393.074 411.532 392.442 410.713C391.158 409.065 390.702 407.179 390.588 405.579C390.497 403.969 390.565 402.6 390.609 401.477C390.662 400.356 390.725 399.488 390.777 398.899C390.83 398.312 390.873 398.003 390.897 398.004C390.921 398.005 390.924 398.317 390.917 398.907C390.908 399.567 390.894 400.422 390.88 401.485C390.876 402.603 390.849 403.979 390.974 405.548C391.12 407.089 391.601 408.888 392.825 410.405C393.429 411.16 394.242 411.795 395.216 412.198C396.186 412.608 397.292 412.8 398.446 412.882C400.766 413.004 403.308 412.956 405.95 413.005C411.257 413.07 417.078 413.141 423.19 413.215C429.301 413.273 435.138 413.443 440.417 413.42C443.053 413.38 445.556 413.201 447.856 412.791C449.002 412.58 450.114 412.357 451.097 411.963C452.086 411.58 452.909 410.969 453.541 410.234C454.804 408.752 455.329 406.964 455.513 405.428C455.684 403.863 455.625 402.493 455.598 401.374C455.562 400.255 455.544 399.383 455.556 398.791C455.562 398.2 455.592 397.889 455.613 397.889Z" fill="#17282F"/>
<path d="M455.613 431.701C455.638 431.701 455.657 432.01 455.694 432.6C455.74 433.258 455.797 434.112 455.868 435.171C455.937 436.29 456.036 437.669 455.898 439.277C455.742 440.876 455.242 442.75 453.914 444.365C453.254 445.159 452.35 445.849 451.301 446.269C450.254 446.705 449.122 446.941 447.958 447.167C445.622 447.61 443.086 447.812 440.428 447.871C435.11 447.93 429.298 447.778 423.181 447.719C417.069 447.626 411.249 447.538 405.941 447.457C403.286 447.389 400.789 447.418 398.402 447.269C397.213 447.17 396.046 446.957 395.004 446.501C393.958 446.053 393.074 445.342 392.442 444.523C391.158 442.877 390.702 440.99 390.588 439.389C390.497 437.781 390.565 436.41 390.609 435.289C390.662 434.167 390.725 433.298 390.777 432.712C390.83 432.122 390.873 431.814 390.897 431.815C390.921 431.818 390.924 432.128 390.917 432.717C390.908 433.378 390.894 434.233 390.88 435.295C390.876 436.413 390.849 437.789 390.974 439.358C391.12 440.9 391.601 442.7 392.825 444.215C393.429 444.973 394.242 445.605 395.216 446.009C396.186 446.419 397.292 446.612 398.446 446.694C400.766 446.815 403.308 446.767 405.95 446.817C411.257 446.882 417.078 446.952 423.19 447.026C429.301 447.085 435.138 447.254 440.417 447.23C443.053 447.19 445.556 447.012 447.856 446.602C449.002 446.39 450.114 446.169 451.097 445.773C452.086 445.39 452.909 444.779 453.541 444.046C454.804 442.562 455.329 440.776 455.513 439.238C455.684 437.674 455.625 436.303 455.598 435.185C455.562 434.065 455.544 433.193 455.556 432.602C455.562 432.01 455.592 431.701 455.613 431.701Z" fill="#17282F"/>
<path d="M493.419 194.297L481.78 197.942L461.702 203.725C460.378 203.938 459.176 204.623 458.319 205.655L449.423 216.359L462.376 218.662L466.86 213.466C466.86 213.466 473.616 217.625 479.884 212.198L499.863 208.993L493.419 194.297Z" fill="#F8A58D"/>
<path d="M481.365 198.896C481.385 198.936 481.03 199.169 480.348 199.517C479.665 199.868 478.64 200.299 477.341 200.735C474.749 201.644 471.018 202.308 467.061 203.44C463.114 204.585 459.832 206.507 457.997 208.455C456.124 210.385 455.626 212.063 455.494 211.996C455.457 211.984 455.549 211.565 455.852 210.855C456.145 210.143 456.721 209.164 457.637 208.121C459.452 206.005 462.829 203.941 466.864 202.773C470.893 201.624 474.604 201.044 477.196 200.265C479.804 199.539 481.314 198.793 481.365 198.896Z" fill="white"/>
<path d="M559.332 63.288C555.744 67.2987 554.519 72.876 553.986 78.2307C552.802 90.136 554.374 102.26 552.344 114.051C551.56 118.599 550.244 123.079 550.047 127.689C549.851 132.3 550.956 137.239 554.294 140.427C556.608 142.637 559.754 143.781 562.899 144.375C566.455 145.047 570.25 145.061 573.567 143.616C577.734 141.799 580.679 137.857 582.283 133.605C586.047 123.624 583.215 112.553 581.447 102.033C578.778 86.1574 578.644 69.9773 578.518 53.8787" fill="#17282F"/>
<path d="M580.504 52.2906C586.627 50.2852 593.624 52.9026 598.005 57.6266C602.385 62.3506 604.461 68.8212 605.155 75.2266C605.849 81.6319 605.291 88.0959 605.085 94.5359C604.88 100.976 605.049 107.549 607.128 113.648C611.472 126.403 623.643 135.707 626.415 148.891C627.587 154.464 626.381 161.248 621.419 164.041C623.972 167.423 623.003 172.656 619.895 175.535C616.787 178.413 612.105 179.135 607.972 178.2C603.84 177.267 600.179 174.879 596.915 172.179C587.668 164.528 580.709 153.356 580.616 141.356C580.548 132.552 584.08 124.159 585.652 115.496C589.26 95.6239 582.473 75.1999 584.333 55.0892L580.504 52.2906Z" fill="#17282F"/>
<path d="M596.326 74.4955C596.091 62.8715 586.314 53.6421 574.562 54.2275C563.483 54.7795 554.96 64.3301 554.906 75.4208C554.856 85.1435 555.023 94.9262 555.575 98.4075C557.243 108.905 563.992 112.102 566.666 112.967C567.276 113.166 568.892 113.255 569.534 113.253L569.604 113.326L569.03 125.741C569.123 133.805 574.568 140.217 582.632 140.217C590.724 140.217 596.032 133.238 596.088 125.146L596.326 74.4955Z" fill="#F8A58D"/>
<path d="M558.839 80.8595C558.807 81.7515 559.538 82.5142 560.47 82.5649C561.399 82.6142 562.179 81.9329 562.21 81.0409C562.243 80.1489 561.512 79.3862 560.583 79.3355C559.651 79.2849 558.871 79.9675 558.839 80.8595Z" fill="#17282F"/>
<path d="M557.748 77.9196C557.958 78.141 559.238 77.193 561.055 77.1983C562.871 77.177 564.206 78.1116 564.403 77.889C564.499 77.7903 564.287 77.393 563.704 76.9703C563.134 76.549 562.158 76.1396 561.026 76.1436C559.892 76.1503 558.94 76.5663 558.392 76.9943C557.834 77.4236 557.643 77.821 557.748 77.9196Z" fill="#17282F"/>
<path d="M576.613 80.8595C576.583 81.7515 577.311 82.5142 578.243 82.5649C579.172 82.6142 579.953 81.9329 579.984 81.0409C580.016 80.1489 579.287 79.3862 578.357 79.3355C577.425 79.2849 576.644 79.9675 576.613 80.8595Z" fill="#17282F"/>
<path d="M575.618 78.2598C575.828 78.4798 577.11 77.5331 578.926 77.5385C580.742 77.5171 582.077 78.4518 582.274 78.2291C582.37 78.1305 582.16 77.7331 581.577 77.3105C581.005 76.8878 580.029 76.4798 578.897 76.4838C577.764 76.4905 576.812 76.9078 576.264 77.3331C575.706 77.7625 575.516 78.1611 575.618 78.2598Z" fill="#17282F"/>
<path d="M569.021 91.7428C569.029 91.6402 567.898 91.4455 566.066 91.2108C565.602 91.1628 565.164 91.0708 565.085 90.7535C564.976 90.4188 565.17 89.9175 565.396 89.3775C565.832 88.2548 566.289 87.0762 566.768 85.8428C568.674 80.8095 570.054 76.6708 569.852 76.5948C569.648 76.5201 567.937 80.5388 566.03 85.5721C565.573 86.8135 565.133 87.9961 564.716 89.1295C564.54 89.6575 564.238 90.2548 564.474 90.9508C564.6 91.2988 564.941 91.5508 565.238 91.6295C565.536 91.7201 565.797 91.7255 566.028 91.7388C567.869 91.8388 569.013 91.8468 569.021 91.7428Z" fill="#17282F"/>
<path d="M569.608 113.253C569.608 113.253 576.628 113.83 585.409 108.551C585.409 108.551 582.638 117.831 569.453 116.598L569.608 113.253Z" fill="#F68260"/>
<path d="M569.789 96.1252C570.443 95.2612 571.588 94.7865 572.727 94.9079C573.516 94.9932 574.312 95.3745 574.792 96.0158C575.271 96.6585 575.371 97.5718 574.936 98.1838C574.445 98.8732 573.419 99.0332 572.552 98.7865C571.684 98.5398 570.937 97.9678 570.228 97.3998C570.032 97.2412 569.832 97.0772 569.708 96.8612C569.587 96.6465 569.56 96.3638 569.712 96.1838" fill="#F68260"/>
<path d="M574.371 93.0015C574.076 92.9841 574.072 94.9575 572.383 96.3588C570.696 97.7641 568.592 97.5428 568.577 97.8188C568.549 97.9415 569.045 98.2015 569.933 98.2255C570.805 98.2548 572.077 97.9761 573.109 97.1188C574.14 96.2601 574.584 95.1135 574.651 94.3042C574.727 93.4788 574.507 92.9908 574.371 93.0015Z" fill="#17282F"/>
<path d="M574.802 75.0762C574.98 75.5708 576.796 75.3361 578.928 75.5935C581.067 75.8081 582.787 76.4321 583.071 75.9895C583.196 75.7775 582.896 75.3121 582.2 74.8335C581.512 74.3548 580.412 73.9015 579.132 73.7588C577.851 73.6188 576.679 73.8215 575.902 74.1375C575.118 74.4535 574.724 74.8415 574.802 75.0762Z" fill="#17282F"/>
<path d="M558.416 74.2055C558.736 74.6188 559.987 74.1908 561.493 74.1708C562.999 74.0975 564.276 74.4481 564.569 74.0161C564.697 73.8054 564.497 73.3921 563.939 73.0015C563.391 72.6121 562.472 72.2935 561.436 72.3241C560.403 72.3575 559.505 72.7321 558.981 73.1548C558.449 73.5788 558.275 74.0041 558.416 74.2055Z" fill="#17282F"/>
<path d="M551.432 70.4464C553.539 73.8624 560.575 71.9811 564.852 69.7904C569.21 72.8544 575.414 71.7464 578.611 67.3331C580.938 70.4704 585.863 69.5904 587.744 66.1784C589.626 62.7664 588.751 57.9758 586.38 54.8811C584.011 51.7864 580.464 50.1598 576.939 49.4078C568.583 47.6251 559.343 50.6318 554.108 58.0891C551.695 61.5291 550.172 66.2104 551.432 70.4464Z" fill="#17282F"/>
<path d="M584.631 61.7308C586.295 65.3894 586.703 69.5081 586.539 73.5241C586.375 77.5414 585.663 81.5108 585.186 85.5014C583.906 96.1628 584.304 107.067 586.852 117.499C587.527 120.255 588.456 123.145 590.644 124.952C592.838 126.763 595.847 127.124 598.676 127.415C600.81 127.632 603.331 127.7 604.672 126.027C605.906 124.491 605.5 122.244 604.898 120.368C603.756 116.812 602.138 113.408 601.252 109.78C599.708 103.46 600.472 96.8321 601.32 90.3841C602.171 83.9348 603.096 77.3534 601.864 70.9668C600.632 64.5801 596.799 58.2988 590.724 55.9681C589.167 55.3708 587.458 55.0481 585.823 55.3828C584.19 55.7174 582.651 56.7934 582.062 58.3534C581.472 59.9134 582.044 61.9148 583.52 62.6934" fill="#17282F"/>
<path d="M601.524 127.781C601.527 127.793 601.459 127.81 601.323 127.833C601.188 127.848 600.986 127.902 600.718 127.896C600.186 127.924 599.372 127.86 598.412 127.493C596.515 126.813 593.963 124.696 592.974 121.102C591.912 117.545 592.299 113.181 592.303 108.452C592.378 103.686 592.462 98.4649 592.548 92.9809C592.619 87.4956 592.807 82.2556 592.778 77.5182C592.731 72.7862 592.143 68.5236 590.902 65.1769C589.694 61.8169 587.983 59.4169 586.615 57.9756C585.25 56.5143 584.286 55.9262 584.334 55.8636C584.347 55.8436 584.586 55.9876 585.028 56.2849C585.462 56.5929 586.087 57.0729 586.808 57.7862C588.259 59.1916 590.07 61.6009 591.362 65.0063C592.69 68.3996 593.335 72.7369 593.418 77.5063C593.482 82.2823 593.312 87.5009 593.243 92.9929C593.136 98.4769 593.034 103.698 592.943 108.462C592.899 113.208 592.476 117.537 593.447 120.968C594.335 124.433 596.716 126.508 598.514 127.242C600.36 128.009 601.536 127.674 601.524 127.781Z" fill="#33535F"/>
<path d="M613.615 133.623C613.601 133.641 613.35 133.459 612.885 133.091C612.41 132.733 611.759 132.145 610.961 131.349C609.381 129.744 607.317 127.147 605.561 123.497C603.79 119.861 602.371 115.204 601.638 109.917C600.883 104.631 600.769 98.7654 600.629 92.6494C600.49 86.5321 600.167 80.7027 599.081 75.5281C598.047 70.3481 596.263 65.8761 594.134 62.5094C592.034 59.1107 589.646 56.8561 587.871 55.5201C586.083 54.1814 584.937 53.6721 584.971 53.6094C584.979 53.5907 585.27 53.7027 585.805 53.9641C586.335 54.2267 587.102 54.6561 588.03 55.3014C589.877 56.5867 592.362 58.8267 594.547 62.2454C596.766 65.6334 598.629 70.1654 599.706 75.3974C600.841 80.6241 601.183 86.5067 601.322 92.6321C601.463 98.7574 601.558 104.589 602.271 109.831C602.965 115.067 604.314 119.675 606.005 123.287C607.681 126.913 609.653 129.517 611.155 131.164C612.674 132.804 613.665 133.565 613.615 133.623Z" fill="#33535F"/>
<path d="M557.32 72.0648C557.303 72.0808 557.196 71.9781 557.007 71.7675C556.814 71.5608 556.564 71.2208 556.306 70.7474C555.772 69.8141 555.268 68.2661 555.318 66.3208C555.35 64.3861 555.954 62.0781 557.264 59.8794C558.556 57.6741 560.544 55.5768 563.054 54.0221C565.558 52.4541 568.324 51.6208 570.862 51.4021C573.406 51.1728 575.708 51.4754 577.562 51.9568C579.423 52.4328 580.84 53.0914 581.782 53.5874C582.726 54.0874 583.194 54.4541 583.176 54.4821C583.114 54.6181 581.115 53.2821 577.447 52.4355C575.623 52.0235 573.379 51.7821 570.925 52.0381C568.474 52.2861 565.831 53.1048 563.419 54.6128C558.53 57.5994 555.912 62.6381 555.808 66.3395C555.7 68.1968 556.106 69.6888 556.546 70.6261C556.984 71.5728 557.372 72.0235 557.32 72.0648Z" fill="#33535F"/>
<path d="M553.492 89.0235C553.54 89.0235 553.6 89.6675 553.668 90.8342C553.735 91.9995 553.811 93.6875 553.874 95.7755C553.976 99.9488 554.104 105.737 553.468 112.107C553.175 115.297 552.499 118.299 551.919 120.981C551.348 123.67 550.995 126.117 551.006 128.183C550.984 132.347 552.319 134.702 552.188 134.733C552.166 134.743 552.078 134.607 551.926 134.337C551.782 134.063 551.584 133.65 551.383 133.095C550.972 131.991 550.574 130.303 550.515 128.19C550.44 126.075 550.752 123.566 551.294 120.854C551.844 118.135 552.486 115.199 552.776 112.035C553.41 105.723 553.362 99.9515 553.383 95.7821C553.388 93.8008 553.394 92.1422 553.398 90.8395C553.414 89.6715 553.444 89.0248 553.492 89.0235Z" fill="white"/>
<path d="M569.227 112.6C569.227 112.624 569.08 112.64 568.799 112.649C568.515 112.669 568.1 112.644 567.566 112.585C566.5 112.455 564.964 112.03 563.3 111.038C561.647 110.043 559.896 108.463 558.508 106.31C557.114 104.158 556.167 101.466 555.65 98.5868C555.14 95.7015 555.054 92.9135 555.062 90.4015C555.094 87.9335 555.123 85.6869 555.148 83.7415C555.154 81.8495 555.098 80.3215 555.032 79.2668C554.97 78.2095 554.918 77.6255 554.972 77.6175C555.012 77.6122 555.155 78.1842 555.302 79.2402C555.45 80.2935 555.582 81.8322 555.64 83.7335C555.7 85.6348 555.676 87.8975 555.7 90.3988C555.728 92.8962 555.835 95.6442 556.334 98.4642C556.839 101.275 557.74 103.884 559.048 105.967C560.352 108.054 562 109.611 563.56 110.622C566.742 112.671 569.276 112.436 569.227 112.6Z" fill="white"/>
<path d="M673.555 490.973L663.398 477.712L662.87 477.024L645.568 489.891L661.59 507.493L661.004 525.308C652.08 527.615 650.74 532.074 650.74 532.074L669.291 532.054L686.138 499.601L673.555 490.973Z" fill="#F03D5F"/>
<path d="M650.74 532.074L652.827 529.284L667.912 528.439L683.46 497.765L686.138 499.601L669.291 532.054L650.74 532.074Z" fill="#F89DB4"/>
<path d="M661.117 517.146C661.255 517.334 662.324 516.727 663.759 516.767C665.195 516.765 666.247 517.403 666.389 517.216C666.564 517.076 665.517 515.965 663.769 515.951C662.024 515.919 660.947 517 661.117 517.146Z" fill="#17282F"/>
<path d="M661.414 512.726C661.6 512.858 662.424 511.764 663.904 511.473C665.38 511.168 666.565 511.86 666.686 511.666C666.749 511.584 666.534 511.273 666.013 510.99C665.502 510.707 664.657 510.49 663.744 510.673C662.829 510.858 662.133 511.382 661.77 511.842C661.4 512.305 661.322 512.674 661.414 512.726Z" fill="#17282F"/>
<path d="M661.29 507.052C661.492 507.155 662.124 506.082 663.418 505.634C664.703 505.17 665.868 505.606 665.963 505.4C666.012 505.306 665.778 505.049 665.263 504.855C664.758 504.664 663.958 504.578 663.144 504.866C662.332 505.154 661.763 505.722 661.492 506.19C661.212 506.661 661.194 507.01 661.29 507.052Z" fill="#17282F"/>
<path d="M656.322 502.656C656.542 502.734 657.063 501.679 658.215 500.934C659.344 500.153 660.519 500.075 660.531 499.841C660.594 499.627 659.156 499.312 657.76 500.255C656.358 501.183 656.099 502.632 656.322 502.656Z" fill="#17282F"/>
<path d="M653.9 498.849C653.993 498.91 654.605 498.164 655.517 496.907C656.032 496.173 656.552 495.433 657.084 494.674C657.353 494.24 657.727 493.861 657.944 493.176C658.04 492.829 658.032 492.42 657.831 492.048C657.641 491.656 657.117 491.407 656.711 491.464C655.901 491.582 655.449 491.998 654.979 492.365C654.525 492.756 654.152 493.198 653.853 493.653C653.256 494.568 652.975 495.526 652.881 496.331C652.701 497.972 653.239 498.905 653.304 498.864C653.447 498.832 653.141 497.884 653.451 496.422C653.607 495.701 653.915 494.862 654.475 494.074C654.756 493.685 655.093 493.308 655.492 492.977C655.881 492.66 656.391 492.313 656.771 492.277C656.955 492.27 657.043 492.319 657.123 492.445C657.2 492.582 657.223 492.782 657.172 492.972C657.072 493.367 656.715 493.826 656.456 494.264C655.973 495.053 655.503 495.825 655.035 496.59C654.247 497.929 653.805 498.786 653.9 498.849Z" fill="#17282F"/>
<path d="M653.238 499.4C653.324 499.394 653.254 498.419 652.247 497.305C651.27 496.25 649.127 495.124 646.748 496.315C646.579 496.461 646.444 496.725 646.46 496.978C646.471 497.236 646.582 497.426 646.684 497.566C646.904 497.854 647.147 497.997 647.35 498.15C647.78 498.452 648.224 498.7 648.662 498.898C649.536 499.3 650.387 499.5 651.102 499.578C652.543 499.733 653.412 499.453 653.394 499.362C653.383 499.231 652.515 499.297 651.196 499.009C650.538 498.865 649.771 498.624 648.987 498.221C648.595 498.021 648.199 497.782 647.815 497.5C647.622 497.352 647.424 497.214 647.336 497.082C647.246 496.919 647.268 496.966 647.299 496.918C647.359 496.849 647.607 496.773 647.836 496.717C648.066 496.662 648.296 496.628 648.524 496.612C648.982 496.577 649.428 496.614 649.843 496.705C650.676 496.884 651.351 497.29 651.846 497.718C652.835 498.597 653.112 499.452 653.238 499.4Z" fill="#17282F"/>
<path d="M673.539 501.248C672.324 501.248 671.339 500.263 671.339 499.048C671.339 497.831 672.324 496.846 673.539 496.846C674.754 496.846 675.74 497.831 675.74 499.048C675.74 500.263 674.754 501.248 673.539 501.248Z" fill="#F89DB4"/>
<path d="M664.526 479.184L663.636 478.024H663.638L664.526 479.184Z" fill="#979999"/>
<path d="M650.74 495.574L648.564 493.184L647.179 491.661L663.637 478.024L664.525 479.184L665.717 480.741L650.74 495.574Z" fill="#BA2C42"/>
<path d="M553.194 257.248L568.569 383.886C570.054 396.122 572.13 407.889 580.429 417L640.597 496.589L675.74 469.864L612.612 371.986L619.014 245.834L554.458 256.856" fill="#17282F"/>
<path d="M572.606 492.708L574.761 517.352C574.761 517.352 550.436 527.82 550.392 532.413H598.534L596.541 491.413L572.606 492.708Z" fill="#F03D5F"/>
<path d="M589.125 518.183C589.021 518.183 588.917 518.172 588.813 518.152C587.869 517.963 586.998 516.775 587.27 515.852C587.492 515.103 588.352 514.452 589.134 514.452C589.314 514.452 589.492 514.487 589.654 514.563C590.502 514.848 591.101 515.791 590.945 516.677C590.797 517.523 589.97 518.183 589.125 518.183Z" fill="#F89DB4"/>
<path d="M550.436 532.073C550.408 532.073 550.386 532.073 550.358 532.073C550.377 531.153 551.262 530.444 551.785 530.103C551.056 530.821 550.578 531.486 550.436 532.073Z" fill="#FBFBFA"/>
<path d="M550.392 532.413C550.367 532.297 550.357 532.184 550.359 532.074C550.387 532.074 550.408 532.074 550.436 532.074C550.408 532.189 550.393 532.303 550.392 532.413Z" fill="#9BA6A6"/>
<path d="M598.534 532.413H550.392C550.393 532.303 550.408 532.189 550.436 532.074C550.578 531.487 551.056 530.821 551.785 530.104C552.005 529.962 552.16 529.884 552.16 529.884L598.168 528.109L598.534 532.413Z" fill="#F89DB4"/>
<path d="M573.974 517.148C573.992 517.382 575.168 517.427 576.36 518.121C577.568 518.782 578.214 519.767 578.423 519.662C578.638 519.605 578.216 518.224 576.76 517.41C575.312 516.584 573.912 516.936 573.974 517.148Z" fill="#17282F"/>
<path d="M569.052 519.486C569.011 519.716 570.044 520.061 570.891 521.01C571.764 521.934 572.02 522.994 572.252 522.973C572.473 522.997 572.565 521.619 571.491 520.458C570.428 519.289 569.045 519.262 569.052 519.486Z" fill="#17282F"/>
<path d="M566.507 525.65C566.722 525.689 566.987 524.501 566.32 523.252C565.662 521.994 564.532 521.546 564.443 521.746C564.32 521.945 565.067 522.597 565.599 523.633C566.155 524.656 566.272 525.638 566.507 525.65Z" fill="#17282F"/>
<path d="M574.104 511.477C574.213 511.685 575.27 511.307 576.598 511.327C577.926 511.325 578.978 511.715 579.09 511.507C579.217 511.331 578.168 510.517 576.604 510.513C575.04 510.497 573.98 511.3 574.104 511.477Z" fill="#17282F"/>
<path d="M573.418 501.981L573.039 497.589L596.792 496.589L596.966 500.555L573.418 501.981Z" fill="#BA2C42"/>
<path d="M573.762 506.498C573.764 506.594 574.696 506.692 576.162 506.361C576.891 506.196 577.746 505.912 578.635 505.462C579.078 505.235 579.53 504.969 579.974 504.658C580.188 504.505 580.443 504.349 580.671 504.056C580.918 503.8 581.032 503.17 580.714 502.807C580.45 502.451 580.007 502.315 579.66 502.324C579.307 502.329 579.026 502.416 578.767 502.493C578.24 502.652 577.75 502.855 577.302 503.082C576.407 503.546 575.69 504.112 575.162 504.651C574.103 505.737 573.768 506.631 573.851 506.672C573.96 506.744 574.464 505.984 575.552 505.075C576.094 504.623 576.794 504.149 577.631 503.758C578.051 503.565 578.506 503.394 578.987 503.263C579.488 503.104 579.919 503.077 580.062 503.296C580.114 503.381 580.122 503.415 580.023 503.568C579.919 503.711 579.722 503.856 579.511 504.007C579.102 504.307 578.688 504.568 578.28 504.798C577.466 505.256 576.68 505.58 576.006 505.807C574.651 506.26 573.752 506.37 573.762 506.498Z" fill="#17282F"/>
<path d="M574.084 506.818C574.168 506.849 574.589 505.987 574.597 504.467C574.599 503.713 574.473 502.806 574.136 501.855C573.964 501.382 573.737 500.899 573.449 500.43C573.143 499.97 572.768 499.353 571.856 499.295C571.38 499.301 571.005 499.692 570.887 500.016C570.745 500.348 570.728 500.628 570.687 500.91C570.627 501.474 570.665 502.022 570.767 502.527C570.971 503.539 571.432 504.365 571.92 504.952C572.92 506.147 573.912 506.377 573.927 506.296C574 506.175 573.16 505.765 572.383 504.607C571.999 504.039 571.644 503.277 571.507 502.391C571.437 501.949 571.419 501.479 571.479 501.001C571.529 500.489 571.697 500.068 571.892 500.11C572.131 500.095 572.555 500.456 572.772 500.853C573.04 501.271 573.257 501.7 573.433 502.124C573.779 502.975 573.952 503.798 574.023 504.495C574.16 505.899 573.955 506.788 574.084 506.818Z" fill="#17282F"/>
<path d="M552.951 252.142C552.951 252.142 543.563 313.599 545.66 381.899C546.931 423.279 565.272 497.914 565.272 497.914L607.376 496.143L599.721 398.39L603.3 338.371C604.772 321.178 613.045 297.898 620.821 284.446C623.656 279.542 625.703 274.205 626.735 268.634C629.088 255.91 625.735 246.842 619.679 231.386L552.951 252.142Z" fill="#17282F"/>
<path d="M625.663 275.337C625.663 275.337 625.588 275.573 625.408 276.016C625.226 276.459 624.944 277.112 624.558 277.957C623.788 279.651 622.591 282.108 620.959 285.204C620.142 286.752 619.219 288.459 618.187 290.308C617.122 292.147 616.071 294.159 615.086 296.413C613.106 300.901 611.13 306.115 609.139 311.889L609.15 311.843C606.811 327.877 604.136 348.032 602.186 369.937C601.63 376.729 601.103 383.365 600.851 389.783C600.574 396.203 600.414 402.391 600.815 408.277C601.71 420.049 602.515 430.655 603.192 439.575C603.842 448.457 604.367 455.657 604.735 460.68C604.899 463.143 605.028 465.069 605.119 466.422C605.152 467.049 605.18 467.546 605.2 467.916C605.215 468.253 605.218 468.427 605.204 468.427C605.194 468.428 605.168 468.256 605.131 467.922C605.092 467.551 605.043 467.058 604.979 466.432C604.859 465.082 604.686 463.16 604.466 460.701C604.046 455.681 603.444 448.486 602.702 439.608C601.982 430.688 601.127 420.086 600.178 408.315C599.755 402.413 599.902 396.173 600.171 389.753C600.415 383.321 600.938 376.677 601.494 369.879C603.446 347.947 606.174 327.795 608.598 311.759L608.602 311.732L608.61 311.711C610.638 305.928 612.648 300.721 614.676 296.229C615.678 293.983 616.772 291.933 617.851 290.119C618.9 288.281 619.843 286.588 620.679 285.053C622.351 281.987 623.591 279.553 624.407 277.885C624.8 277.077 625.106 276.444 625.33 275.983C625.536 275.551 625.663 275.337 625.663 275.337Z" fill="#33535F"/>
<path d="M612.876 372.001C613.041 372.162 609.545 374.791 607.277 379.501C604.94 384.178 605.001 388.551 604.772 388.519C604.696 388.521 604.567 387.445 604.745 385.71C604.919 383.979 605.48 381.598 606.653 379.195C607.836 376.797 609.376 374.895 610.639 373.699C611.901 372.495 612.831 371.938 612.876 372.001Z" fill="#33535F"/>
<path d="M494.88 92.9385C494.201 89.7491 494.461 86.3145 494.494 83.0571C494.5 82.5211 494.796 81.9718 495.248 81.6811C495.676 81.4078 496.258 81.4665 496.697 81.7251C497.137 81.9851 497.45 82.4118 497.696 82.8585C498.578 84.4705 498.458 88.8438 498.534 91.9545" fill="#F68260"/>
<path d="M489.933 107.051C489.933 107.051 486.948 100.44 487.928 98.7561C488.911 97.0708 499.176 91.3241 498.648 90.6441C498.121 89.9641 497.127 82.3748 498.937 81.9801C500.376 81.6668 501.255 82.2094 501.629 84.5788C501.827 85.8334 503.845 92.6294 502.805 93.5868C501.764 94.5454 499.712 106.189 499.712 106.189L489.933 107.051Z" fill="#F8A58D"/>
<path d="M508.248 105.437C508.248 104.534 508.859 95.4357 502.723 91.269L493.616 83.869C492.418 82.8944 490.534 83.565 490.355 85.0997C490.248 86.0117 490.454 87.1317 491.34 88.413C493.872 92.0744 497.943 96.3677 497.943 96.3677C497.943 96.3677 490.534 99.4104 492.77 106.804L508.248 105.437Z" fill="#F8A58D"/>
<path d="M492.408 105.065C492.38 105.073 492.306 104.815 492.194 104.301C492.173 103.791 492.162 102.988 492.548 102.075C493.254 100.225 495.072 97.9906 497.781 95.9093L497.741 96.3266C496.166 94.6719 494.446 92.7573 492.705 90.5719C492.273 90.0226 491.838 89.4573 491.416 88.8693C490.993 88.2973 490.544 87.6413 490.278 86.8973C490.013 86.1479 489.878 85.3373 490.082 84.4733C490.322 83.5839 491.166 82.9412 492.062 82.8492C492.758 82.7599 493.522 83.0519 493.982 83.4906C494.448 83.8679 494.909 84.2426 495.364 84.6146C496.273 85.3572 497.165 86.0852 498.033 86.7946C499.76 88.2119 501.397 89.5559 502.914 90.8013L502.893 90.7866C504.686 92.0319 505.966 93.6466 506.754 95.2199C507.56 96.7959 507.897 98.3172 508.06 99.5599C508.22 100.809 508.201 101.799 508.164 102.468C508.118 103.139 508.065 103.488 508.036 103.489C507.929 103.491 508.098 102.048 507.706 99.6132C507.497 98.4052 507.121 96.9426 506.313 95.4479C505.517 93.9572 504.274 92.4506 502.552 91.2879L502.541 91.2812L502.53 91.2719C501.002 90.0426 499.352 88.7159 497.61 87.3159C496.738 86.6106 495.844 85.8866 494.929 85.1492C494.473 84.7786 494.012 84.4052 493.546 84.0266C493.129 83.6466 492.658 83.4946 492.138 83.5386C491.489 83.6106 490.91 84.0612 490.749 84.6626C490.597 85.2826 490.689 86.0279 490.921 86.6639C491.156 87.3226 491.536 87.8919 491.962 88.4772C492.374 89.0586 492.8 89.6199 493.222 90.1653C494.925 92.3413 496.617 94.2759 498.142 95.9452L498.356 96.1759L498.104 96.3612C495.434 98.3319 493.59 100.471 492.84 102.193C492.426 103.051 492.393 103.796 492.36 104.291C492.417 104.784 492.434 105.057 492.408 105.065Z" fill="#F68260"/>
<path d="M497.77 96.4492C497.905 96.6158 495.742 98.0718 494.412 100.855C493.029 103.615 493.205 106.215 492.992 106.212C492.909 106.22 492.744 105.584 492.772 104.527C492.797 103.476 493.077 102.009 493.788 100.551C494.504 99.0945 495.489 97.9732 496.306 97.3092C497.122 96.6385 497.726 96.3785 497.77 96.4492Z" fill="white"/>
<path d="M553.303 237.407C553.753 238.029 553.059 251.775 553.059 251.775L619.787 231.021L610.716 208.265L553.303 237.407Z" fill="#33535F"/>
<path d="M616.539 202.721L613.367 194.297L614.794 178.575L620.275 158.011C624.16 143.431 613.852 128.751 598.794 127.784C598.624 127.773 598.455 127.763 598.283 127.755L598.033 121.504C597.988 120.367 597.034 119.481 595.896 119.521L569.159 120.483C568.032 120.523 567.147 121.457 567.168 122.585L567.275 128.355C562.064 129.695 552.473 133.563 546.789 144.304L546.781 144.277L545.66 176.352V192.364C545.737 202.436 545.66 212.973 545.66 212.973V230.412C545.66 234.779 549.295 239.3 553.386 237.773L611.225 214.752C615.979 212.86 618.343 207.509 616.539 202.721Z" fill="#F03D5F"/>
<path d="M559.64 131.353L519.439 157.637L513.418 104.981L489.271 107.109L493.092 163.48C493.753 174.446 499.145 184.674 509.669 187.832L510.801 188.172C517.609 190.214 524.973 189.094 530.867 185.121L561.625 164.377L561.121 154.61L559.64 131.353Z" fill="#F03D5F"/>
<path d="M595.149 138.804L545.66 186.329L481.365 194.808L482.924 211.712L547.497 212.804C552.059 212.386 556.377 210.565 559.86 207.59L614.387 161.012C621.041 155.328 621.281 145.122 614.9 139.132C609.384 133.952 600.835 133.81 595.149 138.804Z" fill="#F03D5F"/>
<path d="M615.968 160.007C615.984 160.023 615.779 160.27 615.372 160.723C614.912 161.223 614.312 161.875 613.567 162.686C611.922 164.427 609.636 166.847 606.835 169.813C601.103 175.789 593.267 184.103 584.379 193.097C579.89 197.55 575.347 201.566 570.814 204.685C566.306 207.837 561.799 210.03 557.834 211.302C553.866 212.585 550.492 212.993 548.179 213.121C547.019 213.166 546.118 213.179 545.507 213.143C544.898 213.119 544.578 213.095 544.579 213.071C544.579 213.047 544.899 213.025 545.507 213.003C546.115 212.994 547.011 212.937 548.16 212.851C550.452 212.642 553.779 212.163 557.679 210.835C561.578 209.519 566.002 207.31 570.448 204.159C574.92 201.041 579.416 197.042 583.891 192.603C592.688 183.595 600.65 175.442 606.482 169.471C609.35 166.57 611.69 164.202 613.372 162.498C614.158 161.725 614.788 161.103 615.272 160.626C615.711 160.203 615.951 159.99 615.968 160.007Z" fill="#17282F"/>
<path d="M610.674 137.148C610.64 137.225 609.598 136.576 607.498 136.095C605.411 135.649 602.188 135.599 598.575 136.944C596.787 137.627 594.89 138.581 593.094 139.943C591.288 141.288 589.586 143.029 587.878 144.924C584.463 148.725 581.202 153.337 577.371 157.877C569.7 166.931 562.12 174.569 556.219 179.64C553.264 182.167 550.728 184.061 548.808 185.113C548.343 185.396 547.883 185.572 547.51 185.761C547.138 185.959 546.799 186.072 546.514 186.135C545.955 186.287 545.664 186.353 545.66 186.329C545.642 186.249 546.83 186.016 548.672 184.881C550.524 183.771 552.998 181.832 555.896 179.271C561.687 174.131 569.196 166.455 576.839 157.431C580.646 152.921 583.928 148.311 587.403 144.496C589.14 142.596 590.879 140.845 592.752 139.48C594.611 138.103 596.566 137.151 598.408 136.481C602.131 135.163 605.447 135.295 607.559 135.831C609.686 136.405 610.674 137.148 610.674 137.148Z" fill="#17282F"/>
<path d="M564.1 138.88C564.124 138.887 564.084 139.068 563.987 139.408C563.88 139.743 563.752 140.252 563.508 140.878C563.044 142.138 562.233 143.914 561.009 145.982C559.789 148.052 558.143 150.394 556.265 152.934C554.395 155.478 552.308 158.251 550.473 161.371C546.785 167.634 545.599 174.283 545.484 178.999C545.376 183.756 546.108 186.66 545.956 186.682C545.932 186.687 545.876 186.51 545.791 186.167C545.712 185.824 545.573 185.319 545.473 184.656C545.231 183.338 544.997 181.399 544.993 178.992C544.981 174.215 546.112 167.408 549.873 161.022C551.739 157.851 553.855 155.074 555.752 152.551C557.657 150.034 559.329 147.743 560.589 145.726C561.855 143.714 562.721 141.992 563.257 140.775C563.781 139.554 564.047 138.862 564.1 138.88Z" fill="#17282F"/>
<path d="M556.77 235.752C556.742 235.831 556.153 235.725 555.358 235.201C554.57 234.691 553.605 233.692 553.115 232.293C552.627 230.893 552.759 229.511 553.057 228.621C553.353 227.715 553.749 227.267 553.818 227.309C553.914 227.359 553.687 227.877 553.533 228.74C553.375 229.593 553.339 230.825 553.77 232.064C554.205 233.301 555.001 234.241 555.657 234.812C556.313 235.391 556.813 235.655 556.77 235.752Z" fill="#17282F"/>
<path d="M567.728 232.452C567.684 232.522 567.155 232.31 566.46 231.718C565.766 231.133 564.95 230.125 564.424 228.825C563.906 227.521 563.799 226.229 563.895 225.326C563.988 224.418 564.224 223.9 564.306 223.92C564.512 223.948 564.066 226.14 565.07 228.566C566.022 231.013 567.859 232.289 567.728 232.452Z" fill="#17282F"/>
<path d="M579.836 227.039C579.64 227.097 578.934 225.125 577.662 222.908C576.406 220.681 575.071 219.067 575.22 218.929C575.346 218.8 576.959 220.255 578.264 222.565C579.584 224.867 580.011 226.997 579.836 227.039Z" fill="#17282F"/>
<path d="M591.144 223.056C590.935 223.077 590.689 220.786 589.492 218.278C588.324 215.756 586.719 214.105 586.868 213.958C586.969 213.816 588.883 215.321 590.121 217.984C591.38 220.634 591.317 223.07 591.144 223.056Z" fill="#17282F"/>
<path d="M603.566 217.505C603.355 217.515 603.588 214.834 601.935 212.159C600.342 209.449 597.862 208.405 597.968 208.222C597.995 208.147 598.655 208.283 599.587 208.83C600.516 209.369 601.67 210.382 602.53 211.801C603.383 213.223 603.74 214.717 603.783 215.79C603.832 216.869 603.644 217.517 603.566 217.505Z" fill="#17282F"/>
<path d="M598.808 224.947C598.848 224.975 598.558 225.429 597.996 226.229C597.448 227.038 596.559 228.143 595.383 229.437C594.215 230.741 592.696 232.178 590.907 233.65C589.095 235.091 586.998 236.55 584.662 237.858C582.314 239.143 579.963 240.145 577.778 240.914C575.582 241.65 573.556 242.171 571.831 242.469C570.11 242.777 568.702 242.943 567.726 242.979C566.75 243.029 566.21 243.034 566.207 242.987C566.196 242.855 568.351 242.719 571.735 241.987C573.427 241.633 575.411 241.069 577.566 240.311C579.707 239.519 582.014 238.515 584.326 237.25C586.626 235.963 588.7 234.543 590.51 233.149C592.295 231.726 593.827 230.346 595.027 229.099C597.443 226.622 598.704 224.869 598.808 224.947Z" fill="#17282F"/>
<path d="M564.334 214.746C559.094 214.746 553.729 213.946 548.556 213.098C550.852 212.947 554.076 212.517 557.833 211.302C557.894 211.282 557.956 211.262 558.017 211.242C558.16 211.197 558.302 211.149 558.445 211.099C562.258 209.803 566.534 207.675 570.813 204.685C575.346 201.566 579.889 197.55 584.378 193.097C592.661 184.715 600.03 176.925 605.634 171.066C603.186 180.469 599.164 189.459 593.781 197.547C590.017 203.205 585.418 208.562 579.344 211.607C574.673 213.949 569.566 214.746 564.334 214.746Z" fill="#BA2C42"/>
<path d="M548.556 213.099C548.414 213.076 548.272 213.052 548.132 213.029L555.034 211.948C556.046 211.789 557.044 211.555 558.017 211.243C557.956 211.263 557.894 211.283 557.833 211.303C554.076 212.517 550.852 212.948 548.556 213.099ZM558.445 211.1C559.036 210.896 559.617 210.663 560.186 210.399C571.398 205.219 581.661 195.627 590.154 186.879C595.329 181.548 600.505 176.216 605.681 170.885C605.665 170.945 605.649 171.007 605.634 171.067C600.03 176.925 592.661 184.716 584.378 193.097C579.889 197.551 575.346 201.567 570.813 204.685C566.534 207.676 562.258 209.804 558.445 211.1Z" fill="#0F191D"/>
<path d="M598.261 127.72C598.28 127.831 596.261 127.715 593.588 129.301C592.247 130.049 590.779 131.168 589.045 132.309C587.332 133.449 585.212 134.564 582.784 134.905C580.371 135.279 578.024 135.005 576.013 134.427C573.997 133.841 572.308 132.975 570.983 132.133C569.655 131.288 568.673 130.477 568.024 129.893C567.375 129.304 567.053 128.941 567.084 128.908C567.163 128.812 568.58 130.144 571.237 131.713C572.568 132.485 574.233 133.28 576.185 133.811C578.132 134.335 580.383 134.575 582.677 134.219C584.984 133.892 586.984 132.868 588.7 131.772C590.423 130.679 591.943 129.584 593.355 128.869C594.753 128.136 596.013 127.783 596.893 127.685C597.777 127.592 598.264 127.684 598.261 127.72Z" fill="#17282F"/>
<path d="M508.317 187.377C508.312 187.396 507.984 187.325 507.387 187.105C506.791 186.884 505.927 186.502 504.884 185.888C502.812 184.673 499.935 182.502 497.456 178.918C496.835 178.029 496.241 177.058 495.68 176.018C495.111 174.988 494.581 173.848 494.2 172.624C493.403 170.178 493.085 167.448 492.876 164.61C492.509 158.929 492.105 152.697 491.683 146.153C490.9 133.088 490.191 121.264 489.672 112.612C489.579 108.316 488.62 104.949 488.391 102.537C488.253 101.337 488.22 100.396 488.247 99.761C488.247 99.4424 488.279 99.201 488.292 99.0384C488.307 98.8757 488.321 98.7944 488.333 98.7957C488.363 98.7957 488.363 99.129 488.385 99.7597C488.405 100.389 488.481 101.317 488.659 102.501C488.964 104.862 490.003 108.252 490.161 112.578C490.733 121.228 491.513 133.048 492.376 146.109C492.78 152.653 493.164 158.884 493.515 164.565C493.704 167.388 493.997 170.07 494.749 172.45C495.109 173.646 495.6 174.736 496.152 175.766C496.693 176.797 497.263 177.758 497.861 178.64C500.243 182.194 503.019 184.385 505.027 185.657C506.033 186.3 506.867 186.714 507.44 186.976C508.015 187.236 508.327 187.349 508.317 187.377Z" fill="white"/>
<path d="M560.588 130.3C560.617 130.34 559.986 130.835 558.825 131.697C557.664 132.56 555.965 133.784 553.852 135.276C549.625 138.261 543.728 142.301 537.126 146.631C530.521 150.959 524.462 154.755 520.038 157.439C517.828 158.781 516.029 159.851 514.773 160.571C513.519 161.292 512.813 161.672 512.788 161.631C512.762 161.591 513.42 161.132 514.632 160.341C515.946 159.493 517.681 158.375 519.779 157.021C524.135 154.233 530.145 150.375 536.747 146.049C543.343 141.725 549.278 137.752 553.573 134.872C555.649 133.488 557.368 132.343 558.67 131.476C559.878 130.681 560.561 130.261 560.588 130.3Z" fill="white"/>
<path d="M558.64 152.134C558.725 152.241 557.117 153.468 554.953 155.87C553.862 157.062 552.689 158.592 551.518 160.373C550.381 162.176 549.265 164.242 548.336 166.521C547.432 168.812 546.806 171.076 546.382 173.165C545.997 175.262 545.788 177.178 545.752 178.793C545.653 182.025 545.968 184.024 545.832 184.041C545.785 184.048 545.684 183.554 545.538 182.65C545.461 182.198 545.382 181.644 545.352 180.993C545.313 180.345 545.232 179.605 545.26 178.785C545.234 177.145 545.394 175.19 545.753 173.048C546.15 170.914 546.769 168.598 547.692 166.262C548.64 163.94 549.794 161.838 550.982 160.021C552.204 158.226 553.44 156.704 554.592 155.537C555.14 154.925 555.709 154.446 556.186 154.004C556.657 153.556 557.097 153.209 557.468 152.937C558.196 152.384 558.61 152.097 558.64 152.134Z" fill="white"/>
<path d="M543.175 187.949C543.196 188.139 529.456 189.878 512.486 191.83C495.511 193.785 481.736 195.213 481.715 195.022C481.694 194.831 495.431 193.094 512.407 191.141C529.376 189.187 543.154 187.758 543.175 187.949Z" fill="white"/>
<path d="M568.751 120.835C568.751 120.933 568.279 120.949 567.895 121.475C567.473 121.963 567.472 122.903 567.496 124.028C567.492 126.252 567.335 128.055 567.141 128.055C566.951 128.053 566.799 126.252 566.803 124.027C566.807 123.477 566.795 122.936 566.892 122.415C566.98 121.9 567.222 121.424 567.532 121.144C568.175 120.544 568.801 120.749 568.751 120.835Z" fill="white"/>
<path d="M841.291 422.929C853.435 427.168 869.276 423.38 879.666 415.793C890.054 408.208 897.53 397.337 904.155 386.312C906.983 381.607 909.744 376.701 910.638 371.285C911.531 365.871 910.214 359.776 906.015 356.243C899.487 350.749 889.484 353.536 882.072 357.757C858.871 370.971 843.031 396.287 841.291 422.929Z" fill="#F03D5F"/>
<path d="M854.329 451.994C861.622 461.616 874.153 465.9 886.213 466.458C898.274 467.017 910.193 463.682 921.465 459.357C925.554 457.788 930.03 455.637 931.432 451.488C932.493 448.345 931.401 444.767 929.297 442.204C927.192 439.641 924.208 437.955 921.157 436.656C910.061 431.931 897.349 431.708 885.676 434.734C874.001 437.763 863.804 444.532 854.329 451.994Z" fill="#F03D5F"/>
<path d="M841.112 370.901C851.166 371.102 858.775 362.296 863.327 353.33C869.63 340.916 871.766 326.429 869.314 312.721C868.395 307.585 866.452 302.046 861.856 299.574C857.184 297.062 851.104 298.717 847.188 302.293C843.27 305.869 841.126 310.972 839.56 316.04C834.164 333.5 835.327 353.566 841.112 370.901Z" fill="#F03D5F"/>
<path d="M808.091 426.505C825.232 397.334 828.088 361.642 817.966 329.357C816.323 324.12 813.223 318.128 807.747 317.78C801.68 317.396 797.878 324.158 796.202 330.001C790.326 350.501 791.576 372.277 792.874 393.564C793.675 406.676 798.179 417.885 808.091 426.505Z" fill="#F03D5F"/>
<path d="M790.267 438.502C784.057 418.523 768.255 401.767 748.675 394.395C744.123 392.682 738.336 391.706 734.941 395.189C731.611 398.605 732.637 404.314 734.773 408.579C738.224 415.47 743.827 421.003 749.408 426.318C754.484 431.15 759.76 435.998 766.183 438.807C772.603 441.615 784.396 442.33 790.267 438.502Z" fill="#F03D5F"/>
<path d="M896.534 363.559C896.543 363.571 896.442 363.66 896.236 363.825C895.99 364.016 895.687 364.252 895.312 364.543C894.439 365.195 893.239 366.092 891.719 367.228C890.931 367.811 890.062 368.452 889.114 369.152C888.176 369.877 887.198 370.715 886.126 371.585C884.004 373.359 881.495 375.267 878.973 377.665C877.684 378.837 876.336 380.063 874.931 381.339C873.534 382.623 872.188 384.072 870.734 385.509C867.783 388.345 864.926 391.657 861.854 395.075C855.906 402.086 849.803 410.167 844.179 419.169C838.639 428.228 834.136 437.304 830.524 445.76C828.84 450.037 827.156 454.074 825.937 457.981C825.303 459.924 824.607 461.776 824.086 463.601C823.571 465.428 823.078 467.181 822.606 468.857C821.587 472.187 821.002 475.284 820.364 477.974C820.066 479.324 819.754 480.572 819.524 481.734C819.322 482.894 819.137 483.96 818.968 484.925C818.632 486.792 818.366 488.268 818.172 489.339C818.08 489.804 818.006 490.18 817.944 490.486C817.89 490.743 817.853 490.875 817.84 490.872C817.825 490.87 817.834 490.735 817.863 490.474C817.903 490.165 817.951 489.786 818.011 489.317C818.168 488.236 818.384 486.752 818.658 484.874C818.807 483.901 818.968 482.829 819.145 481.661C819.353 480.493 819.643 479.237 819.922 477.88C820.52 475.175 821.067 472.06 822.054 468.711C822.511 467.024 822.988 465.26 823.487 463.423C823.996 461.587 824.679 459.723 825.303 457.768C826.498 453.836 828.164 449.776 829.837 445.474C833.424 436.968 837.926 427.843 843.491 418.746C849.139 409.704 855.288 401.6 861.291 394.588C864.391 391.168 867.278 387.864 870.259 385.036C871.728 383.604 873.089 382.16 874.504 380.884C875.925 379.617 877.29 378.401 878.594 377.239C881.148 374.859 883.691 372.976 885.844 371.232C886.934 370.376 887.927 369.553 888.879 368.845C889.845 368.164 890.731 367.54 891.534 366.975C893.092 365.888 894.324 365.032 895.219 364.408C895.612 364.145 895.931 363.931 896.19 363.759C896.411 363.615 896.527 363.547 896.534 363.559Z" fill="#17282F"/>
<path d="M919.234 444.423C919.226 444.448 918.82 444.381 918.056 444.226C917.29 444.088 916.178 443.793 914.718 443.548C911.818 442.982 907.58 442.342 902.31 442.033C891.823 441.363 876.92 442.603 862.007 448.811C847.087 455.017 835.7 464.715 828.786 472.626C825.291 476.583 822.758 480.042 821.116 482.498C820.259 483.705 819.687 484.702 819.244 485.342C818.815 485.993 818.579 486.329 818.554 486.315C818.531 486.302 818.72 485.938 819.104 485.259C819.503 484.588 820.034 483.562 820.854 482.326C822.42 479.807 824.894 476.279 828.356 472.25C835.202 464.194 846.635 454.329 861.698 448.064C876.752 441.798 891.806 440.64 902.346 441.462C907.643 441.847 911.891 442.578 914.782 443.242C916.236 443.533 917.339 443.879 918.095 444.067C918.848 444.274 919.24 444.395 919.234 444.423Z" fill="#17282F"/>
<path d="M855.931 311.219C855.944 311.222 855.922 311.377 855.864 311.673C855.795 312.013 855.704 312.443 855.591 312.983C855.322 314.187 854.944 315.869 854.466 318.005C853.478 322.365 851.972 328.654 850.08 336.417C846.304 351.945 840.815 373.329 835.099 397.025C832.259 408.881 829.687 420.206 827.471 430.533C825.296 440.867 823.442 450.195 822.062 458.062C821.322 461.987 820.764 465.555 820.239 468.685C819.698 471.811 819.284 474.511 818.962 476.722C818.624 478.885 818.36 480.586 818.17 481.806C818.078 482.348 818.003 482.783 817.944 483.124C817.888 483.422 817.853 483.573 817.84 483.571C817.825 483.569 817.834 483.415 817.863 483.114C817.9 482.769 817.948 482.331 818.008 481.783C818.162 480.559 818.376 478.85 818.65 476.678C818.924 474.459 819.295 471.75 819.792 468.614C820.276 465.476 820.795 461.898 821.499 457.963C822.808 450.078 824.605 440.729 826.743 430.379C828.92 420.036 831.472 408.698 834.312 396.835C840.032 373.129 845.608 351.769 849.526 336.278C851.471 328.575 853.05 322.322 854.159 317.931C854.7 315.81 855.128 314.142 855.434 312.945C855.579 312.414 855.695 311.989 855.784 311.654C855.867 311.365 855.919 311.215 855.931 311.219Z" fill="#17282F"/>
<path d="M816.572 481.225C816.559 481.227 816.521 481.107 816.464 480.873C816.399 480.588 816.32 480.242 816.224 479.821C816.017 478.825 815.736 477.47 815.38 475.759C814.653 472.23 813.692 467.106 812.592 460.761C810.396 448.069 807.789 430.442 806.187 410.84C805.411 401.036 804.977 391.673 804.788 383.154C804.647 374.634 804.721 366.958 804.987 360.519C805.067 357.298 805.279 354.39 805.419 351.835C805.549 349.279 805.729 347.084 805.896 345.289C806.056 343.549 806.183 342.17 806.276 341.158C806.324 340.728 806.364 340.377 806.396 340.088C806.427 339.845 806.451 339.722 806.464 339.724C806.477 339.725 806.481 339.85 806.477 340.094C806.468 340.385 806.455 340.74 806.439 341.172C806.383 342.186 806.307 343.568 806.209 345.312C806.091 347.106 805.959 349.305 805.869 351.86C805.772 354.414 805.6 357.321 805.559 360.538C805.365 366.969 805.351 374.633 805.532 383.138C805.763 391.642 806.217 400.986 806.992 410.774C808.591 430.346 811.105 447.961 813.156 460.666C814.183 467.019 815.059 472.157 815.689 475.701C815.981 477.423 816.213 478.788 816.383 479.789C816.448 480.217 816.501 480.567 816.544 480.855C816.576 481.098 816.587 481.222 816.572 481.225Z" fill="#17282F"/>
<path d="M817.84 484.931C817.812 484.937 817.66 484.592 817.394 483.922C817.107 483.176 816.732 482.202 816.264 480.989C816.02 480.343 815.752 479.636 815.46 478.868C815.119 478.104 814.752 477.281 814.36 476.401C813.966 475.513 813.544 474.567 813.101 473.567C812.657 472.562 812.084 471.55 811.54 470.461C810.983 469.376 810.399 468.241 809.792 467.06C809.121 465.909 808.425 464.713 807.707 463.477C806.331 460.961 804.551 458.461 802.832 455.738C799.158 450.445 794.839 444.822 789.923 439.24C784.955 433.7 779.885 428.738 775.108 424.41C772.644 422.332 770.388 420.255 768.109 418.512C766.989 417.62 765.907 416.757 764.864 415.926C763.796 415.138 762.767 414.38 761.786 413.656C759.842 412.18 758.012 410.946 756.403 409.869C754.809 408.765 753.416 407.845 752.245 407.144C751.147 406.446 750.265 405.888 749.589 405.46C748.987 405.067 748.678 404.849 748.691 404.825C748.704 404.8 749.041 404.972 749.671 405.32C750.367 405.714 751.277 406.231 752.409 406.876C753.608 407.537 755.029 408.421 756.651 409.492C758.289 410.537 760.147 411.741 762.119 413.192C763.115 413.905 764.157 414.653 765.241 415.431C766.297 416.252 767.394 417.105 768.527 417.989C770.834 419.713 773.115 421.781 775.601 423.853C780.425 428.168 785.535 433.137 790.528 438.702C795.467 444.312 799.79 449.98 803.45 455.322C805.16 458.07 806.927 460.596 808.287 463.138C808.995 464.389 809.68 465.6 810.34 466.765C810.935 467.958 811.506 469.106 812.052 470.207C812.583 471.309 813.141 472.334 813.568 473.352C813.993 474.365 814.396 475.324 814.775 476.224C815.147 477.116 815.495 477.95 815.817 478.725C816.087 479.505 816.334 480.224 816.56 480.88C816.97 482.116 817.297 483.11 817.548 483.872C817.765 484.557 817.865 484.921 817.84 484.931Z" fill="#17282F"/>
<path d="M890.177 397.394C890.174 397.522 888.098 397.523 884.762 397.708C881.426 397.891 876.829 398.327 871.824 399.274C866.82 400.228 862.381 401.508 859.21 402.561C856.038 403.611 854.109 404.372 854.058 404.253C854.036 404.203 854.496 403.956 855.346 403.555C856.194 403.148 857.448 402.619 859.021 402.023C862.162 400.825 866.622 399.443 871.674 398.48C876.726 397.526 881.38 397.175 884.742 397.138C886.424 397.116 887.785 397.148 888.724 397.215C889.661 397.278 890.18 397.338 890.177 397.394Z" fill="#17282F"/>
<path d="M903.109 460.548C902.865 460.676 900.927 455.089 896.055 449.907C891.245 444.662 885.817 442.318 885.963 442.084C885.997 442 887.387 442.465 889.445 443.624C891.501 444.777 894.18 446.709 896.647 449.357C899.104 452.01 900.832 454.825 901.831 456.961C902.835 459.1 903.195 460.52 903.109 460.548Z" fill="#17282F"/>
<path d="M859.015 334.903C859.179 335.077 856.022 338.205 852.578 342.444C849.116 346.671 846.687 350.391 846.483 350.267C846.304 350.164 848.448 346.213 851.951 341.935C855.438 337.644 858.879 334.747 859.015 334.903Z" fill="#17282F"/>
<path d="M848.658 317.019C848.878 316.982 849.578 320.01 850.22 323.783C850.864 327.558 851.205 330.647 850.985 330.684C850.765 330.722 850.066 327.694 849.422 323.919C848.781 320.147 848.438 317.056 848.658 317.019Z" fill="#17282F"/>
<path d="M816.593 373.14C816.792 373.243 814.545 377.971 811.577 383.697C808.607 389.428 806.039 393.988 805.841 393.884C805.643 393.781 807.889 389.055 810.86 383.325C813.828 377.599 816.396 373.037 816.593 373.14Z" fill="#17282F"/>
<path d="M797.508 354.086C797.708 353.988 799.612 357.406 801.76 361.724C803.911 366.044 805.489 369.622 805.291 369.722C805.091 369.822 803.188 366.402 801.037 362.084C798.889 357.768 797.309 354.186 797.508 354.086Z" fill="#17282F"/>
<path d="M769.46 419.248C769.407 419.479 766.004 418.818 761.76 418.526C757.519 418.215 754.058 418.39 754.036 418.154C754.01 417.946 757.498 417.405 761.818 417.719C766.14 418.018 769.516 419.046 769.46 419.248Z" fill="#17282F"/>
<path d="M788.616 476.857L798.156 527.04C798.788 530.358 801.689 532.76 805.068 532.76H833.258C836.698 532.76 839.635 530.27 840.198 526.877L848.492 476.857H788.616Z" fill="#17282F"/>
<path d="M791.716 493.167H845.628L848.492 476.858H788.616L791.716 493.167Z" fill="#33535F"/>
<path d="M791.716 493.167L792.848 499.113H844.801L845.628 493.167H791.716Z" fill="#FAFAF9"/>
<path d="M76.5423 465.112L74.7481 498.125C74.6846 499.301 73.7163 500.224 72.5393 500.232L13.1351 500.668C11.9038 500.677 10.8986 499.687 10.8893 498.455L10.7012 472.758C10.6924 471.523 11.6913 470.515 12.9278 470.513L49.4633 470.481C50.0529 470.481 50.6195 470.246 51.0366 469.828L57.3403 463.528C57.7543 463.113 58.3147 462.879 58.8991 462.876L74.3013 462.763C75.5857 462.753 76.6122 463.829 76.5423 465.112Z" fill="#F03D5F"/>
<path d="M10.9401 505.415L75.8464 504.939L75.5625 466.155L10.6562 466.63L10.9401 505.415Z" fill="#F3F2F1"/>
<path d="M80.7513 469.597L76.0915 510.078C76.0091 510.798 75.4019 511.342 74.6784 511.347L11.4227 511.811C10.6747 511.817 10.0487 511.246 9.98516 510.501L6.50338 470.078C6.43204 469.246 7.08516 468.529 7.9211 468.522L79.3159 467.999C80.1768 467.993 80.8492 468.742 80.7513 469.597Z" fill="#F03D5F"/>
<path d="M94.0194 458.885L92.2251 491.896C92.1601 493.073 91.1929 493.996 90.0153 494.003L30.6111 494.439C29.3803 494.449 28.3751 493.458 28.3658 492.226L28.1778 466.53C28.169 465.295 29.1685 464.286 30.4049 464.285L66.9393 464.253C67.5299 464.253 68.0955 464.018 68.5127 463.6L74.8169 457.3C75.2309 456.885 75.7909 456.652 76.3762 456.648L91.7778 456.534C93.0622 456.525 94.0887 457.601 94.0194 458.885Z" fill="#F03D5F"/>
<path d="M93.0528 461.8L93.0388 459.927L72.0342 460.081L74.817 457.3C75.231 456.885 75.791 456.652 76.3763 456.648L91.7779 456.534C91.7831 456.534 91.7888 456.534 91.794 456.534C93.031 456.534 94.0248 457.541 94.0227 458.765C94.0227 458.805 94.0216 458.845 94.0195 458.885L93.9362 460.412L93.9159 460.785L93.8612 461.795L93.0528 461.8Z" fill="#BA2C42"/>
<path d="M28.4177 499.188L93.3239 498.712L93.0395 459.927L28.1338 460.402L28.4177 499.188Z" fill="#F3F2F1"/>
<path d="M98.228 463.369L93.5692 503.851C93.4859 504.57 92.8796 505.115 92.1556 505.12L28.9004 505.584C28.1525 505.589 27.5259 505.019 27.4613 504.273L23.9811 463.851C23.9087 463.019 24.5624 462.301 25.3983 462.295L96.7936 461.772C97.654 461.767 98.3259 462.513 98.228 463.369Z" fill="#F03D5F"/>
<path d="M28.8903 505.584C28.1471 505.584 27.5256 505.016 27.4616 504.273L23.9813 463.851C23.9772 463.808 23.9756 463.767 23.9756 463.725C23.9756 462.948 24.6053 462.301 25.3985 462.295L96.7939 461.772C96.7975 461.772 96.8012 461.772 96.8048 461.772C97.6032 461.772 98.2365 462.421 98.2376 463.201C98.2376 463.256 98.2345 463.312 98.2283 463.369L97.4528 470.105L96.6522 477.061L93.5695 503.851C93.4861 504.57 92.8799 505.115 92.1559 505.12L28.9007 505.584C28.8971 505.584 28.8939 505.584 28.8903 505.584Z" fill="#BA2C42"/>
<path d="M113.716 466.614L111.921 499.626C111.857 500.802 110.889 501.725 109.712 501.734L50.3074 502.169C49.0761 502.178 48.0709 501.188 48.0621 499.957L47.8741 474.261C47.8646 473.024 48.8641 472.017 50.1006 472.015L86.6356 471.984C87.2256 471.984 87.7917 471.748 88.2089 471.33L94.5126 465.03C94.9266 464.615 95.4865 464.382 96.0725 464.378L111.474 464.265C112.759 464.255 113.786 465.33 113.716 466.614Z" fill="#F03D5F"/>
<path d="M48.1139 506.917L113.02 506.441L112.736 467.657L47.8301 468.132L48.1139 506.917Z" fill="#F3F2F1"/>
<path d="M117.925 471.1L113.265 511.581C113.182 512.3 112.576 512.845 111.852 512.85L48.5965 513.314C47.8491 513.32 47.222 512.749 47.1585 512.003L43.6772 471.581C43.6059 470.749 44.2595 470.032 45.0944 470.025L116.49 469.501C117.351 469.494 118.023 470.244 117.925 471.1Z" fill="#F03D5F"/>
<path d="M70.1156 486.708C70.1156 484.419 71.9719 482.561 74.2625 482.561H94.0912C96.3817 482.561 98.2375 484.419 98.2375 486.708C98.2375 488.997 96.3817 490.853 94.0912 490.853H74.2625C71.9719 490.853 70.1156 488.997 70.1156 486.708ZM43.6719 476.605V532.76H124.682V476.605H43.6719Z" fill="#33535F"/>
<path d="M0 476.605V532.76H43.6719V476.605H0Z" fill="#17282F"/>
</g>
<defs>
<clipPath id="clip0_393_19">
<rect width="931.84" height="532.76" fill="white"/>
</clipPath>
</defs>
</svg>
