<svg width="426" viewBox="0 0 426 74" fill="none" xmlns="http://www.w3.org/2000/svg">
<path d="M0.981602 47.6337L31.6216 10.9937H3.3816V0.433707H48.3416V10.3537L17.7016 46.9937H49.1416V57.5537H0.981602V47.6337ZM67.0166 36.9137C67.0166 38.567 67.1766 40.1937 67.4966 41.7937C67.8166 43.3404 68.3499 44.7537 69.0966 46.0337C69.8966 47.2604 70.9366 48.247 72.2166 48.9937C73.4966 49.7404 75.0966 50.1137 77.0166 50.1137C78.9366 50.1137 80.5366 49.7404 81.8166 48.9937C83.1499 48.247 84.1899 47.2604 84.9366 46.0337C85.7366 44.7537 86.2966 43.3404 86.6166 41.7937C86.9366 40.1937 87.0966 38.567 87.0966 36.9137C87.0966 35.2604 86.9366 33.6337 86.6166 32.0337C86.2966 30.4337 85.7366 29.0204 84.9366 27.7937C84.1899 26.567 83.1499 25.5804 81.8166 24.8337C80.5366 24.0337 78.9366 23.6337 77.0166 23.6337C75.0966 23.6337 73.4966 24.0337 72.2166 24.8337C70.9366 25.5804 69.8966 26.567 69.0966 27.7937C68.3499 29.0204 67.8166 30.4337 67.4966 32.0337C67.1766 33.6337 67.0166 35.2604 67.0166 36.9137ZM55.6566 36.9137C55.6566 33.607 56.1633 30.6204 57.1766 27.9537C58.1899 25.2337 59.6299 22.9404 61.4966 21.0737C63.3633 19.1537 65.6033 17.687 68.2166 16.6737C70.8299 15.607 73.7633 15.0737 77.0166 15.0737C80.2699 15.0737 83.2033 15.607 85.8166 16.6737C88.4833 17.687 90.7499 19.1537 92.6166 21.0737C94.4833 22.9404 95.9233 25.2337 96.9366 27.9537C97.9499 30.6204 98.4566 33.607 98.4566 36.9137C98.4566 40.2204 97.9499 43.207 96.9366 45.8737C95.9233 48.5404 94.4833 50.8337 92.6166 52.7537C90.7499 54.6204 88.4833 56.0604 85.8166 57.0737C83.2033 58.087 80.2699 58.5937 77.0166 58.5937C73.7633 58.5937 70.8299 58.087 68.2166 57.0737C65.6033 56.0604 63.3633 54.6204 61.4966 52.7537C59.6299 50.8337 58.1899 48.5404 57.1766 45.8737C56.1633 43.207 55.6566 40.2204 55.6566 36.9137ZM107.443 16.1937H118.243V23.8737H118.403C118.936 22.5937 119.656 21.4204 120.563 20.3537C121.47 19.2337 122.51 18.3004 123.683 17.5537C124.856 16.7537 126.11 16.1404 127.443 15.7137C128.776 15.287 130.163 15.0737 131.603 15.0737C132.35 15.0737 133.176 15.207 134.083 15.4737V26.0337C133.55 25.927 132.91 25.847 132.163 25.7937C131.416 25.687 130.696 25.6337 130.003 25.6337C127.923 25.6337 126.163 25.9804 124.723 26.6737C123.283 27.367 122.11 28.327 121.203 29.5537C120.35 30.727 119.736 32.1137 119.363 33.7137C118.99 35.3137 118.803 37.047 118.803 38.9137V57.5537H107.443V16.1937ZM148.81 36.9137C148.81 38.567 148.97 40.1937 149.29 41.7937C149.61 43.3404 150.144 44.7537 150.89 46.0337C151.69 47.2604 152.73 48.247 154.01 48.9937C155.29 49.7404 156.89 50.1137 158.81 50.1137C160.73 50.1137 162.33 49.7404 163.61 48.9937C164.944 48.247 165.984 47.2604 166.73 46.0337C167.53 44.7537 168.09 43.3404 168.41 41.7937C168.73 40.1937 168.89 38.567 168.89 36.9137C168.89 35.2604 168.73 33.6337 168.41 32.0337C168.09 30.4337 167.53 29.0204 166.73 27.7937C165.984 26.567 164.944 25.5804 163.61 24.8337C162.33 24.0337 160.73 23.6337 158.81 23.6337C156.89 23.6337 155.29 24.0337 154.01 24.8337C152.73 25.5804 151.69 26.567 150.89 27.7937C150.144 29.0204 149.61 30.4337 149.29 32.0337C148.97 33.6337 148.81 35.2604 148.81 36.9137ZM137.45 36.9137C137.45 33.607 137.957 30.6204 138.97 27.9537C139.984 25.2337 141.424 22.9404 143.29 21.0737C145.157 19.1537 147.397 17.687 150.01 16.6737C152.624 15.607 155.557 15.0737 158.81 15.0737C162.064 15.0737 164.997 15.607 167.61 16.6737C170.277 17.687 172.544 19.1537 174.41 21.0737C176.277 22.9404 177.717 25.2337 178.73 27.9537C179.744 30.6204 180.25 33.607 180.25 36.9137C180.25 40.2204 179.744 43.207 178.73 45.8737C177.717 48.5404 176.277 50.8337 174.41 52.7537C172.544 54.6204 170.277 56.0604 167.61 57.0737C164.997 58.087 162.064 58.5937 158.81 58.5937C155.557 58.5937 152.624 58.087 150.01 57.0737C147.397 56.0604 145.157 54.6204 143.29 52.7537C141.424 50.8337 139.984 48.5404 138.97 45.8737C137.957 43.207 137.45 40.2204 137.45 36.9137ZM190.677 0.433707H210.437C219.13 0.647041 225.663 3.10037 230.037 7.79371C234.463 12.4337 236.677 19.5004 236.677 28.9937C236.677 38.487 234.463 45.5804 230.037 50.2737C225.663 54.9137 219.13 57.3404 210.437 57.5537H190.677V0.433707ZM196.117 52.9137H207.717C211.823 52.9137 215.343 52.487 218.277 51.6337C221.263 50.727 223.717 49.3137 225.637 47.3937C227.557 45.4737 228.97 42.9937 229.877 39.9537C230.783 36.9137 231.237 33.2604 231.237 28.9937C231.237 24.727 230.783 21.0737 229.877 18.0337C228.97 14.9937 227.557 12.5137 225.637 10.5937C223.717 8.67371 221.263 7.28704 218.277 6.43371C215.343 5.52704 211.823 5.07371 207.717 5.07371H196.117V52.9137ZM275.762 34.0337C275.709 32.1137 275.362 30.2737 274.722 28.5137C274.136 26.7537 273.282 25.207 272.162 23.8737C271.042 22.487 269.682 21.3937 268.082 20.5937C266.482 19.7404 264.669 19.3137 262.642 19.3137C260.562 19.3137 258.722 19.7404 257.122 20.5937C255.522 21.3937 254.162 22.487 253.042 23.8737C251.922 25.207 251.016 26.7804 250.322 28.5937C249.682 30.3537 249.256 32.167 249.042 34.0337H275.762ZM249.042 38.2737C249.042 40.087 249.282 41.9804 249.762 43.9537C250.296 45.8737 251.122 47.607 252.242 49.1537C253.362 50.7004 254.776 51.9804 256.482 52.9937C258.189 54.007 260.242 54.5137 262.642 54.5137C266.322 54.5137 269.202 53.5537 271.282 51.6337C273.362 49.7137 274.802 47.1537 275.602 43.9537H280.642C279.576 48.647 277.602 52.2737 274.722 54.8337C271.896 57.3937 267.869 58.6737 262.642 58.6737C259.389 58.6737 256.562 58.1137 254.162 56.9937C251.816 55.8204 249.896 54.247 248.402 52.2737C246.909 50.247 245.789 47.927 245.042 45.3137C244.349 42.647 244.002 39.847 244.002 36.9137C244.002 34.1937 244.349 31.527 245.042 28.9137C245.789 26.3004 246.909 23.9804 248.402 21.9537C249.896 19.8737 251.816 18.2204 254.162 16.9937C256.562 15.7137 259.389 15.0737 262.642 15.0737C265.949 15.0737 268.776 15.7404 271.122 17.0737C273.469 18.407 275.362 20.167 276.802 22.3537C278.296 24.487 279.362 26.967 280.002 29.7937C280.642 32.567 280.909 35.3937 280.802 38.2737H249.042ZM313.887 28.3537C313.833 26.807 313.513 25.4737 312.927 24.3537C312.34 23.1804 311.54 22.2204 310.527 21.4737C309.567 20.727 308.447 20.1937 307.167 19.8737C305.887 19.5004 304.527 19.3137 303.087 19.3137C301.967 19.3137 300.82 19.447 299.647 19.7137C298.527 19.927 297.487 20.327 296.527 20.9137C295.567 21.447 294.793 22.167 294.207 23.0737C293.62 23.9804 293.327 25.1004 293.327 26.4337C293.327 27.5537 293.593 28.5137 294.127 29.3137C294.713 30.0604 295.433 30.7004 296.287 31.2337C297.14 31.767 298.073 32.2204 299.087 32.5937C300.1 32.9137 301.033 33.1804 301.887 33.3937L308.607 34.9137C310.047 35.127 311.46 35.527 312.847 36.1137C314.287 36.647 315.54 37.367 316.607 38.2737C317.727 39.1804 318.633 40.3004 319.327 41.6337C320.02 42.967 320.367 44.5404 320.367 46.3537C320.367 48.5937 319.86 50.5137 318.847 52.1137C317.833 53.6604 316.527 54.9404 314.927 55.9537C313.38 56.9137 311.62 57.607 309.647 58.0337C307.673 58.4604 305.727 58.6737 303.807 58.6737C298.953 58.6737 295.007 57.527 291.967 55.2337C288.98 52.9404 287.273 49.2604 286.847 44.1937H291.887C292.1 47.607 293.327 50.1937 295.567 51.9537C297.86 53.6604 300.687 54.5137 304.047 54.5137C305.273 54.5137 306.527 54.3804 307.807 54.1137C309.14 53.847 310.367 53.3937 311.487 52.7537C312.607 52.1137 313.513 51.3137 314.207 50.3537C314.953 49.3404 315.327 48.1137 315.327 46.6737C315.327 45.447 315.06 44.4337 314.527 43.6337C314.047 42.7804 313.38 42.087 312.527 41.5537C311.673 40.967 310.687 40.487 309.567 40.1137C308.5 39.7404 307.407 39.4204 306.287 39.1537L299.807 37.7137C298.153 37.287 296.633 36.807 295.247 36.2737C293.86 35.687 292.633 34.9937 291.567 34.1937C290.553 33.3404 289.753 32.327 289.167 31.1537C288.58 29.927 288.287 28.4337 288.287 26.6737C288.287 24.5937 288.74 22.807 289.647 21.3137C290.607 19.8204 291.833 18.6204 293.327 17.7137C294.82 16.807 296.473 16.1404 298.287 15.7137C300.153 15.287 301.993 15.0737 303.807 15.0737C305.887 15.0737 307.807 15.3404 309.567 15.8737C311.38 16.407 312.953 17.2337 314.287 18.3537C315.673 19.4737 316.767 20.8604 317.567 22.5137C318.367 24.167 318.82 26.1137 318.927 28.3537H313.887ZM329.362 0.433707H334.402V8.51371H329.362V0.433707ZM329.362 16.2737H334.402V57.5537H329.362V16.2737ZM380.528 54.1937C380.528 57.2337 380.181 59.9804 379.488 62.4337C378.848 64.887 377.808 66.967 376.368 68.6737C374.928 70.3804 373.035 71.687 370.688 72.5937C368.395 73.5004 365.568 73.9537 362.208 73.9537C360.128 73.9537 358.101 73.7137 356.128 73.2337C354.155 72.7537 352.368 72.007 350.768 70.9937C349.221 69.9804 347.915 68.6737 346.848 67.0737C345.835 65.527 345.248 63.6604 345.088 61.4737H350.128C350.395 63.0204 350.901 64.3004 351.648 65.3137C352.448 66.3804 353.381 67.2337 354.448 67.8737C355.568 68.5137 356.795 68.967 358.128 69.2337C359.461 69.5537 360.821 69.7137 362.208 69.7137C366.901 69.7137 370.288 68.3804 372.368 65.7137C374.448 63.047 375.488 59.207 375.488 54.1937V48.5937H375.328C374.155 51.1537 372.421 53.207 370.128 54.7537C367.888 56.3004 365.248 57.0737 362.208 57.0737C358.901 57.0737 356.075 56.5404 353.728 55.4737C351.381 54.3537 349.435 52.8337 347.888 50.9137C346.395 48.9937 345.301 46.7537 344.608 44.1937C343.915 41.5804 343.568 38.807 343.568 35.8737C343.568 33.047 343.968 30.3804 344.768 27.8737C345.621 25.3137 346.821 23.1004 348.368 21.2337C349.968 19.3137 351.915 17.8204 354.208 16.7537C356.555 15.6337 359.221 15.0737 362.208 15.0737C363.755 15.0737 365.195 15.287 366.528 15.7137C367.915 16.1404 369.168 16.7537 370.288 17.5537C371.408 18.3004 372.395 19.1804 373.248 20.1937C374.155 21.207 374.848 22.2737 375.328 23.3937H375.488V16.2737H380.528V54.1937ZM362.208 52.8337C364.395 52.8337 366.315 52.3804 367.968 51.4737C369.621 50.5137 371.008 49.287 372.128 47.7937C373.248 46.247 374.075 44.487 374.608 42.5137C375.195 40.5404 375.488 38.5137 375.488 36.4337C375.488 34.407 375.248 32.3804 374.768 30.3537C374.288 28.327 373.515 26.487 372.448 24.8337C371.381 23.1804 369.995 21.847 368.288 20.8337C366.635 19.8204 364.608 19.3137 362.208 19.3137C359.808 19.3137 357.755 19.8204 356.048 20.8337C354.341 21.7937 352.928 23.0737 351.808 24.6737C350.688 26.2737 349.861 28.1137 349.328 30.1937C348.848 32.2204 348.608 34.3004 348.608 36.4337C348.608 38.5137 348.875 40.5404 349.408 42.5137C349.941 44.487 350.768 46.247 351.888 47.7937C353.008 49.287 354.421 50.5137 356.128 51.4737C357.835 52.3804 359.861 52.8337 362.208 52.8337ZM391.621 16.2737H396.661V23.3937H396.821C397.781 20.887 399.488 18.887 401.941 17.3937C404.394 15.847 407.088 15.0737 410.021 15.0737C412.901 15.0737 415.301 15.447 417.221 16.1937C419.194 16.9404 420.768 18.007 421.941 19.3937C423.114 20.727 423.941 22.3804 424.421 24.3537C424.901 26.327 425.141 28.5404 425.141 30.9937V57.5537H420.101V31.7937C420.101 30.0337 419.941 28.407 419.621 26.9137C419.301 25.367 418.741 24.0337 417.941 22.9137C417.141 21.7937 416.048 20.9137 414.661 20.2737C413.328 19.6337 411.648 19.3137 409.621 19.3137C407.594 19.3137 405.781 19.687 404.181 20.4337C402.634 21.127 401.301 22.1137 400.181 23.3937C399.114 24.6204 398.261 26.1137 397.621 27.8737C397.034 29.5804 396.714 31.447 396.661 33.4737V57.5537H391.621V16.2737Z" fill="black"/>
</svg>
