<svg width="111" height="30" viewBox="0 0 111 30" fill="none" xmlns="http://www.w3.org/2000/svg">
<path d="M95.2678 0.145556C92.928 0.493746 91.6049 1.63581 91.0339 3.76673C90.9364 4.11492 90.8249 5.45197 90.7692 6.76116L90.6857 9.12885L87.2038 9.26813V11.7751L90.7553 11.8587L90.7971 13.4882C90.811 14.3796 90.8249 18.2236 90.8249 22.0119V28.906H94.3626L94.4183 20.4659C94.4461 15.8141 94.5158 11.9701 94.5575 11.9004C94.5993 11.8169 96.3263 11.7751 98.513 11.7751H102.385L102.427 18.8085C102.441 22.8615 102.524 26.1344 102.608 26.5383C102.956 28.2375 103.889 28.9617 106.117 29.2681C107.092 29.4074 107.594 29.3935 108.555 29.2542C110.491 28.9757 110.393 29.0732 110.393 27.5133V26.1762L109.878 26.2876C109.585 26.3433 108.875 26.3991 108.304 26.3991C107.106 26.3991 106.647 26.1901 106.271 25.4798C106.048 25.0202 105.992 22.6943 106.048 14.867L106.076 11.7055H110.519L110.491 10.4938C110.463 9.03136 110.574 9.08707 107.942 9.07314L106.117 9.05921L106.034 7.97286C105.992 7.3879 105.978 6.30155 106.006 5.59124C106.034 4.86701 106.02 4.19849 105.964 4.10099C105.895 3.96172 105.435 4.07314 104.168 4.49097L102.468 5.04807L102.385 9.12885L101.131 9.17063C100.449 9.19849 98.6662 9.17063 97.2038 9.12885L94.5158 9.03136V6.91437C94.5158 4.99236 94.5436 4.74166 94.8361 4.18456C95.421 3.01464 96.4795 2.65252 98.2066 3.01464C98.7497 3.12606 99.279 3.22355 99.3904 3.25141C99.5715 3.27927 99.5854 3.07035 99.5436 1.88651C99.5158 1.12049 99.4879 0.479818 99.474 0.451963C99.4461 0.438036 99.0979 0.368398 98.6801 0.29876C97.4823 0.0898459 96.0339 0.020208 95.2678 0.145556Z" fill="black"/>
<path d="M8.80518 0.299773C6.67426 0.606179 4.86367 1.33041 3.49877 2.41676C1.96673 3.64239 1.18679 5.00729 0.894311 7.02679C0.448628 10.1326 1.88317 12.8903 4.58512 14.1438C5.65754 14.6452 7.87203 15.3276 10.6436 16.024C15.7272 17.2914 17.9138 18.8095 17.9417 21.0937C17.9556 22.1243 17.7188 22.8485 17.0225 23.7817C15.8943 25.3137 13.9723 26.0519 11.1589 26.0519C9.29264 26.0519 8.24808 25.8708 7.20351 25.3834C5.75504 24.7009 4.96117 23.6145 4.59905 21.8179C4.4737 21.2747 4.33442 20.7733 4.27871 20.7176C4.223 20.6619 3.35949 20.634 2.37063 20.648L0.573977 20.6898L0.532194 21.3165C0.37899 23.4335 1.53498 26.1633 3.06701 27.3054C4.84974 28.6285 6.84139 29.1995 10.2815 29.3527C16.0057 29.6034 19.9194 27.6257 21.3957 23.7538C21.8275 22.5978 21.9528 19.9655 21.6186 18.6842C20.8247 15.5923 18.9445 14.3806 11.7996 12.4028C10.3929 12.0268 8.83303 11.5393 8.31771 11.3443C6.95281 10.8012 5.72718 9.96551 5.23972 9.22735C4.8776 8.68418 4.82189 8.46134 4.82189 7.66746C4.82189 4.99337 7.38457 3.21064 11.1868 3.21064C14.3484 3.22456 16.5907 4.54768 17.0225 6.69253L17.1757 7.45855L19.0002 7.50033C20.5183 7.52819 20.8525 7.50033 20.9222 7.3332C20.964 7.22178 20.9361 6.66468 20.8525 6.10757C20.379 3.01565 17.7885 0.842948 13.9445 0.285845C12.7885 0.132642 9.96117 0.132642 8.80518 0.299773Z" fill="black"/>
<path d="M53.9644 8.84608C49.9254 9.47282 47.8579 11.2779 47.635 14.2724C47.4958 16.0969 47.9832 17.3225 49.2646 18.3392C50.3091 19.1749 51.3258 19.5231 55.713 20.5955C57.7743 21.1108 58.1086 21.2501 58.7771 21.9465C59.7103 22.9075 59.5849 24.3977 58.4707 25.4841C57.7047 26.2222 57.1058 26.4451 55.6155 26.5565C53.596 26.7097 52.0222 25.9994 51.3537 24.6066C51.1866 24.2724 51.0612 23.8545 51.0612 23.6595C51.0612 23.0467 50.8384 22.9771 49.0696 22.9771H47.3983L47.4818 24.0634C47.6907 26.835 49.0556 28.3531 51.9665 29.0635C53.4011 29.4116 57.2311 29.3977 58.3593 29.0495C61.5765 28.0746 63.1921 26.1108 63.1921 23.186C63.1921 21.7375 62.83 20.7348 61.9526 19.7598C61.1169 18.8267 60.0724 18.3392 57.1894 17.5453C53.2478 16.4729 52.7604 16.3058 52.1615 15.8322C51.3258 15.2055 51.0473 14.3559 51.3955 13.4506C51.7297 12.5871 52.0361 12.2389 52.8718 11.7793C53.4428 11.4729 53.8328 11.3754 54.752 11.3197C57.2172 11.1526 58.6657 12.0161 58.9721 13.8267L59.0835 14.4116H62.5515L62.5375 13.4367C62.5236 10.7208 60.1141 9.00773 55.9359 8.72918C55.3648 8.68739 54.3962 8.77644 53.9644 8.84608Z" fill="black"/>
<path d="M74.9475 8.78036C70.9503 9.23997 68.0395 11.7052 66.9392 15.5492C66.0478 18.655 66.4099 22.8194 67.7609 25.1453C69.3347 27.8333 72.3431 29.3932 75.9642 29.3932C78.1927 29.3932 80.5604 28.7525 82.0088 27.7497C82.7331 27.2483 84.0422 25.8974 84.4601 25.201C85.3793 23.6829 85.8807 21.4962 85.8807 18.9475C85.8807 15.4935 85.059 13.084 83.2762 11.3013C81.3542 9.37925 78.1648 8.41824 74.9475 8.78036ZM78.5408 11.6912C80.24 12.3598 81.5492 14.045 82.0645 16.2455C82.357 17.5408 82.3709 20.382 82.0645 21.6355C81.5771 23.6829 80.3932 25.2985 78.8055 26.0784C78.0395 26.4545 77.7191 26.538 76.6188 26.5798C74.8918 26.6634 73.9587 26.4405 72.9002 25.7302C71.1592 24.5464 70.2957 22.6244 70.1843 19.6439C70.1007 17.5547 70.3375 16.162 71.0339 14.6857C71.7999 13.0701 72.9002 12.0533 74.4461 11.538C75.5186 11.1898 77.4127 11.2595 78.5408 11.6912Z" fill="black"/>
<path d="M26.4374 16.9563C26.4931 25.9117 26.4513 25.6192 27.7605 27.0259C29.0836 28.4744 31.0753 29.2543 33.3733 29.2543C35.7132 29.2543 37.4263 28.5579 38.7912 27.0677C39.2368 26.5802 39.6407 26.1903 39.6825 26.1903C39.7382 26.1903 39.7939 26.7891 39.8079 27.5273L39.8497 28.8643H43.3316L43.3594 19.2822C43.3733 14.0036 43.3594 9.57465 43.3176 9.43537C43.248 9.21253 43.0669 9.1986 41.4792 9.22646L39.7104 9.26824L39.6407 16.3713C39.5711 22.9869 39.5572 23.5022 39.3065 23.9618C38.7494 24.9925 38.2341 25.4799 37.1616 26.0092C36.1031 26.5384 36.1031 26.5384 34.3622 26.5384C32.8162 26.5384 32.5377 26.4967 32.0363 26.232C31.2285 25.8003 30.56 24.9646 30.2257 24.0036C29.975 23.2515 29.9611 22.7362 29.9471 16.3713C29.9332 12.6109 29.9193 9.46322 29.9054 9.36573C29.8914 9.24038 29.4457 9.1986 28.1505 9.1986H26.3956L26.4374 16.9563Z" fill="black"/>
</svg>
